<svg xmlns="http://www.w3.org/2000/svg" width="141" height="135" fill="none" viewBox="0 0 141 135"><path stroke="#000" stroke-width="2" d="M1 0V134H135"/><circle r="3.5" fill="#F8BBD0" transform="matrix(-1 0 0 1 34.5 39.5)"/><circle r="3.5" fill="#F8BBD0" transform="matrix(-1 0 0 1 49.5 25.5)"/><circle r="3.5" fill="#F8BBD0" transform="matrix(-1 0 0 1 38.5 73.5)"/><circle r="3.5" fill="#F8BBD0" transform="matrix(-1 0 0 1 52.5 66.5)"/><circle r="3.5" fill="#F8BBD0" transform="matrix(-1 0 0 1 25.5 69.5)"/><circle r="3.5" fill="#F8BBD0" transform="matrix(-1 0 0 1 38.5 25.5)"/><circle r="3.5" fill="#F8BBD0" transform="matrix(-1 0 0 1 44.5 11.5)"/><circle r="3.5" fill="#F8BBD0" transform="matrix(-1 0 0 1 29.5 87.5)"/><circle r="3.5" fill="#F8BBD0" transform="matrix(-1 0 0 1 41.5 84.5)"/><circle r="3.5" fill="#F8BBD0" transform="matrix(-1 0 0 1 53.5 77.5)"/><circle r="3.5" fill="#F8BBD0" transform="matrix(-1 0 0 1 27.5 28.5)"/><circle r="3.5" fill="#F8BBD0" transform="matrix(-1 0 0 1 22.5 42.5)"/><circle r="3.5" fill="#F8BBD0" transform="matrix(-1 0 0 1 22.5 53.5)"/><circle r="3.5" fill="#F8BBD0" transform="matrix(-1 0 0 1 48.5 56.5)"/><circle r="3.5" fill="#F8BBD0" transform="matrix(-1 0 0 1 39.5 49.5)"/><circle r="3.5" fill="#F8BBD0" transform="matrix(-1 0 0 1 54.5 42.5)"/><circle r="3.5" fill="#F8BBD0" transform="matrix(-1 0 0 1 37.5 98.5)"/><circle r="3.5" fill="#F8BBD0" transform="matrix(-1 0 0 1 45.5 39.5)"/><circle r="3.5" fill="#F8BBD0" transform="matrix(-1 0 0 1 34.5 59.5)"/><rect width="8" height="8" x="80" y="32" fill="#CECECE"/><rect width="8" height="8" x="109" y="50" fill="#CECECE"/><rect width="8" height="8" x="122" y="53" fill="#CECECE"/><rect width="8" height="8" x="118" y="71" fill="#CECECE"/><rect width="8" height="8" x="73" y="73" fill="#CECECE"/><rect width="8" height="8" x="106" y="37" fill="#CECECE"/><rect width="8" height="8" x="102" y="77" fill="#CECECE"/><rect width="8" height="8" x="95" y="46" fill="#CECECE"/><rect width="8" height="8" x="93" y="34" fill="#CECECE"/><rect width="8" height="8" x="84" y="53" fill="#CECECE"/><rect width="8" height="8" x="88" y="74" fill="#CECECE"/><rect width="8" height="8" x="72" y="58" fill="#CECECE"/><rect width="8" height="8" x="96" y="62" fill="#CECECE"/><rect width="8" height="8" x="73" y="45" fill="#CECECE"/><ellipse cx="39.5" cy="53.5" fill="#F8BBD0" fill-opacity=".5" rx="23.5" ry="53.5"/><path stroke="#283593" stroke-width="2" d="M133 128C131.661 127.732 98.6292 103.83 69.7956 81.1605C52.4836 67.5497 56.5497 41.7623 76.6944 32.8659L133 8"/><ellipse cx="98.5" cy="59.5" fill="#CECECE" fill-opacity=".5" rx="42.5" ry="30.5"/></svg>