<svg width="141" height="135" viewBox="0 0 141 135" fill="none" xmlns="http://www.w3.org/2000/svg">
<path d="M1 0V134H135" stroke="black" stroke-width="2"/>
<circle r="3.5" transform="matrix(-1 0 0 1 34.5 39.5)" fill="#F8BBD0"/>
<circle r="3.5" transform="matrix(-1 0 0 1 49.5 25.5)" fill="#F8BBD0"/>
<circle r="3.5" transform="matrix(-1 0 0 1 38.5 73.5)" fill="#F8BBD0"/>
<circle r="3.5" transform="matrix(-1 0 0 1 52.5 66.5)" fill="#F8BBD0"/>
<circle r="3.5" transform="matrix(-1 0 0 1 25.5 69.5)" fill="#F8BBD0"/>
<circle r="3.5" transform="matrix(-1 0 0 1 38.5 25.5)" fill="#F8BBD0"/>
<circle r="3.5" transform="matrix(-1 0 0 1 44.5 11.5)" fill="#F8BBD0"/>
<circle r="3.5" transform="matrix(-1 0 0 1 29.5 87.5)" fill="#F8BBD0"/>
<circle r="3.5" transform="matrix(-1 0 0 1 41.5 84.5)" fill="#F8BBD0"/>
<circle r="3.5" transform="matrix(-1 0 0 1 53.5 77.5)" fill="#F8BBD0"/>
<circle r="3.5" transform="matrix(-1 0 0 1 27.5 28.5)" fill="#F8BBD0"/>
<circle r="3.5" transform="matrix(-1 0 0 1 22.5 42.5)" fill="#F8BBD0"/>
<circle r="3.5" transform="matrix(-1 0 0 1 22.5 53.5)" fill="#F8BBD0"/>
<circle r="3.5" transform="matrix(-1 0 0 1 48.5 56.5)" fill="#F8BBD0"/>
<circle r="3.5" transform="matrix(-1 0 0 1 39.5 49.5)" fill="#F8BBD0"/>
<circle r="3.5" transform="matrix(-1 0 0 1 54.5 42.5)" fill="#F8BBD0"/>
<circle r="3.5" transform="matrix(-1 0 0 1 37.5 98.5)" fill="#F8BBD0"/>
<circle r="3.5" transform="matrix(-1 0 0 1 45.5 39.5)" fill="#F8BBD0"/>
<circle r="3.5" transform="matrix(-1 0 0 1 34.5 59.5)" fill="#F8BBD0"/>
<rect x="80" y="32" width="8" height="8" fill="#CECECE"/>
<rect x="109" y="50" width="8" height="8" fill="#CECECE"/>
<rect x="122" y="53" width="8" height="8" fill="#CECECE"/>
<rect x="118" y="71" width="8" height="8" fill="#CECECE"/>
<rect x="73" y="73" width="8" height="8" fill="#CECECE"/>
<rect x="106" y="37" width="8" height="8" fill="#CECECE"/>
<rect x="102" y="77" width="8" height="8" fill="#CECECE"/>
<rect x="95" y="46" width="8" height="8" fill="#CECECE"/>
<rect x="93" y="34" width="8" height="8" fill="#CECECE"/>
<rect x="84" y="53" width="8" height="8" fill="#CECECE"/>
<rect x="88" y="74" width="8" height="8" fill="#CECECE"/>
<rect x="72" y="58" width="8" height="8" fill="#CECECE"/>
<rect x="96" y="62" width="8" height="8" fill="#CECECE"/>
<rect x="73" y="45" width="8" height="8" fill="#CECECE"/>
<ellipse cx="39.5" cy="53.5" rx="23.5" ry="53.5" fill="#F8BBD0" fill-opacity="0.5"/>
<path d="M133 128C131.661 127.732 98.6292 103.83 69.7956 81.1605C52.4836 67.5497 56.5497 41.7623 76.6944 32.8659L133 8" stroke="#283593" stroke-width="2"/>
<ellipse cx="98.5" cy="59.5" rx="42.5" ry="30.5" fill="#CECECE" fill-opacity="0.5"/>
</svg>
