<svg width="135" height="135" viewBox="0 0 135 135" fill="none" xmlns="http://www.w3.org/2000/svg">
<path d="M1 0V134H135" stroke="black" stroke-width="2"/>
<circle r="3.5" transform="matrix(-1 0 0 1 17.5 35.5)" fill="#F8BBD0"/>
<circle r="3.5" transform="matrix(-1 0 0 1 37.5 45.5)" fill="#F8BBD0"/>
<circle r="3.5" transform="matrix(-1 0 0 1 41.5 12.5)" fill="#F8BBD0"/>
<circle r="3.5" transform="matrix(-1 0 0 1 60.5 32.5)" fill="#F8BBD0"/>
<circle r="3.5" transform="matrix(-1 0 0 1 10.5 81.5)" fill="#F8BBD0"/>
<circle r="3.5" transform="matrix(-1 0 0 1 44.5 63.5)" fill="#F8BBD0"/>
<circle r="3.5" transform="matrix(-1 0 0 1 17.5 103.5)" fill="#F8BBD0"/>
<circle r="3.5" transform="matrix(-1 0 0 1 24.5 60.5)" fill="#F8BBD0"/>
<circle r="3.5" transform="matrix(-1 0 0 1 67.5 56.5)" fill="#F8BBD0"/>
<circle r="3.5" transform="matrix(-1 0 0 1 85.5 19.5)" fill="#F8BBD0"/>
<circle r="3.5" transform="matrix(-1 0 0 1 87.5 63.5)" fill="#F8BBD0"/>
<circle r="3.5" transform="matrix(-1 0 0 1 33.5 85.5)" fill="#F8BBD0"/>
<rect x="50" y="81" width="8" height="8" fill="#CECECE"/>
<rect x="67" y="96" width="8" height="8" fill="#CECECE"/>
<rect x="33" y="107" width="8" height="8" fill="#CECECE"/>
<rect x="84" y="85" width="8" height="8" fill="#CECECE"/>
<rect x="57" y="112" width="8" height="8" fill="#CECECE"/>
<rect x="95" y="103" width="8" height="8" fill="#CECECE"/>
<rect x="118" y="84" width="8" height="8" fill="#CECECE"/>
<rect x="78" y="42" width="8" height="8" fill="#CECECE"/>
<path d="M1.5 133.5L129 12" stroke="#283593" stroke-width="2"/>
</svg>
