<svg width="1440" height="879" viewBox="0 0 1440 879" fill="none" xmlns="http://www.w3.org/2000/svg">
<g clip-path="url(#clip0)">
<path d="M41.5 128.921C28.5213 128.921 18 118.4 18 105.421C18 92.4422 28.5213 81.9209 41.5 81.9209C54.4787 81.9209 65 92.4422 65 105.421C65 118.4 54.4787 128.921 41.5 128.921Z" stroke="#757575" stroke-miterlimit="10"/>
<path d="M159.5 637C150.387 637 143 629.613 143 620.5C143 611.387 150.387 604 159.5 604C168.613 604 176 611.387 176 620.5C176 629.613 168.613 637 159.5 637Z" stroke="#757575" stroke-miterlimit="10"/>
<path d="M90.9669 507.945C87.6715 507.945 85 505.271 85 501.973C85 498.674 87.6715 496 90.9669 496C94.2623 496 96.9337 498.674 96.9337 501.973C96.9337 505.271 94.2623 507.945 90.9669 507.945Z" stroke="#757575" stroke-miterlimit="10"/>
<path d="M201 128C195.477 128 191 123.523 191 118C191 112.477 195.477 108 201 108C206.523 108 211 112.477 211 118C211 123.523 206.523 128 201 128Z" stroke="#757575" stroke-miterlimit="10"/>
<path d="M300.033 555.945C296.738 555.945 294.066 553.271 294.066 549.973C294.066 546.674 296.738 544 300.033 544C303.329 544 306 546.674 306 549.973C306 553.271 303.329 555.945 300.033 555.945Z" stroke="#757575" stroke-miterlimit="10"/>
<path d="M245 252C242.791 252 241 250.209 241 248C241 245.791 242.791 244 245 244C247.209 244 249 245.791 249 248C249 250.209 247.209 252 245 252Z" stroke="#757575" stroke-miterlimit="10"/>
<path d="M391.5 143.5V119.5H367.5V143.5H391.5Z" stroke="#757575"/>
<path d="M176.442 401H191V415.572H176.442V401Z" stroke="#757575" stroke-miterlimit="10"/>
<path d="M76.4423 241H91V255.572H76.4423V241Z" stroke="#757575" stroke-miterlimit="10"/>
<path d="M36.5 354.5V288.5H-29.5V354.5H36.5Z" stroke="#757575"/>
<path d="M1271.5 240.5V226.5H1257.5V240.5H1271.5Z" stroke="#757575"/>
<path d="M1084.5 166.5V174.5H1076.5V166.5H1084.5Z" stroke="#757575"/>
<path d="M1242 495C1239.79 495 1238 493.209 1238 491C1238 488.791 1239.79 487 1242 487C1244.21 487 1246 488.791 1246 491C1246 493.209 1244.21 495 1242 495Z" stroke="#757575" stroke-miterlimit="10"/>
<path d="M1442 390C1423.22 390 1408 374.778 1408 356C1408 337.222 1423.22 322 1442 322C1460.78 322 1476 337.222 1476 356C1476 374.778 1460.78 390 1442 390Z" stroke="#757575" stroke-miterlimit="10"/>
<path d="M1334.5 390C1328.7 390 1324 385.299 1324 379.5C1324 373.701 1328.7 369 1334.5 369C1340.3 369 1345 373.701 1345 379.5C1345 385.299 1340.3 390 1334.5 390Z" stroke="#757575" stroke-miterlimit="10"/>
<path d="M1140.97 25.9453C1144.26 25.9453 1146.93 23.2712 1146.93 19.9726C1146.93 16.674 1144.26 14 1140.97 14C1137.67 14 1135 16.674 1135 19.9726C1135 23.2712 1137.67 25.9453 1140.97 25.9453Z" stroke="#757575" stroke-miterlimit="10"/>
<path d="M970 556H984.558V570.572H970V556Z" stroke="#757575" stroke-miterlimit="10"/>
<path d="M1366 477H1385V496H1366V477Z" stroke="#757575" stroke-miterlimit="10"/>
<path d="M1175.5 587C1166.39 587 1159 579.613 1159 570.5C1159 561.387 1166.39 554 1175.5 554C1184.61 554 1192 561.387 1192 570.5C1192 579.613 1184.61 587 1175.5 587Z" stroke="#757575" stroke-miterlimit="10"/>
<path d="M1327 60.3616H1362V95.3616H1327V60.3616Z" stroke="#757575" stroke-miterlimit="10"/>
<path d="M976.5 73C967.387 73 960 65.6127 960 56.5C960 47.3873 967.387 40 976.5 40C985.613 40 993 47.3873 993 56.5C993 65.6127 985.613 73 976.5 73Z" stroke="#757575" stroke-miterlimit="10"/>
<path d="M1326.5 618.5V604.5H1312.5V618.5H1326.5Z" stroke="#757575"/>
</g>
<defs>
<clipPath id="clip0">
<rect width="1440" height="879" fill="white"/>
</clipPath>
</defs>
</svg>
