<svg xmlns="http://www.w3.org/2000/svg" width="1440" height="767" fill="none" viewBox="0 0 1440 767"><g clip-path="url(#clip0)"><path stroke="#757575" stroke-miterlimit="10" d="M99.5 175C86.5213 175 76 164.479 76 151.5C76 138.521 86.5213 128 99.5 128C112.479 128 123 138.521 123 151.5C123 164.479 112.479 175 99.5 175Z"/><path stroke="#757575" stroke-miterlimit="10" d="M245 367C242.791 367 241 365.209 241 363C241 360.791 242.791 359 245 359C247.209 359 249 360.791 249 363C249 365.209 247.209 367 245 367Z"/><path stroke="#757575" stroke-miterlimit="10" d="M300.033 670.945C296.738 670.945 294.066 668.271 294.066 664.973C294.066 661.674 296.738 659 300.033 659C303.329 659 306 661.674 306 664.973C306 668.271 303.329 670.945 300.033 670.945Z"/><path stroke="#757575" stroke-miterlimit="10" d="M90.9669 622.945C87.6715 622.945 85 620.271 85 616.973C85 613.674 87.6715 611 90.9669 611C94.2623 611 96.9337 613.674 96.9337 616.973C96.9337 620.271 94.2623 622.945 90.9669 622.945Z"/><path stroke="#757575" stroke-miterlimit="10" d="M201 243C195.477 243 191 238.523 191 233C191 227.477 195.477 223 201 223C206.523 223 211 227.477 211 233C211 238.523 206.523 243 201 243Z"/><path stroke="#757575" d="M391.5 234.5H367.5V258.5H391.5V234.5Z"/><path stroke="#757575" d="M36.5 403.5H-29.5V469.5H36.5V403.5Z"/><path stroke="#757575" stroke-miterlimit="10" d="M176.442 516H191V530.572H176.442V516Z"/><path stroke="#757575" stroke-miterlimit="10" d="M76.4423 356H91V370.572H76.4423V356Z"/><path stroke="#757575" stroke-miterlimit="10" d="M159.5 752C150.387 752 143 744.613 143 735.5C143 726.387 150.387 719 159.5 719C168.613 719 176 726.387 176 735.5C176 744.613 168.613 752 159.5 752Z"/><path stroke="#757575" stroke-miterlimit="10" d="M1175.5 702C1166.39 702 1159 694.613 1159 685.5C1159 676.387 1166.39 669 1175.5 669C1184.61 669 1192 676.387 1192 685.5C1192 694.613 1184.61 702 1175.5 702Z"/><path stroke="#757575" d="M1326.5 719.5H1312.5V733.5H1326.5V719.5Z"/><path stroke="#757575" d="M1084.5 289.5H1076.5V281.5H1084.5V289.5Z"/><path stroke="#757575" stroke-miterlimit="10" d="M970 671H984.558V685.572H970V671Z"/><path stroke="#757575" stroke-miterlimit="10" d="M1334.5 505C1328.7 505 1324 500.299 1324 494.5C1324 488.701 1328.7 484 1334.5 484C1340.3 484 1345 488.701 1345 494.5C1345 500.299 1340.3 505 1334.5 505Z"/><path stroke="#757575" stroke-miterlimit="10" d="M1242 610C1239.79 610 1238 608.209 1238 606C1238 603.791 1239.79 602 1242 602C1244.21 602 1246 603.791 1246 606C1246 608.209 1244.21 610 1242 610Z"/><path stroke="#757575" stroke-miterlimit="10" d="M1442 505C1423.22 505 1408 489.778 1408 471C1408 452.222 1423.22 437 1442 437C1460.78 437 1476 452.222 1476 471C1476 489.778 1460.78 505 1442 505Z"/><path stroke="#757575" d="M1271.5 341.5H1257.5V355.5H1271.5V341.5Z"/><path stroke="#757575" stroke-miterlimit="10" d="M1366 592H1385V611H1366V592Z"/><path stroke="#757575" stroke-miterlimit="10" d="M1327 175.362H1362V210.362H1327V175.362Z"/><path stroke="#757575" stroke-miterlimit="10" d="M1119.5 154C1110.39 154 1103 146.613 1103 137.5C1103 128.387 1110.39 121 1119.5 121C1128.61 121 1136 128.387 1136 137.5C1136 146.613 1128.61 154 1119.5 154Z"/></g><defs><clipPath id="clip0"><rect width="1440" height="767" fill="#fff"/></clipPath></defs></svg>