<svg width="1440" height="506" viewBox="0 0 1440 506" fill="none" xmlns="http://www.w3.org/2000/svg">
<g clip-path="url(#clip0)">
<path d="M75 453H56V472H75V453Z" stroke="#757575" stroke-miterlimit="10"/>
<path d="M77 116H42V151H77V116Z" stroke="#757575" stroke-miterlimit="10"/>
<path d="M274.5 172C280.299 172 285 167.299 285 161.5C285 155.701 280.299 151 274.5 151C268.701 151 264 155.701 264 161.5C264 167.299 268.701 172 274.5 172Z" stroke="#757575" stroke-miterlimit="10"/>
<path d="M319 494C321.209 494 323 492.209 323 490C323 487.791 321.209 486 319 486C316.791 486 315 487.791 315 490C315 492.209 316.791 494 319 494Z" stroke="#757575" stroke-miterlimit="10"/>
<path d="M-1 366C17.7777 366 33 350.778 33 332C33 313.222 17.7777 298 -1 298C-19.7777 298 -35 313.222 -35 332C-35 350.778 -19.7777 366 -1 366Z" stroke="#757575" stroke-miterlimit="10"/>
<path d="M142.5 224.5V210.5H156.5V224.5H142.5Z" stroke="#757575"/>
<path d="M400.5 90.5V98.5H408.5V90.5H400.5Z" stroke="#757575"/>
<path d="M230.5 400C239.613 400 247 392.613 247 383.5C247 374.387 239.613 367 230.5 367C221.387 367 214 374.387 214 383.5C214 392.613 221.387 400 230.5 400Z" stroke="#757575" stroke-miterlimit="10"/>
<path d="M1364.56 217H1350V231.572H1364.56V217Z" stroke="#757575" stroke-miterlimit="10"/>
<path d="M1409.97 438.945C1413.26 438.945 1415.93 436.271 1415.93 432.973C1415.93 429.674 1413.26 427 1409.97 427C1406.67 427 1404 429.674 1404 432.973C1404 436.271 1406.67 438.945 1409.97 438.945Z" stroke="#757575" stroke-miterlimit="10"/>
<path d="M1196 228C1198.21 228 1200 226.209 1200 224C1200 221.791 1198.21 220 1196 220C1193.79 220 1192 221.791 1192 224C1192 226.209 1193.79 228 1196 228Z" stroke="#757575" stroke-miterlimit="10"/>
<path d="M1393.5 151C1406.48 151 1417 140.479 1417 127.5C1417 114.521 1406.48 104 1393.5 104C1380.52 104 1370 114.521 1370 127.5C1370 140.479 1380.52 151 1393.5 151Z" stroke="#757575" stroke-miterlimit="10"/>
<path d="M1240 104C1245.52 104 1250 99.5228 1250 94C1250 88.4771 1245.52 84 1240 84C1234.48 84 1230 88.4771 1230 94C1230 99.5228 1234.48 104 1240 104Z" stroke="#757575" stroke-miterlimit="10"/>
<path d="M1049.5 119.5V95.5H1073.5V119.5H1049.5Z" stroke="#757575"/>
<path d="M1410.5 332.5V266.5H1476.5V332.5H1410.5Z" stroke="#757575"/>
<path d="M1264.56 377H1250V391.572H1264.56V377Z" stroke="#757575" stroke-miterlimit="10"/>
</g>
<defs>
<clipPath id="clip0">
<rect width="1440" height="506" fill="white"/>
</clipPath>
</defs>
</svg>
