<svg xmlns="http://www.w3.org/2000/svg" width="1440" height="437" fill="none" viewBox="0 0 1440 437"><g clip-path="url(#clip0)"><path fill="#F8BBD0" d="M383.573 241.146C421.444 241.146 452.146 210.444 452.146 172.573C452.146 134.701 421.444 104 383.573 104C345.701 104 315 134.701 315 172.573C315 210.444 345.701 241.146 383.573 241.146Z"/><path fill="#EBEBEB" d="M307.638 442.615L227.09 363.249L207.115 343.566L147.495 284.822L73.589 363.718L0 442.285"/><path fill="#EBEBEB" d="M704.31 443.094H159.71L227.09 370.053L351.58 224.034L359.97 214.194L472.58 82.1035L550.5 205.514L552.54 208.744L651.67 365.724L704.31 443.094Z"/><path fill="#EBEBEB" d="M974 442.615L839.483 283.895L773.539 206.09L709.804 286.003L651.67 358.918L585.18 442.285"/><path fill="#000" d="M207.115 343.566L171.622 367.363L129.717 350.855L73.5891 363.718L147.495 284.822L207.115 343.566Z" opacity=".1"/><path fill="#000" d="M550.5 205.514L538.61 226.404L511.95 198.474L482.74 226.404L466.23 194.664L439.56 226.404L431.94 206.094L414.17 226.404L382.42 206.094L359.97 214.194L472.58 82.1035L550.5 205.514Z" opacity=".1"/><path fill="#000" d="M839.483 283.895L806.555 324.187L779.888 292.441L739.253 325.457L709.804 286.003L773.539 206.09L839.483 283.895Z" opacity=".1"/><path fill="#2F2E41" d="M173.111 442.153L174.889 441.235C151.807 396.611 164.149 338.66 178.567 297.903C188.358 270.509 200.845 244.154 215.845 219.229L214.155 218.16C199.077 243.213 186.524 269.701 176.683 297.235C162.132 338.365 149.702 396.895 173.111 442.153Z"/><path fill="#2F2E41" d="M155.996 218.512L154.03 218.871L167.004 289.876L168.97 289.516L155.996 218.512Z"/><path fill="#2F2E41" d="M242.268 279.012L175.268 351.013L176.733 352.376L243.732 280.375L242.268 279.012Z"/><path fill="#2F2E41" d="M121.818 358.103L120.197 359.274L154.181 406.286L155.803 405.114L121.818 358.103Z"/><path fill="#283593" d="M150 199.694C155.523 199.694 160 195.217 160 189.694C160 184.171 155.523 179.694 150 179.694C144.477 179.694 140 184.171 140 189.694C140 195.217 144.477 199.694 150 199.694Z"/><path fill="#283593" d="M259 276.694C264.523 276.694 269 272.217 269 266.694C269 261.171 264.523 256.694 259 256.694C253.477 256.694 249 261.171 249 266.694C249 272.217 253.477 276.694 259 276.694Z"/><path fill="#F8BBD0" d="M215 286.694C220.523 286.694 225 282.217 225 276.694C225 271.171 220.523 266.694 215 266.694C209.477 266.694 205 271.171 205 276.694C205 282.217 209.477 286.694 215 286.694Z"/><path fill="#283593" d="M235 325.694C240.523 325.694 245 321.217 245 315.694C245 310.171 240.523 305.694 235 305.694C229.477 305.694 225 310.171 225 315.694C225 321.217 229.477 325.694 235 325.694Z"/><path fill="#283593" d="M110 350.694C115.523 350.694 120 346.217 120 340.694C120 335.171 115.523 330.694 110 330.694C104.477 330.694 100 335.171 100 340.694C100 346.217 104.477 350.694 110 350.694Z"/><path fill="#283593" d="M143 361.694C148.523 361.694 153 357.217 153 351.694C153 346.171 148.523 341.694 143 341.694C137.477 341.694 133 346.171 133 351.694C133 357.217 137.477 361.694 143 361.694Z"/><path fill="#F8BBD0" d="M120 393.694C125.523 393.694 130 389.217 130 383.694C130 378.171 125.523 373.694 120 373.694C114.477 373.694 110 378.171 110 383.694C110 389.217 114.477 393.694 120 393.694Z"/><path fill="#283593" d="M225 211.694C230.523 211.694 235 207.217 235 201.694C235 196.171 230.523 191.694 225 191.694C219.477 191.694 215 196.171 215 201.694C215 207.217 219.477 211.694 225 211.694Z"/><path fill="#2F2E41" d="M445.943 422.024C483.507 422.024 489.557 408.03 489.808 407.404L487.015 406.268C486.953 406.409 480.522 420.346 440.227 418.905C401.114 417.506 340.595 418.712 332.508 418.884C330.241 415.047 320.075 399.477 305.723 402.352L306.315 405.308C320.105 402.54 330.216 420.939 330.318 421.126L330.755 421.937L331.678 421.918C332.342 421.903 398.441 420.431 440.118 421.917C442.139 421.989 444.081 422.025 445.943 422.024Z"/><path fill="#2F2E41" d="M445.759 436.992H446.645C449.731 436.992 452.232 434.491 452.232 431.406V430.52C452.232 427.434 449.731 424.933 446.645 424.933H445.759C442.674 424.933 440.173 427.434 440.173 430.52V431.406C440.173 434.491 442.674 436.992 445.759 436.992Z"/><path fill="#2F2E41" d="M341.753 436.992H342.639C345.724 436.992 348.225 434.491 348.225 431.406V430.52C348.225 427.434 345.724 424.933 342.639 424.933H341.753C338.667 424.933 336.166 427.434 336.166 430.52V431.406C336.166 434.491 338.667 436.992 341.753 436.992Z"/><path fill="#EBEBEB" d="M221.452 123.373C216.08 117.979 209.438 114.022 202.138 111.864C194.837 109.706 187.112 109.417 179.67 111.023C172.229 112.629 165.31 116.079 159.55 121.056C153.789 126.033 149.371 132.377 146.702 139.507L230.16 135.64C227.961 131.095 225.017 126.949 221.452 123.373Z"/><path fill="#EBEBEB" d="M401.452 65.3732C396.08 59.9795 389.438 56.0219 382.138 53.8639C374.837 51.7059 367.112 51.4167 359.67 53.0228C352.229 54.6289 345.31 58.0788 339.55 63.0557C333.789 68.0327 329.371 74.3772 326.702 81.5066L410.16 77.6397C407.961 73.0946 405.017 68.9488 401.452 65.3732Z"/><path fill="#EBEBEB" d="M939.751 156.373C934.378 150.979 927.737 147.022 920.436 144.864C913.136 142.706 905.41 142.417 897.969 144.023C890.527 145.629 883.609 149.079 877.848 154.056C872.087 159.033 867.669 165.377 865 172.507L948.459 168.64C946.259 164.095 943.316 159.949 939.751 156.373Z"/><path fill="#EBEBEB" d="M705.751 213.373C700.378 207.979 693.737 204.022 686.436 201.864C679.136 199.706 671.41 199.417 663.969 201.023C656.527 202.629 649.608 206.079 643.848 211.056C638.087 216.033 633.669 222.377 631 229.507L714.459 225.64C712.259 221.095 709.316 216.949 705.751 213.373Z"/><path fill="#DADADA" d="M705.123 400.507C705.124 402.524 704.362 404.467 702.99 405.947C701.618 407.426 699.738 408.331 697.726 408.482H697.72C697.523 408.501 697.326 408.507 697.123 408.507C696.072 408.507 695.032 408.3 694.062 407.898C693.091 407.496 692.209 406.907 691.466 406.164C690.723 405.421 690.134 404.539 689.732 403.568C689.33 402.598 689.123 401.557 689.123 400.507C689.122 400.466 689.124 400.425 689.129 400.384C689.157 398.437 689.895 396.568 691.203 395.126C692.512 393.685 694.302 392.771 696.237 392.556C696.531 392.524 696.827 392.508 697.123 392.507C699.005 392.505 700.827 393.168 702.268 394.378C703.708 395.589 704.676 397.269 705 399.122V399.128C705.081 399.583 705.123 400.045 705.123 400.507Z"/><path fill="#283593" d="M705.123 400.507C705.124 402.525 704.362 404.468 702.99 405.947C701.618 407.426 699.738 408.332 697.726 408.483H697.72C696.919 407.403 696.493 406.09 696.508 404.746C696.523 403.401 696.979 402.098 697.804 401.037C698.63 399.975 699.78 399.214 701.08 398.868C702.379 398.522 703.756 398.612 705 399.123V399.129C705.081 399.584 705.123 400.045 705.123 400.507Z"/><path fill="#283593" d="M696.508 394.353C696.508 395.265 696.305 396.165 695.914 396.989C695.523 397.813 694.954 398.54 694.248 399.117C693.542 399.695 692.717 400.108 691.831 400.326C690.946 400.545 690.023 400.565 689.129 400.383C689.157 398.437 689.895 396.567 691.203 395.126C692.512 393.685 694.302 392.771 696.237 392.556C696.418 393.137 696.51 393.743 696.508 394.353Z"/><path fill="#000" d="M775 389C775 393.971 767.573 393.285 766 398C760.497 414.494 756.949 395.549 757 389C757 386.613 757.948 384.324 759.636 382.636C761.324 380.948 763.613 380 766 380C768.387 380 770.676 380.948 772.364 382.636C774.052 384.324 775 386.613 775 389H775Z"/><path fill="#3F3D56" d="M763.457 413.179C763.457 413.179 763.35 424.512 761.874 425.25C760.397 425.988 752.017 427.571 753.493 430.154C754.269 431.431 755.498 432.368 756.934 432.778C758.371 433.189 759.909 433.042 761.243 432.368C763.826 430.892 770.099 422.036 770.099 422.036L763.457 413.179Z"/><path fill="#3F3D56" d="M794.825 423.142C794.825 423.142 794.825 423.251 794.836 423.444C794.927 424.74 795.326 425.997 795.999 427.109C796.672 428.221 797.6 429.157 798.707 429.839C799.813 430.522 801.066 430.932 802.361 431.034C803.657 431.137 804.959 430.93 806.159 430.431C807.236 430.008 808.169 429.944 808.003 431.106C807.634 433.689 807.741 437.165 809.586 437.165C811.431 437.165 814.014 432.737 812.538 427.94C811.365 424.545 809.752 421.32 807.741 418.345L794.825 423.142Z"/><path fill="#000" d="M763.457 413.179C763.457 413.179 763.35 424.512 761.874 425.25C760.397 425.988 752.017 427.571 753.493 430.154C754.269 431.431 755.498 432.368 756.934 432.778C758.371 433.189 759.909 433.042 761.243 432.368C763.826 430.892 770.099 422.036 770.099 422.036L763.457 413.179Z" opacity=".1"/><path fill="#000" d="M794.825 423.142C794.825 423.142 794.825 423.251 794.836 423.444C794.927 424.74 795.326 425.997 795.999 427.109C796.672 428.221 797.6 429.157 798.707 429.839C799.813 430.522 801.066 430.932 802.361 431.034C803.657 431.137 804.959 430.93 806.159 430.431C807.236 430.008 808.169 429.944 808.003 431.106C807.634 433.689 807.741 437.165 809.586 437.165C811.431 437.165 814.014 432.737 812.538 427.94C811.365 424.545 809.752 421.32 807.741 418.345L794.825 423.142Z" opacity=".1"/><path fill="#3F3D56" d="M755.395 390.701C756.179 388.975 757.346 387.451 758.807 386.244C760.2 385.08 761.856 384.274 763.631 383.896C765.406 383.518 767.247 383.579 768.992 384.075C777.48 386.289 778.587 392.563 778.587 392.563V395.095C778.571 396.309 778.92 397.501 779.589 398.514C780.258 399.528 781.216 400.318 782.339 400.781C784.217 401.515 815.155 400.481 817 398.635C818.332 397.149 819.439 395.476 820.288 393.67V393.742C820.318 397.122 819.437 400.448 817.737 403.371C816.994 404.418 816.596 405.671 816.598 406.955C816.967 409.538 818.074 416.55 815.86 419.133C813.645 421.716 814.753 423.562 817.336 423.931C819.919 424.3 824.347 423.562 823.978 427.99C823.609 432.418 824.347 434.264 822.502 434.264C820.657 434.264 819.845 433.695 818 429.635C818 429.635 816.598 428.728 811.431 430.204C808.073 431.164 803.661 432.073 802.37 429.465C799.515 423.699 781.158 424.836 776.978 430.608C775.866 432.253 774.506 433.716 772.947 434.945C772.219 435.516 771.416 435.986 770.561 436.339C768.347 437.124 765.671 437.4 763.826 435.371C760.136 431.311 770 430.635 770 430.635C770 430.635 771.576 426.883 770.838 424.3C770.838 424.3 761.981 422.455 761.612 411.014C761.612 411.014 749.803 411.014 747.957 405.11L746.112 399.205L749.662 397.075C752.159 395.577 754.151 393.367 755.382 390.729L755.395 390.701Z"/><path fill="#000" d="M746.279 401.711C747.23 401.711 748 400.719 748 399.496C748 398.274 747.23 397.282 746.279 397.282C745.329 397.282 744.559 398.274 744.559 399.496C744.559 400.719 745.329 401.711 746.279 401.711Z"/><path fill="#000" d="M783 392.635C783 398.158 774.748 397.396 773 402.635C766.886 420.962 762.943 399.911 763 392.635C763 389.983 764.054 387.439 765.929 385.564C767.804 383.688 770.348 382.635 773 382.635C775.652 382.635 778.196 383.688 780.071 385.564C781.947 387.439 783 389.983 783 392.635Z"/><path fill="#EBEBEB" d="M1272.75 95.3732C1267.38 89.9795 1260.74 86.0219 1253.44 83.8639C1246.14 81.7059 1238.41 81.4167 1230.97 83.0228C1223.53 84.6289 1216.61 88.0788 1210.85 93.0557C1205.09 98.0327 1200.67 104.377 1198 111.507L1281.46 107.64C1279.26 103.095 1276.32 98.9488 1272.75 95.3732Z"/><path fill="#EBEBEB" d="M1414.75 141.373C1409.38 135.979 1402.74 132.022 1395.44 129.864C1388.14 127.706 1380.41 127.417 1372.97 129.023C1365.53 130.629 1358.61 134.079 1352.85 139.056C1347.09 144.033 1342.67 150.377 1340 157.507L1423.46 153.64C1421.26 149.095 1418.32 144.949 1414.75 141.373Z"/><path fill="#EBEBEB" d="M1612 443H1067L1134.43 389.787L1259.01 283.403L1267.41 276.234L1380.1 180L1458.08 269.911L1460.12 272.264L1559.32 386.632L1612 443Z"/><path fill="#000" d="M1458 269.799L1446.08 285L1419.35 264.677L1390.07 285L1373.52 261.904L1346.79 285L1339.15 270.221L1321.33 285L1289.51 270.221L1267 276.115L1379.89 180L1458 269.799Z" opacity=".1"/><path fill="#EBEBEB" d="M1190.64 443.793L1110.09 364.427L1090.12 344.744L1030.49 286L956.589 364.896L883 443.463"/><path fill="#000" d="M1090.12 344.744L1054.62 368.541L1012.72 352.033L956.589 364.896L1030.5 286L1090.12 344.744Z" opacity=".1"/><path fill="#2F2E41" d="M1301.11 442.459L1302.89 441.541C1279.81 396.917 1292.15 338.966 1306.57 298.209C1316.36 270.814 1328.84 244.46 1343.85 219.534L1342.15 218.466C1327.08 243.518 1314.52 270.007 1304.68 297.541C1290.13 338.671 1277.7 397.2 1301.11 442.459Z"/><path fill="#2F2E41" d="M1283.99 218.822L1296.97 289.826L1295 290.186L1282.03 219.181L1283.99 218.822Z"/><path fill="#2F2E41" d="M1370.27 279.318L1371.73 280.681L1304.73 352.681L1303.27 351.318L1370.27 279.318Z"/><path fill="#2F2E41" d="M1249.82 358.408L1283.8 405.42L1282.18 406.592L1248.2 359.58L1249.82 358.408Z"/><path fill="#283593" d="M1278 200C1272.48 200 1268 195.523 1268 190C1268 184.477 1272.48 180 1278 180C1283.52 180 1288 184.477 1288 190C1288 195.523 1283.52 200 1278 200Z"/><path fill="#283593" d="M1387 277C1381.48 277 1377 272.523 1377 267C1377 261.477 1381.48 257 1387 257C1392.52 257 1397 261.477 1397 267C1397 272.523 1392.52 277 1387 277Z"/><path fill="#283593" d="M1343 287C1337.48 287 1333 282.523 1333 277C1333 271.477 1337.48 267 1343 267C1348.52 267 1353 271.477 1353 277C1353 282.523 1348.52 287 1343 287Z"/><path fill="#F8BBD0" d="M1363 326C1357.48 326 1353 321.523 1353 316C1353 310.477 1357.48 306 1363 306C1368.52 306 1373 310.477 1373 316C1373 321.523 1368.52 326 1363 326Z"/><path fill="#F8BBD0" d="M1238 351C1232.48 351 1228 346.523 1228 341C1228 335.477 1232.48 331 1238 331C1243.52 331 1248 335.477 1248 341C1248 346.523 1243.52 351 1238 351Z"/><path fill="#283593" d="M1271 362C1265.48 362 1261 357.523 1261 352C1261 346.477 1265.48 342 1271 342C1276.52 342 1281 346.477 1281 352C1281 357.523 1276.52 362 1271 362Z"/><path fill="#283593" d="M1248 394C1242.48 394 1238 389.523 1238 384C1238 378.477 1242.48 374 1248 374C1253.52 374 1258 378.477 1258 384C1258 389.523 1253.52 394 1248 394Z"/><path fill="#F8BBD0" d="M1353 212C1347.48 212 1343 207.523 1343 202C1343 196.477 1347.48 192 1353 192C1358.52 192 1363 196.477 1363 202C1363 207.523 1358.52 212 1353 212Z"/><path fill="#283593" d="M394.5 403C419.629 403 440 382.629 440 357.5C440 332.371 419.629 312 394.5 312C369.371 312 349 332.371 349 357.5C349 382.629 369.371 403 394.5 403Z"/><path fill="#283593" d="M388 391H374V416H388V391Z"/><path fill="#283593" d="M415 391H402V416H415V391Z"/><path fill="#283593" d="M385.5 420C391.851 420 397 418.209 397 416C397 413.791 391.851 412 385.5 412C379.149 412 374 413.791 374 416C374 418.209 379.149 420 385.5 420Z"/><path fill="#283593" d="M413.5 420C419.851 420 425 417.985 425 415.5C425 413.015 419.851 411 413.5 411C407.149 411 402 413.015 402 415.5C402 417.985 407.149 420 413.5 420Z"/><path fill="#fff" d="M395.5 361C404.06 361 411 354.06 411 345.5C411 336.94 404.06 330 395.5 330C386.94 330 380 336.94 380 345.5C380 354.06 386.94 361 395.5 361Z"/><path fill="#000" d="M396 351C398.761 351 401 348.761 401 346C401 343.239 398.761 341 396 341C393.239 341 391 343.239 391 346C391 348.761 393.239 351 396 351Z"/><path fill="#F8BBD0" d="M350.672 314.812C347.003 298.454 358.73 281.925 376.864 277.893C394.998 273.862 412.672 283.854 416.34 300.212C420.009 316.57 407.991 322.603 389.857 326.635C371.723 330.666 354.34 331.17 350.672 314.812Z"/><path fill="#283593" d="M437.194 348.184C448.685 343.254 456.748 336.326 455.204 332.709C453.661 329.093 443.094 330.159 431.603 335.089C420.112 340.019 412.048 346.947 413.592 350.563C415.136 354.179 425.703 353.114 437.194 348.184Z"/><path fill="#283593" d="M352.397 378.624C363.888 373.694 371.952 366.766 370.408 363.15C368.864 359.534 358.297 360.599 346.806 365.529C335.315 370.459 327.252 377.388 328.796 381.004C330.34 384.62 340.906 383.555 352.397 378.624Z"/><path fill="#fff" d="M421 370.265C421 374.883 409.523 384 396.788 384C384.053 384 372 375.48 372 370.863C372 366.245 384.053 367.28 396.788 367.28C409.523 367.28 421 365.648 421 370.265Z"/><path fill="#283593" d="M1101 413C1133.58 413 1160 386.361 1160 353.5C1160 320.639 1133.58 294 1101 294C1068.42 294 1042 320.639 1042 353.5C1042 386.361 1068.42 413 1101 413Z"/><path fill="#283593" d="M1127.94 399.7L1109.95 399.783L1110.1 431.956L1128.09 431.873L1127.94 399.7Z"/><path fill="#283593" d="M1091.96 399.868L1073.97 399.951L1074.12 432.124L1092.11 432.041L1091.96 399.868Z"/><path fill="#283593" d="M1077 437.229C1085.28 437.229 1091.98 434.715 1091.98 431.614C1091.97 428.514 1085.26 426 1076.98 426C1068.71 426 1062 428.514 1062.01 431.614C1062.01 434.715 1068.73 437.229 1077 437.229Z"/><path fill="#283593" d="M1113 437.229C1121.28 437.229 1127.98 434.715 1127.98 431.614C1127.97 428.514 1121.26 426 1112.98 426C1104.71 426 1098 428.514 1098.01 431.614C1098.01 434.715 1104.73 437.229 1113 437.229Z"/><path fill="#fff" d="M1099 359C1110.05 359 1119 349.822 1119 338.5C1119 327.178 1110.05 318 1099 318C1087.95 318 1079 327.178 1079 338.5C1079 349.822 1087.95 359 1099 359Z"/><path fill="#3F3D56" d="M1092 337C1095.87 337 1099 333.866 1099 330C1099 326.134 1095.87 323 1092 323C1088.13 323 1085 326.134 1085 330C1085 333.866 1088.13 337 1092 337Z"/><path fill="#F8BBD0" d="M1158.15 298.296C1162.87 276.858 1147.37 255.289 1123.53 250.121C1099.7 244.953 1076.55 258.142 1071.83 279.58C1067.12 301.018 1082.93 308.843 1106.77 314.012C1130.61 319.18 1153.44 319.734 1158.15 298.296Z"/><path fill="#283593" d="M1066.17 335.013C1068.16 330.293 1057.57 321.317 1042.51 314.964C1027.45 308.612 1013.62 307.288 1011.62 312.008C1009.62 316.728 1020.21 325.705 1035.27 332.057C1050.34 338.41 1064.17 339.734 1066.17 335.013Z"/><path fill="#283593" d="M1187.16 384.003C1189.16 379.283 1178.56 370.306 1163.5 363.954C1148.44 357.601 1134.61 356.277 1132.61 360.997C1130.61 365.718 1141.2 374.694 1156.27 381.047C1171.33 387.399 1185.16 388.723 1187.16 384.003Z"/><path fill="#fff" d="M1113 379.126C1113.01 380.937 1112.67 382.733 1112 384.411C1111.34 386.088 1110.35 387.615 1109.1 388.903C1107.86 390.192 1106.37 391.217 1104.74 391.92C1103.1 392.623 1101.35 392.99 1099.58 393C1097.8 393.01 1096.04 392.663 1094.4 391.979C1092.76 391.295 1091.26 390.287 1090 389.013C1088.74 387.739 1087.74 386.224 1087.05 384.554C1086.37 382.884 1086.01 381.093 1086 379.281L1086 379.254C1085.97 371.641 1092 370.036 1099.46 370.001C1106.91 369.965 1112.97 371.513 1113 379.126Z"/></g><defs><clipPath id="clip0"><rect width="1440" height="437" fill="#fff"/></clipPath></defs></svg>