<svg width="1440" height="437" viewBox="0 0 1440 437" fill="none" xmlns="http://www.w3.org/2000/svg">
<g clip-path="url(#clip0)">
<path d="M383.573 241.146C421.444 241.146 452.146 210.444 452.146 172.573C452.146 134.701 421.444 104 383.573 104C345.701 104 315 134.701 315 172.573C315 210.444 345.701 241.146 383.573 241.146Z" fill="#F8BBD0"/>
<path d="M307.638 442.615L227.09 363.249L207.115 343.566L147.495 284.822L73.589 363.718L0 442.285" fill="#EBEBEB"/>
<path d="M704.31 443.094H159.71L227.09 370.053L351.58 224.034L359.97 214.194L472.58 82.1035L550.5 205.514L552.54 208.744L651.67 365.724L704.31 443.094Z" fill="#EBEBEB"/>
<path d="M974 442.615L839.483 283.895L773.539 206.09L709.804 286.003L651.67 358.918L585.18 442.285" fill="#EBEBEB"/>
<path opacity="0.1" d="M207.115 343.566L171.622 367.363L129.717 350.855L73.5889 363.718L147.495 284.822L207.115 343.566Z" fill="black"/>
<path opacity="0.1" d="M550.5 205.514L538.61 226.404L511.95 198.474L482.74 226.404L466.23 194.664L439.56 226.404L431.94 206.094L414.17 226.404L382.42 206.094L359.97 214.194L472.58 82.1035L550.5 205.514Z" fill="black"/>
<path opacity="0.1" d="M839.483 283.895L806.555 324.187L779.888 292.441L739.253 325.457L709.804 286.003L773.539 206.09L839.483 283.895Z" fill="black"/>
<path d="M173.111 442.153L174.889 441.235C151.807 396.611 164.149 338.66 178.567 297.903C188.358 270.509 200.845 244.154 215.845 219.229L214.155 218.16C199.077 243.213 186.524 269.701 176.683 297.235C162.132 338.365 149.702 396.895 173.111 442.153Z" fill="#2F2E41"/>
<path d="M155.996 218.512L154.029 218.871L167.003 289.876L168.97 289.516L155.996 218.512Z" fill="#2F2E41"/>
<path d="M242.267 279.012L175.268 351.013L176.732 352.376L243.732 280.375L242.267 279.012Z" fill="#2F2E41"/>
<path d="M121.818 358.103L120.197 359.274L154.181 406.286L155.803 405.114L121.818 358.103Z" fill="#2F2E41"/>
<path d="M150 199.694C155.523 199.694 160 195.217 160 189.694C160 184.171 155.523 179.694 150 179.694C144.477 179.694 140 184.171 140 189.694C140 195.217 144.477 199.694 150 199.694Z" fill="#283593"/>
<path d="M259 276.694C264.523 276.694 269 272.217 269 266.694C269 261.171 264.523 256.694 259 256.694C253.477 256.694 249 261.171 249 266.694C249 272.217 253.477 276.694 259 276.694Z" fill="#283593"/>
<path d="M215 286.694C220.523 286.694 225 282.217 225 276.694C225 271.171 220.523 266.694 215 266.694C209.477 266.694 205 271.171 205 276.694C205 282.217 209.477 286.694 215 286.694Z" fill="#F8BBD0"/>
<path d="M235 325.694C240.523 325.694 245 321.217 245 315.694C245 310.171 240.523 305.694 235 305.694C229.477 305.694 225 310.171 225 315.694C225 321.217 229.477 325.694 235 325.694Z" fill="#283593"/>
<path d="M110 350.694C115.523 350.694 120 346.217 120 340.694C120 335.171 115.523 330.694 110 330.694C104.477 330.694 100 335.171 100 340.694C100 346.217 104.477 350.694 110 350.694Z" fill="#283593"/>
<path d="M143 361.694C148.523 361.694 153 357.217 153 351.694C153 346.171 148.523 341.694 143 341.694C137.477 341.694 133 346.171 133 351.694C133 357.217 137.477 361.694 143 361.694Z" fill="#283593"/>
<path d="M120 393.694C125.523 393.694 130 389.217 130 383.694C130 378.171 125.523 373.694 120 373.694C114.477 373.694 110 378.171 110 383.694C110 389.217 114.477 393.694 120 393.694Z" fill="#F8BBD0"/>
<path d="M225 211.694C230.523 211.694 235 207.217 235 201.694C235 196.171 230.523 191.694 225 191.694C219.477 191.694 215 196.171 215 201.694C215 207.217 219.477 211.694 225 211.694Z" fill="#283593"/>
<path d="M387.894 327.867C387.894 327.867 371.774 336.548 371.154 343.988C370.534 351.428 361.233 370.029 361.233 370.029C361.233 370.029 324.652 359.488 324.032 358.868C323.412 358.248 320.932 370.029 320.932 370.029L333.952 371.889L358.133 380.569C358.133 380.569 363.713 388.63 373.014 377.469C382.314 366.309 405.875 342.128 405.875 342.128L387.894 327.867Z" fill="black"/>
<path d="M384.794 358.248C384.794 358.248 405.255 378.089 404.635 382.429C404.015 386.77 394.714 422.111 394.714 422.111L402.155 425.831L407.115 422.731L417.035 379.949C417.035 379.949 420.77 374.71 413.632 368.649C406.495 362.589 401.535 341.508 401.535 341.508L384.794 358.248Z" fill="black"/>
<path d="M442.766 318.877C448.587 318.877 453.306 314.158 453.306 308.336C453.306 302.515 448.587 297.796 442.766 297.796C436.945 297.796 432.226 302.515 432.226 308.336C432.226 314.158 436.945 318.877 442.766 318.877Z" fill="#A0616A"/>
<path d="M435.636 306.786C435.636 306.786 425.096 301.826 423.856 303.066C422.616 304.306 426.336 319.187 426.336 319.187C426.336 319.187 436.256 313.607 437.496 313.607C438.736 313.607 435.636 306.786 435.636 306.786Z" fill="#A0616A"/>
<path d="M429.436 313.607C429.436 313.607 426.336 301.206 425.096 301.206C423.856 301.206 412.075 303.066 404.635 311.747C397.195 320.427 389.134 325.387 386.654 327.247C384.174 329.107 382.314 330.967 386.654 332.827C390.994 334.687 395.955 339.648 397.815 342.748C399.675 345.848 412.075 342.128 412.075 342.128C412.075 342.128 417.656 331.587 419.516 331.587C421.376 331.587 431.296 317.327 429.436 313.607Z" fill="#F8BBD0"/>
<path d="M410.835 327.247C410.835 327.247 402.154 339.028 402.154 347.708C402.154 356.388 407.115 370.649 407.115 370.649C407.115 370.649 411.455 391.73 415.175 384.289C418.895 376.849 412.695 366.929 412.695 366.929L410.215 344.608L415.175 332.827L410.835 327.247Z" fill="#A0616A"/>
<path d="M325.984 359.584C325.984 359.584 319.071 354.529 318.451 356.389C317.831 358.249 308.531 379.33 311.631 380.57C314.731 381.81 324.031 369.409 324.651 369.409C325.271 369.409 324.217 359.059 325.984 359.584Z" fill="#283593"/>
<path d="M405.874 419.011C405.874 419.011 415.175 423.971 417.035 423.971C418.895 423.971 422.615 426.451 418.275 427.691C413.935 428.931 394.714 430.791 394.094 428.931C393.474 427.071 394.094 422.111 394.094 422.111C394.094 422.111 405.874 420.871 405.874 419.011Z" fill="#283593"/>
<path d="M454.991 308.146C455.275 307.383 455.377 306.565 455.288 305.755C455.23 303.974 455.107 302.026 453.896 300.718C453.276 300.049 452.404 299.596 451.966 298.795C451.737 298.233 451.55 297.655 451.407 297.066C451.099 296.362 450.628 295.741 450.032 295.256C449.436 294.772 448.732 294.436 447.98 294.278C446.475 293.976 444.931 293.92 443.408 294.111C441.222 294.154 439.057 294.535 436.988 295.241C435.956 295.602 435.02 296.195 434.252 296.975C433.484 297.754 432.904 298.698 432.558 299.736C432.375 300.546 432.288 301.374 432.299 302.204L432.208 305.656C432.554 305.961 432.985 306.151 433.443 306.2C433.902 306.249 434.364 306.155 434.766 305.931C435.607 305.558 436.319 304.931 437.173 304.588C437.584 304.38 438.051 304.312 438.505 304.394C438.958 304.476 439.372 304.704 439.684 305.043C439.852 305.349 439.998 305.666 440.121 305.993C441.823 309.381 446.395 305.775 448.771 305.827C450.896 305.873 453.434 311.486 454.991 308.146Z" fill="black"/>
<path d="M421.269 430.835C436.72 430.835 439.209 425.079 439.312 424.821L438.163 424.354C438.138 424.412 435.492 430.145 418.918 429.552C402.829 428.977 377.935 429.473 374.609 429.544C373.676 427.965 369.495 421.561 363.591 422.743L363.835 423.959C369.507 422.821 373.666 430.389 373.708 430.466L373.888 430.799L374.267 430.792C374.54 430.786 401.73 430.18 418.873 430.791C419.704 430.821 420.503 430.835 421.269 430.835Z" fill="#2F2E41"/>
<path d="M421.193 436.992H421.558C422.827 436.992 423.855 435.963 423.855 434.694V434.33C423.855 433.061 422.827 432.032 421.558 432.032H421.193C419.924 432.032 418.895 433.061 418.895 434.33V434.694C418.895 435.963 419.924 436.992 421.193 436.992Z" fill="#2F2E41"/>
<path d="M378.411 436.992H378.776C380.045 436.992 381.074 435.963 381.074 434.694V434.33C381.074 433.061 380.045 432.032 378.776 432.032H378.411C377.142 432.032 376.114 433.061 376.114 434.33V434.694C376.114 435.963 377.142 436.992 378.411 436.992Z" fill="#2F2E41"/>
<path d="M427.576 312.367C427.576 312.367 424.628 327.293 421.452 330.06C418.275 332.828 417.528 335.509 415.422 336.339C413.315 337.168 405.875 328.488 405.875 327.868C405.875 327.248 427.576 312.367 427.576 312.367Z" fill="#F8BBD0"/>
<path d="M221.452 123.373C216.08 117.979 209.438 114.022 202.138 111.864C194.837 109.706 187.112 109.417 179.67 111.023C172.229 112.629 165.31 116.079 159.55 121.056C153.789 126.033 149.371 132.377 146.702 139.507L230.16 135.64C227.961 131.095 225.017 126.949 221.452 123.373Z" fill="#EBEBEB"/>
<path d="M401.452 65.3732C396.08 59.9795 389.438 56.0219 382.138 53.8639C374.837 51.7059 367.112 51.4167 359.67 53.0228C352.229 54.6289 345.31 58.0788 339.55 63.0557C333.789 68.0327 329.371 74.3772 326.702 81.5066L410.16 77.6397C407.961 73.0946 405.017 68.9488 401.452 65.3732Z" fill="#EBEBEB"/>
<path d="M939.751 156.373C934.378 150.979 927.737 147.022 920.436 144.864C913.136 142.706 905.41 142.417 897.969 144.023C890.527 145.629 883.609 149.079 877.848 154.056C872.087 159.033 867.669 165.377 865 172.507L948.459 168.64C946.259 164.095 943.316 159.949 939.751 156.373Z" fill="#EBEBEB"/>
<path d="M705.751 213.373C700.378 207.979 693.737 204.022 686.436 201.864C679.136 199.706 671.41 199.417 663.969 201.023C656.527 202.629 649.608 206.079 643.848 211.056C638.087 216.033 633.669 222.377 631 229.507L714.459 225.64C712.259 221.095 709.316 216.949 705.751 213.373Z" fill="#EBEBEB"/>
<path d="M705.123 400.507C705.124 402.524 704.362 404.467 702.99 405.947C701.618 407.426 699.738 408.331 697.726 408.482H697.72C697.523 408.501 697.326 408.507 697.123 408.507C696.073 408.507 695.032 408.3 694.062 407.898C693.091 407.496 692.209 406.907 691.466 406.164C690.724 405.421 690.134 404.539 689.732 403.568C689.33 402.598 689.123 401.557 689.123 400.507C689.122 400.466 689.124 400.425 689.129 400.384C689.157 398.437 689.895 396.568 691.204 395.126C692.512 393.685 694.302 392.771 696.237 392.556C696.531 392.524 696.827 392.508 697.123 392.507C699.005 392.505 700.827 393.168 702.268 394.378C703.709 395.589 704.676 397.269 705 399.122V399.128C705.082 399.583 705.123 400.045 705.123 400.507Z" fill="#DADADA"/>
<path d="M705.123 400.507C705.124 402.525 704.362 404.468 702.99 405.947C701.618 407.426 699.738 408.332 697.726 408.483H697.72C696.919 407.403 696.493 406.09 696.508 404.746C696.523 403.401 696.979 402.098 697.804 401.037C698.63 399.975 699.78 399.214 701.08 398.868C702.379 398.522 703.756 398.612 705 399.123V399.129C705.081 399.584 705.123 400.045 705.123 400.507Z" fill="#283593"/>
<path d="M696.508 394.353C696.508 395.265 696.305 396.165 695.914 396.989C695.524 397.813 694.955 398.54 694.248 399.117C693.542 399.695 692.717 400.108 691.831 400.326C690.946 400.545 690.023 400.565 689.129 400.383C689.157 398.437 689.895 396.567 691.204 395.126C692.512 393.685 694.302 392.771 696.237 392.556C696.419 393.137 696.51 393.743 696.508 394.353Z" fill="#283593"/>
<path d="M775.001 389C775.001 393.971 767.574 393.285 766.001 398C760.497 414.494 756.95 395.549 757.001 389C757.001 386.613 757.949 384.324 759.637 382.636C761.324 380.948 763.614 380 766.001 380C768.387 380 770.677 380.948 772.365 382.636C774.052 384.324 775.001 386.613 775.001 389H775.001Z" fill="black"/>
<path d="M763.457 413.179C763.457 413.179 763.35 424.512 761.874 425.25C760.397 425.988 752.017 427.571 753.493 430.154C754.269 431.431 755.498 432.368 756.934 432.778C758.371 433.189 759.909 433.042 761.243 432.368C763.826 430.892 770.099 422.036 770.099 422.036L763.457 413.179Z" fill="#3F3D56"/>
<path d="M794.825 423.142C794.825 423.142 794.825 423.251 794.836 423.444C794.928 424.74 795.327 425.997 796 427.109C796.673 428.221 797.601 429.157 798.707 429.839C799.813 430.522 801.066 430.932 802.362 431.034C803.658 431.137 804.959 430.93 806.159 430.431C807.236 430.008 808.169 429.944 808.003 431.106C807.634 433.689 807.741 437.165 809.586 437.165C811.432 437.165 814.015 432.737 812.539 427.94C811.366 424.545 809.753 421.32 807.741 418.345L794.825 423.142Z" fill="#3F3D56"/>
<path opacity="0.1" d="M763.457 413.179C763.457 413.179 763.35 424.512 761.874 425.25C760.397 425.988 752.017 427.571 753.493 430.154C754.269 431.431 755.498 432.368 756.934 432.778C758.371 433.189 759.909 433.042 761.243 432.368C763.826 430.892 770.099 422.036 770.099 422.036L763.457 413.179Z" fill="black"/>
<path opacity="0.1" d="M794.825 423.142C794.825 423.142 794.825 423.251 794.836 423.444C794.928 424.74 795.327 425.997 796 427.109C796.673 428.221 797.601 429.157 798.707 429.839C799.813 430.522 801.066 430.932 802.362 431.034C803.658 431.137 804.959 430.93 806.159 430.431C807.236 430.008 808.169 429.944 808.003 431.106C807.634 433.689 807.741 437.165 809.586 437.165C811.432 437.165 814.015 432.737 812.539 427.94C811.366 424.545 809.753 421.32 807.741 418.345L794.825 423.142Z" fill="black"/>
<path d="M755.395 390.701C756.179 388.975 757.346 387.451 758.807 386.244C760.2 385.08 761.856 384.274 763.631 383.896C765.406 383.518 767.247 383.579 768.992 384.075C777.48 386.289 778.587 392.563 778.587 392.563V395.095C778.571 396.309 778.92 397.501 779.589 398.514C780.258 399.528 781.216 400.318 782.339 400.781C784.217 401.515 815.155 400.481 817 398.635C818.332 397.149 819.439 395.476 820.288 393.67V393.742C820.318 397.122 819.437 400.448 817.737 403.371C816.994 404.418 816.596 405.671 816.598 406.955C816.967 409.538 818.074 416.55 815.86 419.133C813.645 421.716 814.753 423.562 817.336 423.931C819.919 424.3 824.347 423.562 823.978 427.99C823.609 432.418 824.347 434.264 822.502 434.264C820.657 434.264 819.845 433.695 818 429.635C818 429.635 816.598 428.728 811.431 430.204C808.073 431.164 803.661 432.073 802.37 429.465C799.515 423.699 781.158 424.836 776.978 430.608C775.866 432.253 774.506 433.716 772.947 434.945C772.219 435.516 771.416 435.986 770.561 436.339C768.347 437.124 765.671 437.4 763.826 435.371C760.136 431.311 770 430.635 770 430.635C770 430.635 771.576 426.883 770.838 424.3C770.838 424.3 761.981 422.455 761.612 411.014C761.612 411.014 749.803 411.014 747.957 405.11L746.112 399.205L749.662 397.075C752.159 395.577 754.151 393.367 755.382 390.729L755.395 390.701Z" fill="#3F3D56"/>
<path d="M746.28 401.711C747.23 401.711 748 400.719 748 399.496C748 398.274 747.23 397.282 746.28 397.282C745.329 397.282 744.559 398.274 744.559 399.496C744.559 400.719 745.329 401.711 746.28 401.711Z" fill="black"/>
<path d="M783.001 392.635C783.001 398.158 774.749 397.396 773.001 402.635C766.886 420.962 762.944 399.911 763.001 392.635C763.001 389.983 764.054 387.439 765.93 385.564C767.805 383.688 770.348 382.635 773.001 382.635C775.653 382.635 778.196 383.688 780.072 385.564C781.947 387.439 783.001 389.983 783.001 392.635Z" fill="black"/>
<path d="M1272.75 95.3732C1267.38 89.9795 1260.74 86.0219 1253.44 83.8639C1246.14 81.7059 1238.41 81.4167 1230.97 83.0228C1223.53 84.6289 1216.61 88.0788 1210.85 93.0557C1205.09 98.0327 1200.67 104.377 1198 111.507L1281.46 107.64C1279.26 103.095 1276.32 98.9488 1272.75 95.3732Z" fill="#EBEBEB"/>
<path d="M1414.75 141.373C1409.38 135.979 1402.74 132.022 1395.44 129.864C1388.14 127.706 1380.41 127.417 1372.97 129.023C1365.53 130.629 1358.61 134.079 1352.85 139.056C1347.09 144.033 1342.67 150.377 1340 157.507L1423.46 153.64C1421.26 149.095 1418.32 144.949 1414.75 141.373Z" fill="#EBEBEB"/>
<path d="M1612 443H1067L1134.43 389.787L1259.01 283.403L1267.41 276.234L1380.1 180L1458.08 269.911L1460.12 272.264L1559.32 386.632L1612 443Z" fill="#EBEBEB"/>
<path opacity="0.1" d="M1458 269.799L1446.08 285L1419.35 264.677L1390.07 285L1373.52 261.904L1346.79 285L1339.15 270.221L1321.33 285L1289.51 270.221L1267 276.115L1379.89 180L1458 269.799Z" fill="black"/>
<path d="M1190.64 443.793L1110.09 364.427L1090.12 344.744L1030.49 286L956.589 364.896L883 443.463" fill="#EBEBEB"/>
<path opacity="0.1" d="M1090.11 344.744L1054.62 368.541L1012.72 352.033L956.589 364.896L1030.49 286L1090.11 344.744Z" fill="black"/>
<path d="M1140.93 273.011C1147.58 273.011 1152.96 267.623 1152.96 260.977C1152.96 254.331 1147.58 248.943 1140.93 248.943C1134.28 248.943 1128.9 254.331 1128.9 260.977C1128.9 267.623 1134.28 273.011 1140.93 273.011Z" fill="black"/>
<path d="M1134.43 270.123C1134.43 270.123 1134.67 274.455 1131.78 274.936L1135.88 284.804L1140.93 292.987H1145.26L1147.91 290.58L1147.43 287.452L1145.98 281.916L1144.3 280.231C1144.3 280.231 1144.54 273.252 1146.71 270.123C1148.87 266.994 1134.43 270.123 1134.43 270.123Z" fill="#FFB8B8"/>
<path opacity="0.1" d="M1134.43 270.123C1134.43 270.123 1134.67 274.455 1131.78 274.936L1135.88 284.804L1140.93 292.987H1145.26L1147.91 290.58L1147.43 287.452L1145.98 281.916L1144.3 280.231C1144.3 280.231 1144.54 273.252 1146.71 270.123C1148.87 266.994 1134.43 270.123 1134.43 270.123Z" fill="black"/>
<path d="M1144.3 255.201C1147.49 255.201 1150.07 252.615 1150.07 249.425C1150.07 246.235 1147.49 243.648 1144.3 243.648C1141.11 243.648 1138.52 246.235 1138.52 249.425C1138.52 252.615 1141.11 255.201 1144.3 255.201Z" fill="black"/>
<path d="M1138.76 247.018C1138.76 246.259 1138.91 245.508 1139.2 244.807C1139.49 244.106 1139.92 243.47 1140.46 242.933C1140.99 242.397 1141.63 241.971 1142.33 241.681C1143.03 241.391 1143.78 241.241 1144.54 241.241C1144.62 241.241 1144.69 241.244 1144.77 241.247C1143.98 241.01 1143.15 240.942 1142.34 241.049C1141.53 241.157 1140.75 241.436 1140.05 241.868C1139.35 242.301 1138.76 242.877 1138.3 243.558C1137.84 244.239 1137.53 245.01 1137.4 245.819C1137.26 246.628 1137.3 247.457 1137.51 248.25C1137.72 249.043 1138.1 249.783 1138.61 250.419C1139.13 251.056 1139.78 251.575 1140.51 251.942C1141.25 252.309 1142.05 252.515 1142.87 252.547C1141.68 252.188 1140.64 251.457 1139.9 250.461C1139.16 249.465 1138.76 248.258 1138.76 247.018Z" fill="black"/>
<path d="M1132.99 275.177L1130.58 274.937C1129.91 274.743 1129.2 274.73 1128.52 274.899C1127.85 275.068 1127.23 275.413 1126.73 275.899C1125.04 277.584 1126.97 296.597 1126.97 296.597L1132.99 292.506L1133.95 282.879L1132.99 275.177Z" fill="#FFB8B8"/>
<path d="M1121.19 349.786L1117.82 368.799C1117.82 368.799 1115.66 376.742 1113.01 379.148C1110.36 381.555 1106.27 401.531 1105.31 405.863C1104.35 410.195 1104.11 412.602 1102.9 414.287C1101.7 415.972 1102.9 421.989 1102.9 421.989H1105.55L1109.4 421.266C1109.4 421.266 1110.12 412.121 1110.85 410.436C1111.57 408.751 1123.36 383.481 1123.36 383.481C1123.36 383.481 1131.3 371.688 1132.75 365.189C1133.84 360.839 1135.63 356.694 1138.04 352.915L1121.19 349.786Z" fill="#FFB8B8"/>
<path d="M1145.5 348.823L1148.63 370.725C1148.63 370.725 1148.63 377.464 1149.59 380.111C1150.56 382.759 1151.28 398.402 1152.24 402.013C1153.2 405.623 1155.37 413.565 1154.65 414.528C1153.8 416.074 1153.08 417.683 1152.48 419.341L1154.89 424.636L1161.39 420.063L1160.42 380.592C1160.42 380.592 1163.07 347.139 1161.39 346.176C1159.7 345.213 1151.28 342.325 1145.5 348.823Z" fill="#FFB8B8"/>
<path d="M1126.97 325.238L1122.16 338.475C1122.16 338.475 1118.55 352.434 1120.47 353.156C1122.4 353.878 1144.3 357.007 1144.78 354.359C1145 353.326 1145.16 352.282 1145.26 351.23C1145.26 351.23 1164.03 351.952 1164.27 347.62C1164.28 341.75 1163.96 335.885 1163.31 330.051C1163.08 329.061 1162.53 328.173 1161.75 327.522C1160.97 326.871 1160 326.492 1158.98 326.441C1156.33 326.441 1133.47 320.424 1126.97 325.238Z" fill="black"/>
<path d="M1103.38 419.1C1103.61 418.752 1103.96 418.507 1104.37 418.417C1104.77 418.327 1105.2 418.399 1105.55 418.619C1106.99 419.341 1109.88 419.1 1109.88 419.1L1109.16 425.598C1109.16 425.598 1112.05 437.151 1106.75 437.151C1101.46 437.151 1098.57 433.3 1099.05 431.856C1099.53 430.412 1100.74 419.1 1100.74 419.1C1100.74 419.1 1103.05 413.418 1103.14 413.083C1103.24 412.748 1103.38 419.1 1103.38 419.1Z" fill="#2F2E41"/>
<path d="M1153.69 417.897C1153.69 417.897 1153.2 420.545 1155.37 420.304C1157.54 420.063 1161.15 417.897 1161.39 418.138C1162 419.343 1162.41 420.646 1162.59 421.989C1162.83 423.673 1163.31 427.284 1165.48 428.968C1167.64 430.653 1171.01 435.948 1167.16 436.189C1163.31 436.429 1156.33 436.189 1156.09 433.782C1155.85 431.375 1155.85 428.728 1155.85 428.728C1155.85 428.728 1153.69 428.968 1152.96 428.487C1152.24 428.006 1147.43 425.118 1148.87 421.267C1150.32 417.416 1154.39 414.935 1154.39 414.935L1153.69 417.897Z" fill="#2F2E41"/>
<path d="M1139.97 273.733C1145.15 273.733 1149.35 269.53 1149.35 264.346C1149.35 259.162 1145.15 254.96 1139.97 254.96C1134.78 254.96 1130.58 259.162 1130.58 264.346C1130.58 269.53 1134.78 273.733 1139.97 273.733Z" fill="#FFB8B8"/>
<path d="M1145.02 281.916C1145.02 281.916 1149.35 281.916 1150.32 284.323C1151.28 286.729 1149.35 291.784 1149.35 291.784L1147.16 286.419L1145.02 281.916Z" fill="#FFB8B8"/>
<path d="M1129.38 274.695H1132.26C1132.26 274.695 1139.73 285.766 1140.93 286.729C1142.13 287.692 1146.46 287.932 1146.46 287.21C1146.46 286.488 1144.3 280.231 1144.3 280.231L1146.22 281.675L1149.35 289.376C1149.35 289.376 1157.78 310.556 1157.05 312.722C1156.93 312.989 1156.87 313.279 1156.87 313.572C1156.86 313.865 1156.92 314.156 1157.03 314.426C1157.14 314.697 1157.31 314.941 1157.52 315.145C1157.73 315.349 1157.98 315.507 1158.26 315.61C1158.5 315.851 1161.15 321.386 1159.94 323.552C1158.74 325.718 1161.15 328.366 1161.15 328.366C1161.15 328.366 1162.35 333.661 1158.26 334.383C1154.17 335.105 1152 331.254 1147.19 333.179C1142.37 335.105 1135.87 335.345 1134.43 332.457C1133.4 330.273 1132.51 328.021 1131.78 325.718C1131.78 325.718 1129.14 330.291 1130.34 333.901C1131.54 337.511 1129.86 333.661 1128.65 333.661C1127.45 333.661 1125.29 333.42 1125.29 331.976C1125.29 330.532 1120.47 306.224 1120.47 306.224L1127.21 290.821C1127.21 290.821 1133.47 287.932 1132.75 284.563C1132.02 281.194 1132.99 276.38 1129.38 274.695Z" fill="#283593"/>
<path d="M1130.16 276.226C1129.57 275.688 1128.83 275.332 1128.04 275.2C1127.24 275.068 1126.43 275.165 1125.69 275.48C1124.24 276.103 1122.95 277.05 1121.92 278.249C1120.89 279.448 1120.15 280.867 1119.75 282.397C1117.58 289.377 1113.01 307.909 1113.97 312.482C1114.94 317.054 1122.88 337.512 1122.88 337.512C1123.1 339.372 1123.42 341.22 1123.84 343.047C1124.08 343.288 1127.69 334.383 1127.69 334.383L1121.43 310.556L1129.86 284.804C1129.86 284.804 1133.28 279.15 1130.16 276.226Z" fill="#FFB8B8"/>
<path d="M1140.81 262.421C1145.93 262.421 1150.07 259.728 1150.07 256.405C1150.07 253.082 1145.93 250.388 1140.81 250.388C1135.69 250.388 1131.54 253.082 1131.54 256.405C1131.54 259.728 1135.69 262.421 1140.81 262.421Z" fill="black"/>
<path d="M1301.11 442.459L1302.89 441.541C1279.81 396.917 1292.15 338.966 1306.57 298.209C1316.36 270.814 1328.84 244.46 1343.85 219.534L1342.15 218.466C1327.08 243.518 1314.52 270.007 1304.68 297.541C1290.13 338.671 1277.7 397.2 1301.11 442.459Z" fill="#2F2E41"/>
<path d="M1283.99 218.822L1296.97 289.826L1295 290.186L1282.03 219.181L1283.99 218.822Z" fill="#2F2E41"/>
<path d="M1370.27 279.318L1371.73 280.681L1304.73 352.681L1303.27 351.318L1370.27 279.318Z" fill="#2F2E41"/>
<path d="M1249.82 358.408L1283.8 405.42L1282.18 406.592L1248.2 359.58L1249.82 358.408Z" fill="#2F2E41"/>
<path d="M1278 200C1272.48 200 1268 195.523 1268 190C1268 184.477 1272.48 180 1278 180C1283.52 180 1288 184.477 1288 190C1288 195.523 1283.52 200 1278 200Z" fill="#283593"/>
<path d="M1387 277C1381.48 277 1377 272.523 1377 267C1377 261.477 1381.48 257 1387 257C1392.52 257 1397 261.477 1397 267C1397 272.523 1392.52 277 1387 277Z" fill="#283593"/>
<path d="M1343 287C1337.48 287 1333 282.523 1333 277C1333 271.477 1337.48 267 1343 267C1348.52 267 1353 271.477 1353 277C1353 282.523 1348.52 287 1343 287Z" fill="#283593"/>
<path d="M1363 326C1357.48 326 1353 321.523 1353 316C1353 310.477 1357.48 306 1363 306C1368.52 306 1373 310.477 1373 316C1373 321.523 1368.52 326 1363 326Z" fill="#F8BBD0"/>
<path d="M1238 351C1232.48 351 1228 346.523 1228 341C1228 335.477 1232.48 331 1238 331C1243.52 331 1248 335.477 1248 341C1248 346.523 1243.52 351 1238 351Z" fill="#F8BBD0"/>
<path d="M1271 362C1265.48 362 1261 357.523 1261 352C1261 346.477 1265.48 342 1271 342C1276.52 342 1281 346.477 1281 352C1281 357.523 1276.52 362 1271 362Z" fill="#283593"/>
<path d="M1248 394C1242.48 394 1238 389.523 1238 384C1238 378.477 1242.48 374 1248 374C1253.52 374 1258 378.477 1258 384C1258 389.523 1253.52 394 1248 394Z" fill="#283593"/>
<path d="M1353 212C1347.48 212 1343 207.523 1343 202C1343 196.477 1347.48 192 1353 192C1358.52 192 1363 196.477 1363 202C1363 207.523 1358.52 212 1353 212Z" fill="#F8BBD0"/>
</g>
<defs>
<clipPath id="clip0">
<rect width="1440" height="437" fill="white"/>
</clipPath>
</defs>
</svg>
