<svg xmlns="http://www.w3.org/2000/svg" width="511" height="347" fill="none" viewBox="0 0 511 347"><g clip-path="url(#clip0)"><path fill="#F8BBD0" d="M346.261 215.587C367.342 215.587 384.431 198.457 384.431 177.325C384.431 156.193 367.342 139.062 346.261 139.062C325.179 139.062 308.09 156.193 308.09 177.325C308.09 198.457 325.179 215.587 346.261 215.587Z" opacity=".4"/><path fill="#3F3D56" d="M347.133 230.268H134.277V288.096H347.133V230.268Z"/><path fill="#F2F2F2" d="M333.5 86.9947L325.001 91.0269L332.523 85.3887C331.3 83.4759 329.927 81.6642 328.416 79.9712L291.556 89.155L324.851 76.4235C323.329 75.0778 321.714 73.8433 320.016 72.7294L263.85 81.798C257.886 89.2732 254.635 98.5586 254.631 108.13H339.176C339.173 100.707 337.215 93.4163 333.5 86.9947Z"/><path fill="#F2F2F2" d="M340.234 25.0235C306.449 8.50573 269.345 -0.0533478 231.755 3.75215e-06C155.252 3.75215e-06 86.854 34.7732 41.4238 89.4091C119.219 72.3226 254.666 42.7448 340.234 25.0235Z"/><path fill="#283593" d="M507.272 345.925H0V346.922H507.272V345.925Z"/><path fill="#283593" d="M347.382 346.922H134.029V27.8683H347.382V346.922ZM135.024 345.925H346.387V28.8653H135.024V345.925Z"/><path fill="#283593" d="M347.133 35.4363H134.775V36.4333H347.133V35.4363Z"/><path fill="#F8BBD0" d="M140.245 33.8505C141.344 33.8505 142.234 32.9578 142.234 31.8565C142.234 30.7551 141.344 29.8624 140.245 29.8624C139.147 29.8624 138.256 30.7551 138.256 31.8565C138.256 32.9578 139.147 33.8505 140.245 33.8505Z"/><path fill="#F8BBD0" d="M145.716 33.8505C146.815 33.8505 147.705 32.9578 147.705 31.8565C147.705 30.7551 146.815 29.8624 145.716 29.8624C144.617 29.8624 143.727 30.7551 143.727 31.8565C143.727 32.9578 144.617 33.8505 145.716 33.8505Z"/><path fill="#F8BBD0" d="M151.187 33.8505C152.285 33.8505 153.176 32.9578 153.176 31.8565C153.176 30.7551 152.285 29.8624 151.187 29.8624C150.088 29.8624 149.197 30.7551 149.197 31.8565C149.197 32.9578 150.088 33.8505 151.187 33.8505Z"/><path fill="#F8BBD0" d="M151.186 42.3253H142.234V47.3105H151.186V42.3253Z"/><path fill="#F8BBD0" d="M185.999 81.7085H142.234V86.6937H185.999V81.7085Z"/><path fill="#F2F2F2" d="M297.897 47.3105L341.662 47.3105V42.3253L297.897 42.3253V47.3105Z"/><path fill="#F2F2F2" d="M215.839 90.1833H142.234V93.1745H215.839V90.1833Z"/><path fill="#F2F2F2" d="M211.86 96.6642H142.234V99.6553H211.86V96.6642Z"/><path fill="#F2F2F2" d="M192.962 103.145H142.234V106.136H192.962V103.145Z"/><path fill="#F2F2F2" d="M187.989 191.882H159.145V194.873H187.989V191.882Z"/><path fill="#F2F2F2" d="M186.43 198.363H159.145V201.354H186.43V198.363Z"/><path fill="#F2F2F2" d="M179.024 204.843H159.145V207.835H179.024V204.843Z"/><path fill="#F2F2F2" d="M255.128 191.882H226.283V194.873H255.128V191.882Z"/><path fill="#F2F2F2" d="M253.569 198.363H226.283V201.354H253.569V198.363Z"/><path fill="#F2F2F2" d="M246.163 204.843H226.283V207.835H246.163V204.843Z"/><path fill="#F2F2F2" d="M324.753 191.882H295.908V194.873H324.753V191.882Z"/><path fill="#F2F2F2" d="M323.194 198.363H295.908V201.354H323.194V198.363Z"/><path fill="#F2F2F2" d="M315.788 204.843H295.908V207.835H315.788V204.843Z"/><path fill="#F8BBD0" d="M247.669 305.046H203.904V310.031H247.669V305.046Z"/><path fill="#F2F2F2" d="M277.509 313.521H203.904V316.512H277.509V313.521Z"/><path fill="#F2F2F2" d="M273.53 320.002H203.904V322.993H273.53V320.002Z"/><path fill="#F2F2F2" d="M254.632 326.483H203.904V329.474H254.632V326.483Z"/><path fill="#F8BBD0" d="M328.483 135.549H155.414V136.546H328.483V135.549Z" opacity=".3"/><path fill="#F8BBD0" d="M191.968 152.997H155.166V185.9H191.968V152.997Z" opacity=".3"/><path fill="#3F3D56" d="M259.107 152.997H222.305V185.9H259.107V152.997Z"/><path fill="#3F3D56" d="M328.732 152.997H291.93V185.9H328.732V152.997Z"/><path fill="#F8BBD0" d="M235.909 185.761L235.424 185.752C235.434 185.213 235.738 172.51 240.726 168.999L241.005 169.398C236.218 172.767 235.912 185.632 235.909 185.761Z"/><path fill="#F8BBD0" d="M243.297 168.839C244.637 168.839 245.724 167.749 245.724 166.405C245.724 165.061 244.637 163.972 243.297 163.972C241.956 163.972 240.869 165.061 240.869 166.405C240.869 167.749 241.956 168.839 243.297 168.839Z"/><path fill="#F8BBD0" d="M242.806 174.998C241.543 175.395 240.198 175.453 238.906 175.166C239.727 174.119 240.832 173.332 242.088 172.9C243.345 172.468 244.699 172.41 245.988 172.731C245.144 173.753 244.046 174.535 242.806 174.998Z"/><path fill="#F8BBD0" d="M305.534 185.761L305.049 185.752C305.059 185.213 305.363 172.51 310.351 168.999L310.63 169.398C305.843 172.767 305.537 185.632 305.534 185.761Z"/><path fill="#F8BBD0" d="M312.92 168.839C314.261 168.839 315.347 167.749 315.347 166.405C315.347 165.061 314.261 163.972 312.92 163.972C311.579 163.972 310.492 165.061 310.492 166.405C310.492 167.749 311.579 168.839 312.92 168.839Z"/><path fill="#F8BBD0" d="M312.431 174.998C311.168 175.395 309.823 175.453 308.531 175.166C309.352 174.119 310.457 173.332 311.713 172.9C312.97 172.468 314.324 172.41 315.613 172.731C314.769 173.753 313.671 174.535 312.431 174.998Z"/><path fill="#F8BBD0" d="M185.999 248.713H142.234V253.699H185.999V248.713Z"/><path fill="#F2F2F2" d="M215.839 257.188H142.234V260.179H215.839V257.188Z"/><path fill="#F2F2F2" d="M211.86 263.669H142.234V266.66H211.86V263.669Z"/><path fill="#F2F2F2" d="M192.962 270.15H142.234V273.141H192.962V270.15Z"/><path fill="#F8BBD0" d="M304.242 271.17C312.824 271.17 319.782 264.196 319.782 255.593C319.782 246.989 312.824 240.015 304.242 240.015C295.659 240.015 288.701 246.989 288.701 255.593C288.701 264.196 295.659 271.17 304.242 271.17Z" opacity=".4"/><path fill="#F8BBD0" d="M275.48 273.961C281.5 273.961 286.381 269.068 286.381 263.033C286.381 256.998 281.5 252.105 275.48 252.105C269.459 252.105 264.578 256.998 264.578 263.033C264.578 269.068 269.459 273.961 275.48 273.961Z" opacity=".4"/><path fill="#283593" d="M83.3024 329.723C105.001 329.723 122.591 312.09 122.591 290.34C122.591 268.589 105.001 250.957 83.3024 250.957C61.6038 250.957 44.0137 268.589 44.0137 290.34C44.0137 312.09 61.6038 329.723 83.3024 329.723Z"/><path fill="#283593" d="M77.3343 321.248H65.3984V342.684H77.3343V321.248Z"/><path fill="#283593" d="M101.205 321.248H89.2695V342.684H101.205V321.248Z"/><path fill="#283593" d="M75.345 346.673C80.8383 346.673 85.2915 344.999 85.2915 342.934C85.2915 340.869 80.8383 339.195 75.345 339.195C69.8516 339.195 65.3984 340.869 65.3984 342.934C65.3984 344.999 69.8516 346.673 75.345 346.673Z"/><path fill="#283593" d="M99.216 346.174C104.709 346.174 109.163 344.5 109.163 342.435C109.163 340.37 104.709 338.696 99.216 338.696C93.7227 338.696 89.2695 340.37 89.2695 342.435C89.2695 344.5 93.7227 346.174 99.216 346.174Z"/><path fill="#fff" d="M84.2969 293.829C91.7129 293.829 97.7247 287.803 97.7247 280.369C97.7247 272.935 91.7129 266.909 84.2969 266.909C76.881 266.909 70.8691 272.935 70.8691 280.369C70.8691 287.803 76.881 293.829 84.2969 293.829Z"/><path fill="#3F3D56" d="M84.2962 278.874C86.7682 278.874 88.7722 276.865 88.7722 274.387C88.7722 271.909 86.7682 269.9 84.2962 269.9C81.8243 269.9 79.8203 271.909 79.8203 274.387C79.8203 276.865 81.8243 278.874 84.2962 278.874Z"/><path fill="#F8BBD0" d="M45.1902 253.715C42.0178 239.473 52.1587 225.082 67.8404 221.572C83.5222 218.062 98.8064 226.762 101.979 241.004C105.151 255.245 94.7583 260.498 79.0766 264.008C63.3949 267.518 48.3626 267.956 45.1902 253.715Z"/><path fill="#283593" d="M118.624 249.366C123.196 239.504 124.398 230.342 121.309 228.903C118.22 227.465 112.01 234.294 107.438 244.156C102.866 254.019 101.664 263.18 104.753 264.619C107.842 266.058 114.052 259.229 118.624 249.366Z"/><path fill="#283593" d="M50.1062 276.129C53.1164 274.532 51.4421 265.445 46.3665 255.834C41.291 246.222 34.7361 239.725 31.7259 241.322C28.7157 242.919 30.39 252.006 35.4655 261.618C40.5411 271.229 47.096 277.727 50.1062 276.129Z"/><path fill="#283593" d="M414.873 279.426C418.051 278.198 417.464 268.976 413.562 258.828C409.66 248.681 403.921 241.45 400.743 242.678C397.565 243.905 398.151 253.127 402.053 263.275C405.955 273.423 411.694 280.654 414.873 279.426Z"/><path fill="#283593" d="M444.205 330.073C465.903 330.073 483.493 312.44 483.493 290.69C483.493 268.939 465.903 251.306 444.205 251.306C422.506 251.306 404.916 268.939 404.916 290.69C404.916 312.44 422.506 330.073 444.205 330.073Z"/><path fill="#283593" d="M450.318 343.015L462.254 342.982L462.194 321.546L450.258 321.579L450.318 343.015Z"/><path fill="#283593" d="M426.449 343.084L438.385 343.051L438.325 321.614L426.389 321.648L426.449 343.084Z"/><path fill="#283593" d="M452.321 347C457.814 346.984 462.263 345.298 462.257 343.233C462.251 341.168 457.793 339.507 452.3 339.522C446.807 339.537 442.358 341.224 442.364 343.289C442.37 345.354 446.828 347.015 452.321 347Z"/><path fill="#283593" d="M428.448 346.568C433.941 346.553 438.39 344.866 438.384 342.801C438.378 340.737 433.92 339.075 428.427 339.09C422.934 339.106 418.485 340.792 418.491 342.857C418.497 344.922 422.955 346.584 428.448 346.568Z"/><path fill="#fff" d="M443.186 294.182C450.602 294.182 456.613 288.156 456.613 280.722C456.613 273.288 450.602 267.262 443.186 267.262C435.77 267.262 429.758 273.288 429.758 280.722C429.758 288.156 435.77 294.182 443.186 294.182Z"/><path fill="#3F3D56" d="M443.185 285.209C445.657 285.209 447.661 283.2 447.661 280.722C447.661 278.244 445.657 276.235 443.185 276.235C440.713 276.235 438.709 278.244 438.709 280.722C438.709 283.2 440.713 285.209 443.185 285.209Z"/><path fill="#F8BBD0" d="M482.215 253.958C485.348 239.707 475.167 225.345 459.475 221.879C443.784 218.413 428.524 227.156 425.391 241.406C422.258 255.657 432.666 260.88 448.357 264.346C464.049 267.812 479.082 268.208 482.215 253.958Z"/><path fill="#283593" d="M491.066 277.869C500.855 273.181 507.601 266.884 506.133 263.803C504.665 260.722 495.539 262.025 485.749 266.713C475.959 271.401 469.214 277.699 470.682 280.78C472.15 283.86 481.276 282.557 491.066 277.869Z"/><path fill="#fff" d="M463.544 304.843C463.554 308.698 453.675 316.337 442.688 316.368C431.702 316.398 421.37 305.576 421.359 301.721C421.349 297.867 431.663 302.44 442.649 302.409C453.636 302.378 463.533 300.989 463.544 304.843Z"/><path fill="#F8BBD0" d="M456.171 288.619C486.452 288.619 511 264.012 511 233.658C511 203.304 486.452 178.697 456.171 178.697C425.89 178.697 401.342 203.304 401.342 233.658C401.342 264.012 425.89 288.619 456.171 288.619Z" opacity=".4"/><path fill="#283593" d="M94.693 213.163C116.392 213.163 133.982 195.53 133.982 173.78C133.982 152.029 116.392 134.396 94.693 134.396C72.9945 134.396 55.4043 152.029 55.4043 173.78C55.4043 195.53 72.9945 213.163 94.693 213.163Z"/><path fill="#283593" d="M83.3289 203.128L71.584 200.997L67.7746 222.09L79.5195 224.221L83.3289 203.128Z"/><path fill="#283593" d="M106.819 207.39L95.0742 205.259L91.2648 226.353L103.01 228.484L106.819 207.39Z"/><path fill="#283593" d="M106.775 236.514C108.106 234.938 105.787 230.775 101.595 227.217C97.403 223.658 92.9255 222.051 91.5941 223.626C90.2628 225.202 92.5819 229.364 96.7738 232.923C100.966 236.482 105.443 238.089 106.775 236.514Z"/><path fill="#283593" d="M83.7727 232.34C85.104 230.764 82.785 226.602 78.593 223.043C74.401 219.484 69.9235 217.877 68.5922 219.452C67.2609 221.028 69.5799 225.191 73.7719 228.749C77.9639 232.308 82.4414 233.916 83.7727 232.34Z"/><path fill="#fff" d="M97.4434 177.606C104.859 177.606 110.871 171.58 110.871 164.146C110.871 156.712 104.859 150.686 97.4434 150.686C90.0275 150.686 84.0156 156.712 84.0156 164.146C84.0156 171.58 90.0275 177.606 97.4434 177.606Z"/><path fill="#3F3D56" d="M102.96 163.808C105.432 163.808 107.436 161.799 107.436 159.322C107.436 156.844 105.432 154.835 102.96 154.835C100.488 154.835 98.4844 156.844 98.4844 159.322C98.4844 161.799 100.488 163.808 102.96 163.808Z"/><path fill="#F8BBD0" d="M63.6997 130.935C63.1089 116.354 75.6448 104.005 91.6995 103.351C107.754 102.698 121.248 113.987 121.839 128.567C122.43 143.148 111.27 146.46 95.215 147.114C79.1603 147.768 64.2906 145.515 63.6997 130.935Z"/><path fill="#283593" d="M132.349 172.63C142.924 170.2 150.88 165.533 150.119 162.205C149.358 158.877 140.168 158.149 129.593 160.579C119.018 163.009 111.062 167.676 111.823 171.004C112.584 174.332 121.774 175.06 132.349 172.63Z"/><path fill="#283593" d="M55.2277 185.486C65.8027 183.057 73.7586 178.389 72.9976 175.061C72.2367 171.734 63.047 171.006 52.472 173.435C41.897 175.865 33.9411 180.533 34.7021 183.86C35.463 187.188 44.6526 187.916 55.2277 185.486Z"/><path fill="#fff" d="M83.903 189.3C83.4801 191.642 84.0025 194.056 85.3554 196.012C86.7083 197.968 88.7808 199.304 91.117 199.728C93.4532 200.152 95.8618 199.629 97.8128 198.272C99.7637 196.916 101.097 194.839 101.52 192.497C102.401 187.62 98.6396 185.895 93.7747 185.012C88.9098 184.129 84.7837 184.423 83.903 189.3Z"/><path fill="#3F3D56" d="M187.201 141.788L151.949 131.194L142.523 162.711L177.775 173.305L187.201 141.788Z"/><path fill="#F8BBD0" d="M155.597 166.495L155.135 166.346C155.299 165.833 159.229 153.753 165.013 151.826L165.166 152.287C159.615 154.137 155.636 166.371 155.597 166.495Z"/><path fill="#F8BBD0" d="M168.215 152.513C169.555 152.513 170.642 151.424 170.642 150.08C170.642 148.736 169.555 147.646 168.215 147.646C166.874 147.646 165.787 148.736 165.787 150.08C165.787 151.424 166.874 152.513 168.215 152.513Z"/><path fill="#F8BBD0" d="M165.284 158.169C163.96 158.186 162.656 157.855 161.5 157.208C162.586 156.441 163.87 156.006 165.197 155.953C166.525 155.901 167.839 156.235 168.981 156.914C167.88 157.65 166.605 158.083 165.284 158.169Z"/><path fill="#283593" d="M276 60L309.601 93.6007H276V60Z"/><path fill="#283593" d="M309.602 60L276.001 93.6007H309.602V60Z"/><path fill="#F8BBD0" d="M309.602 60L329.001 93.6007H309.602V60Z"/></g><defs><clipPath id="clip0"><rect width="511" height="347" fill="#fff"/></clipPath></defs></svg>