<svg width="589" height="367" viewBox="0 0 589 367" fill="none" xmlns="http://www.w3.org/2000/svg">
<path d="M153.935 223.665C215.821 223.665 265.989 173.596 265.989 111.833C265.989 50.0692 215.821 0 153.935 0C92.0493 0 41.8809 50.0692 41.8809 111.833C41.8809 173.596 92.0493 223.665 153.935 223.665Z" fill="#F2F2F2"/>
<path d="M0 26.8516C0 67.5407 25.5768 100.466 57.1849 100.466Z" fill="#283593"/>
<path d="M57.1855 100.466C57.1855 59.3195 85.7278 26.0244 121.001 26.0244Z" fill="#F8BBD0"/>
<path d="M20.7188 30.5401C20.7188 69.1905 37.0286 100.466 57.1845 100.466Z" fill="#F8BBD0"/>
<path d="M57.1855 100.466C57.1855 47.89 90.176 5.34625 130.946 5.34625Z" fill="#283593"/>
<path d="M45.1543 100.985C45.1543 100.985 53.2641 100.736 55.7081 98.9987C58.1522 97.2617 68.183 95.1877 68.7893 97.9734C69.3956 100.759 80.9768 111.828 71.8209 111.902C62.665 111.976 50.5467 110.478 48.1073 108.996C45.6679 107.513 45.1543 100.985 45.1543 100.985Z" fill="#A8A8A8"/>
<path opacity="0.2" d="M71.9843 110.932C62.8284 111.006 50.7101 109.509 48.2707 108.026C46.413 106.896 45.6727 102.844 45.425 100.974C45.2535 100.982 45.1543 100.985 45.1543 100.985C45.1543 100.985 45.6679 107.513 48.1073 108.995C50.5467 110.478 62.665 111.976 71.8209 111.902C74.4638 111.881 75.3767 110.942 75.3266 109.552C74.9594 110.392 73.9514 110.916 71.9843 110.932Z" fill="black"/>
<path d="M104.484 236.235C158.815 236.235 202.86 230.254 202.86 222.878C202.86 215.501 158.815 209.521 104.484 209.521C50.152 209.521 6.10742 215.501 6.10742 222.878C6.10742 230.254 50.152 236.235 104.484 236.235Z" fill="black"/>
<path opacity="0.1" d="M104.483 234.092C150.098 234.092 187.077 229.071 187.077 222.878C187.077 216.684 150.098 211.664 104.483 211.664C58.8673 211.664 21.8887 216.684 21.8887 222.878C21.8887 229.071 58.8673 234.092 104.483 234.092Z" fill="black"/>
<path d="M440.12 367C522.344 367 589 357.95 589 346.786C589 335.622 522.344 326.572 440.12 326.572C357.896 326.572 291.24 335.622 291.24 346.786C291.24 357.95 357.896 367 440.12 367Z" fill="black"/>
<path d="M163.404 351.053C212.796 351.053 252.837 345.617 252.837 338.911C252.837 332.204 212.796 326.768 163.404 326.768C114.011 326.768 73.9707 332.204 73.9707 338.911C73.9707 345.617 114.011 351.053 163.404 351.053Z" fill="black"/>
<path d="M243.367 328.672C290.714 340.748 381.725 312.921 391.721 281.419" stroke="#2F2E41" stroke-width="2" stroke-miterlimit="10"/>
<path d="M162.877 135.984C162.877 135.984 231.267 117.083 235.476 177.987C239.684 238.891 179.185 256.217 226.532 268.293" stroke="#2F2E41" stroke-width="2" stroke-miterlimit="10"/>
<path d="M96.8047 282.093C96.8047 282.093 117.36 276.412 118.625 294.717C119.89 313.022 101.706 318.23 115.937 321.859" stroke="#2F2E41" stroke-width="2" stroke-miterlimit="10"/>
<path d="M409.659 295.721L405.514 322.128C405.514 322.128 385.112 332.945 399.458 333.263C413.803 333.581 481.385 333.263 481.385 333.263C481.385 333.263 494.455 333.263 473.734 321.81L469.59 294.13L409.659 295.721Z" fill="#2F2E41"/>
<path opacity="0.1" d="M396.571 332.977C399.829 330.084 405.514 327.069 405.514 327.069L409.658 300.662L469.59 300.719L473.734 326.751C478.566 329.422 481.559 331.469 483.31 333.04C485.972 332.434 488.88 330.182 473.734 321.81L469.59 294.13L409.658 295.721L405.514 322.128C405.514 322.128 388.37 331.219 396.571 332.977Z" fill="black"/>
<path d="M564.816 111.669H313.792C308.549 111.669 304.299 115.911 304.299 121.144V289.905C304.299 295.138 308.549 299.38 313.792 299.38H564.816C570.059 299.38 574.309 295.138 574.309 289.905V121.144C574.309 115.911 570.059 111.669 564.816 111.669Z" fill="#2F2E41"/>
<path d="M564.84 122H313V262.624H564.84V122Z" fill="#283593"/>
<path d="M439.305 118.828C440.185 118.828 440.899 118.115 440.899 117.237C440.899 116.358 440.185 115.646 439.305 115.646C438.425 115.646 437.711 116.358 437.711 117.237C437.711 118.115 438.425 118.828 439.305 118.828Z" fill="#F2F2F2"/>
<path d="M574.309 273.45V289.905C574.309 291.149 574.064 292.382 573.587 293.531C573.11 294.681 572.411 295.725 571.529 296.605C570.647 297.485 569.601 298.183 568.449 298.659C567.297 299.135 566.063 299.38 564.816 299.38H313.792C312.546 299.38 311.311 299.135 310.159 298.659C309.007 298.183 307.961 297.485 307.079 296.605C306.197 295.725 305.498 294.681 305.021 293.531C304.544 292.382 304.299 291.149 304.299 289.905V273.45H574.309Z" fill="#2F2E41"/>
<path d="M509.756 350.444V353.625H338.25V351.08L338.486 350.444L342.713 338.99H506.249L509.756 350.444Z" fill="#2F2E41"/>
<path d="M575.757 347.329C575.444 348.662 574.265 350.068 571.6 351.398C562.036 356.17 542.59 350.125 542.59 350.125C542.59 350.125 527.607 347.58 527.607 340.899C528.028 340.611 528.467 340.351 528.921 340.119C532.942 337.996 546.273 332.758 569.911 340.341C571.653 340.887 573.208 341.904 574.405 343.28C575.363 344.399 576.114 345.818 575.757 347.329Z" fill="#2F2E41"/>
<path opacity="0.1" d="M575.758 347.329C564.052 351.805 553.618 352.139 542.91 344.717C537.51 340.975 532.604 340.049 528.922 340.119C532.943 337.996 546.274 332.758 569.913 340.341C571.654 340.887 573.21 341.904 574.406 343.28C575.364 344.399 576.115 345.818 575.758 347.329Z" fill="black"/>
<path d="M561.082 344.717C563.37 344.717 565.226 344.147 565.226 343.444C565.226 342.741 563.37 342.172 561.082 342.172C558.793 342.172 556.938 342.741 556.938 343.444C556.938 344.147 558.793 344.717 561.082 344.717Z" fill="#F2F2F2"/>
<path d="M439.305 292.54C442.65 292.54 445.362 289.833 445.362 286.495C445.362 283.156 442.65 280.45 439.305 280.45C435.96 280.45 433.248 283.156 433.248 286.495C433.248 289.833 435.96 292.54 439.305 292.54Z" fill="#F2F2F2"/>
<path opacity="0.1" d="M509.756 350.443V353.625H338.25V351.08L338.486 350.443H509.756Z" fill="black"/>
<path d="M166.561 83.4807H57.1367V210.539H166.561V83.4807Z" fill="#2F2E41"/>
<path d="M177.609 70.8798H46.0898V116.033H177.609V70.8798Z" fill="#3F3D56"/>
<path d="M177.609 124.433H46.0898V169.587H177.609V124.433Z" fill="#3F3D56"/>
<path d="M177.609 177.987H46.0898V223.14H177.609V177.987Z" fill="#3F3D56"/>
<path opacity="0.4" d="M151.304 78.7554H142.887V87.1559H151.304V78.7554Z" fill="#F8BBD0"/>
<path opacity="0.8" d="M163.404 78.7554H154.986V87.1559H163.404V78.7554Z" fill="#F8BBD0"/>
<path d="M175.503 78.7554H167.086V87.1559H175.503V78.7554Z" fill="#F8BBD0"/>
<path opacity="0.4" d="M151.304 131.784H142.887V140.185H151.304V131.784Z" fill="#F8BBD0"/>
<path opacity="0.8" d="M163.404 131.784H154.986V140.185H163.404V131.784Z" fill="#F8BBD0"/>
<path d="M175.503 131.784H167.086V140.185H175.503V131.784Z" fill="#F8BBD0"/>
<path opacity="0.4" d="M151.304 184.813H142.887V193.213H151.304V184.813Z" fill="#F8BBD0"/>
<path opacity="0.8" d="M163.404 184.813H154.986V193.213H163.404V184.813Z" fill="#F8BBD0"/>
<path d="M175.503 184.813H167.086V193.213H175.503V184.813Z" fill="#F8BBD0"/>
<path d="M166.56 323.947C189.513 323.947 208.12 305.377 208.12 282.469C208.12 259.562 189.513 240.991 166.56 240.991C143.607 240.991 125 259.562 125 282.469C125 305.377 143.607 323.947 166.56 323.947Z" fill="#283593"/>
<path d="M160.247 315.021H147.621V337.598H160.247V315.021Z" fill="#283593"/>
<path d="M185.499 315.021H172.873V337.598H185.499V315.021Z" fill="#283593"/>
<path d="M158.143 341.798C163.954 341.798 168.664 340.035 168.664 337.861C168.664 335.686 163.954 333.923 158.143 333.923C152.332 333.923 147.621 335.686 147.621 337.861C147.621 340.035 152.332 341.798 158.143 341.798Z" fill="#283593"/>
<path d="M183.395 341.273C189.205 341.273 193.916 339.51 193.916 337.335C193.916 335.161 189.205 333.398 183.395 333.398C177.584 333.398 172.873 335.161 172.873 337.335C172.873 339.51 177.584 341.273 183.395 341.273Z" fill="#283593"/>
<path d="M167.612 286.145C175.457 286.145 181.816 279.798 181.816 271.969C181.816 264.139 175.457 257.793 167.612 257.793C159.768 257.793 153.408 264.139 153.408 271.969C153.408 279.798 159.768 286.145 167.612 286.145Z" fill="white"/>
<path d="M167.612 276.694C170.227 276.694 172.346 274.578 172.346 271.968C172.346 269.359 170.227 267.243 167.612 267.243C164.997 267.243 162.877 269.359 162.877 271.968C162.877 274.578 164.997 276.694 167.612 276.694Z" fill="#3F3D56"/>
<path d="M126.245 243.896C122.889 228.897 133.617 213.741 150.205 210.044C166.793 206.348 182.961 215.51 186.317 230.509C189.673 245.508 178.679 251.04 162.091 254.737C145.502 258.433 129.601 258.895 126.245 243.896Z" fill="#F8BBD0"/>
<path d="M205.54 274.197C216.091 269.69 223.495 263.356 222.077 260.051C220.66 256.745 210.957 257.719 200.407 262.226C189.856 266.733 182.452 273.066 183.87 276.372C185.287 279.677 194.99 278.703 205.54 274.197Z" fill="#283593"/>
<path d="M127.681 302.023C138.232 297.517 145.635 291.183 144.218 287.878C142.8 284.572 133.098 285.546 122.547 290.053C111.996 294.56 104.593 300.893 106.01 304.198C107.428 307.504 117.13 306.53 127.681 302.023Z" fill="#283593"/>
<path d="M190.759 294.545C190.759 298.605 180.286 306.621 168.664 306.621C157.042 306.621 146.043 299.13 146.043 295.07C146.043 291.011 157.042 291.92 168.664 291.92C180.286 291.92 190.759 290.485 190.759 294.545Z" fill="white"/>
<path d="M414.652 211.031H408.887V222H399.078V211.031H378.898V202.277L397.637 171.34H408.887V203.191H414.652V211.031ZM399.078 203.191V181.184L386.316 203.191H399.078ZM429.559 197.004C429.559 202.863 430.039 207.352 431 210.469C431.961 213.562 433.93 215.109 436.906 215.109C439.883 215.109 441.828 213.562 442.742 210.469C443.68 207.352 444.148 202.863 444.148 197.004C444.148 190.863 443.68 186.316 442.742 183.363C441.828 180.41 439.883 178.934 436.906 178.934C433.93 178.934 431.961 180.41 431 183.363C430.039 186.316 429.559 190.863 429.559 197.004ZM436.906 170.672C443.398 170.672 447.945 172.957 450.547 177.527C453.172 182.098 454.484 188.59 454.484 197.004C454.484 205.418 453.172 211.898 450.547 216.445C447.945 220.992 443.398 223.266 436.906 223.266C430.414 223.266 425.855 220.992 423.23 216.445C420.629 211.898 419.328 205.418 419.328 197.004C419.328 188.59 420.629 182.098 423.23 177.527C425.855 172.957 430.414 170.672 436.906 170.672ZM494.809 211.031H489.043V222H479.234V211.031H459.055V202.277L477.793 171.34H489.043V203.191H494.809V211.031ZM479.234 203.191V181.184L466.473 203.191H479.234Z" fill="#F8BBD0"/>
</svg>
