<svg width="1440" height="571" viewBox="0 0 1440 571" fill="none" xmlns="http://www.w3.org/2000/svg">
<path fill-rule="evenodd" clip-rule="evenodd" d="M840.768 571C815.084 482.236 801 385.754 801 284.877C801 184.471 814.953 88.4206 840.409 0L1440 0V571H840.768Z" fill="#283593"/>
<g clip-path="url(#clip0)">
<path d="M1115.91 321.709V229.007H1221.91V135H910V414.845H1221.91V321.709H1115.91Z" fill="#EEEEEE"/>
<path opacity="0.1" d="M1221.91 229.007V135H1113.74V227.702H1018.17V135H910V229.007H1007.74V321.709H910V414.845H1116.78V321.709H1115.91V229.007H1221.91Z" fill="black"/>
<path d="M984.718 135C984.718 154.853 976.846 173.893 962.833 187.932C948.821 201.97 929.816 209.857 910 209.858V135H984.718Z" fill="#F8BBD0"/>
<path opacity="0.1" d="M944.753 135C944.752 144.234 941.091 153.09 934.573 159.619C928.056 166.149 919.217 169.817 910 169.817V188.967C924.286 188.967 937.987 183.281 948.089 173.16C958.191 163.039 963.866 149.313 963.867 135H944.753Z" fill="black"/>
<path d="M1221.91 161.113V147.621H1150.23V135H1134.59V147.621V161.113V171.558V185.05H1150.23H1221.91V171.558H1150.23V161.113H1221.91Z" fill="#283593"/>
<path d="M1096.36 279.057C1096.36 272.289 1094.42 265.664 1090.76 259.972C1087.11 254.281 1081.89 249.765 1075.74 246.962C1069.59 244.16 1062.77 243.191 1056.08 244.17C1049.4 245.149 1043.14 248.035 1038.05 252.484C1032.96 256.932 1029.25 262.755 1027.37 269.257C1025.5 275.759 1025.53 282.664 1027.46 289.149C1029.4 295.633 1033.15 301.423 1038.28 305.826C1043.42 310.229 1049.7 313.059 1056.4 313.978V363.49H998.722C997.511 354.638 992.991 346.578 986.075 340.937C979.159 335.297 970.363 332.498 961.466 333.106C952.569 333.714 944.235 337.684 938.147 344.213C932.06 350.742 928.674 359.343 928.674 368.277C928.674 377.211 932.06 385.812 938.147 392.341C944.235 398.87 952.569 402.84 961.466 403.448C970.363 404.056 979.159 401.257 986.075 395.617C992.991 389.977 997.511 381.916 998.722 373.065H1056.4V393.955H1065.95V373.065H1085.5V363.49H1065.95V313.978C1074.38 312.821 1082.1 308.646 1087.69 302.227C1093.28 295.807 1096.36 287.577 1096.36 279.057V279.057Z" fill="#283593"/>
<path d="M1182.16 328.787L1197.8 355.93L1213.44 383.075H1182.16H1150.87L1166.52 355.93L1182.16 328.787Z" fill="#283593"/>
<path d="M1175.21 386.556H1143.92L1159.56 359.412L1159.67 359.224L1153.92 349.242L1138.28 376.386L1122.64 403.53H1153.92H1185.21L1175.42 386.556H1175.21Z" fill="#F8BBD0"/>
<path d="M979.071 285.15V261.649H990.8V247.722H932.589V306.041H990.8V285.15H979.071Z" fill="#283593"/>
<path d="M970.383 236.841H948.662V258.602H970.383V236.841Z" fill="#F8BBD0"/>
<path d="M1317.06 239.387L1309.87 258.416L1283.95 267.527C1283.95 267.527 1268.31 265.786 1268.31 274.491C1268.31 280.662 1286.99 275.361 1286.99 275.361L1321.16 265.102L1331.94 238.358L1317.06 239.387Z" fill="#FFB8B8"/>
<path d="M1287.5 234.23H1185.85V322.144H1287.5V234.23Z" fill="#F8BBD0"/>
<path d="M1234.72 260.893L1250.36 288.036L1266.01 315.181H1234.72H1203.44L1219.08 288.036L1234.72 260.893Z" fill="#EEEEEE"/>
<path d="M1234.65 280.544L1241.74 292.857L1248.84 305.17H1234.65H1220.46L1227.55 292.857L1234.65 280.544Z" fill="#283593"/>
<path d="M1234.65 240.503L1241.74 252.817L1248.84 265.13H1234.65H1220.46L1227.55 252.817L1234.65 240.503Z" fill="#283593"/>
<path d="M1332.26 227.022C1332.26 227.022 1325.07 225.993 1321.48 239.365C1317.88 252.737 1316.86 253.765 1316.86 253.765C1316.86 253.765 1337.9 256.851 1338.42 255.823C1338.93 254.794 1343.04 230.107 1332.26 227.022Z" fill="black"/>
<path d="M1328.15 221.879C1335.8 221.879 1342.01 215.661 1342.01 207.992C1342.01 200.323 1335.8 194.106 1328.15 194.106C1320.49 194.106 1314.29 200.323 1314.29 207.992C1314.29 215.661 1320.49 221.879 1328.15 221.879Z" fill="#FFB8B8"/>
<path d="M1321.99 219.307C1321.99 219.307 1326.61 231.136 1325.07 232.679C1323.53 234.222 1344.06 236.279 1344.06 236.279C1344.06 236.279 1345.6 228.564 1339.44 223.936C1339.44 223.936 1336.88 216.221 1337.39 214.678C1337.9 213.135 1321.99 219.307 1321.99 219.307Z" fill="#FFB8B8"/>
<path d="M1333.96 224.031C1328.7 226.022 1323.96 229.188 1320.1 233.289C1313.94 239.975 1310.86 242.032 1310.86 242.032C1310.86 242.032 1303.67 244.604 1306.24 256.947C1307.52 263.119 1306.62 270.062 1305.4 275.462C1303.54 283.842 1302.62 292.404 1302.64 300.99V306.32C1302.64 306.32 1255.42 405.581 1271.33 412.267C1287.24 418.953 1301.62 421.01 1302.64 419.467C1303.67 417.924 1322.15 337.693 1322.15 337.693C1322.15 337.693 1327.28 423.582 1340.12 423.582C1352.95 423.582 1374 419.981 1374 419.981L1347.82 317.121C1347.82 317.121 1353.98 299.634 1338.58 287.291L1336.52 281.634C1345.04 281.638 1348.93 227.636 1340.12 223.003C1340.12 223.003 1338.06 221.46 1333.96 224.031Z" fill="black"/>
<path d="M1321.48 252.222L1314.29 271.252L1288.37 280.363C1288.37 280.363 1272.73 278.622 1272.73 287.326C1272.73 293.498 1291.41 288.197 1291.41 288.197L1325.58 277.938L1336.36 251.194L1321.48 252.222Z" fill="#FFB8B8"/>
<path d="M1287.34 424C1292.3 424 1296.32 421.697 1296.32 418.857C1296.32 416.017 1292.3 413.714 1287.34 413.714C1282.38 413.714 1278.35 416.017 1278.35 418.857C1278.35 421.697 1282.38 424 1287.34 424Z" fill="black"/>
<path d="M1356.13 424C1361.09 424 1365.11 421.697 1365.11 418.857C1365.11 416.017 1361.09 413.714 1356.13 413.714C1351.17 413.714 1347.14 416.017 1347.14 418.857C1347.14 421.697 1351.17 424 1356.13 424Z" fill="black"/>
<path d="M1333.5 188.519H1333.5C1332.79 188.521 1332.07 188.592 1331.37 188.731C1330.11 188.116 1328.72 187.796 1327.32 187.794H1326.95C1319.85 187.794 1314.09 194.231 1314.09 202.172V202.172H1316.47L1316.86 199.242L1317.42 202.172H1319.4C1318.79 204.523 1318.48 206.944 1318.48 209.375V224.008H1322.08L1324.16 218.586L1323.64 224.008H1346.76L1348.65 219.079L1348.18 224.008H1350.78V212.518C1350.78 199.264 1343.05 188.519 1333.5 188.519Z" fill="black"/>
</g>
<defs>
<clipPath id="clip0">
<rect width="476" height="289" fill="white" transform="translate(910 135)"/>
</clipPath>
</defs>
</svg>
