<svg width="589" height="367" viewBox="0 0 589 367" fill="none" xmlns="http://www.w3.org/2000/svg">
<path d="M163.404 351.053C212.796 351.053 252.837 345.617 252.837 338.911C252.837 332.205 212.796 326.768 163.404 326.768C114.011 326.768 73.9707 332.205 73.9707 338.911C73.9707 345.617 114.011 351.053 163.404 351.053Z" fill="black"/>
<path d="M166.561 323.947C189.513 323.947 208.121 305.377 208.121 282.469C208.121 259.562 189.513 240.991 166.561 240.991C143.608 240.991 125 259.562 125 282.469C125 305.377 143.608 323.947 166.561 323.947Z" fill="#001064"/>
<path d="M160.247 315.021H147.622V337.598H160.247V315.021Z" fill="#001064"/>
<path d="M185.499 315.021H172.874V337.598H185.499V315.021Z" fill="#001064"/>
<path d="M158.143 341.798C163.954 341.798 168.665 340.035 168.665 337.861C168.665 335.686 163.954 333.923 158.143 333.923C152.332 333.923 147.622 335.686 147.622 337.861C147.622 340.035 152.332 341.798 158.143 341.798Z" fill="#001064"/>
<path d="M183.395 341.273C189.206 341.273 193.917 339.51 193.917 337.335C193.917 335.161 189.206 333.398 183.395 333.398C177.584 333.398 172.874 335.161 172.874 337.335C172.874 339.51 177.584 341.273 183.395 341.273Z" fill="#001064"/>
<path d="M167.613 286.144C175.457 286.144 181.817 279.798 181.817 271.968C181.817 264.139 175.457 257.792 167.613 257.792C159.768 257.792 153.409 264.139 153.409 271.968C153.409 279.798 159.768 286.144 167.613 286.144Z" fill="white"/>
<path d="M167.613 276.694C170.228 276.694 172.347 274.578 172.347 271.968C172.347 269.359 170.228 267.243 167.613 267.243C164.998 267.243 162.878 269.359 162.878 271.968C162.878 274.578 164.998 276.694 167.613 276.694Z" fill="#3F3D56"/>
<path d="M126.246 243.896C122.89 228.897 133.617 213.741 150.205 210.045C166.794 206.348 182.962 215.51 186.317 230.509C189.673 245.508 178.679 251.04 162.091 254.737C145.503 258.434 129.602 258.895 126.246 243.896Z" fill="#F8BBD0"/>
<path d="M205.54 274.197C216.091 269.69 223.495 263.357 222.077 260.051C220.66 256.745 210.957 257.719 200.407 262.226C189.856 266.733 182.452 273.066 183.87 276.372C185.287 279.677 194.99 278.704 205.54 274.197Z" fill="#001064"/>
<path d="M127.681 302.023C138.232 297.517 145.635 291.183 144.218 287.878C142.8 284.572 133.098 285.546 122.547 290.053C111.996 294.559 104.593 300.893 106.01 304.198C107.428 307.504 117.13 306.53 127.681 302.023Z" fill="#001064"/>
<path d="M190.76 294.545C190.76 298.605 180.286 306.621 168.665 306.621C157.043 306.621 146.043 299.13 146.043 295.07C146.043 291.01 157.043 291.92 168.665 291.92C180.286 291.92 190.76 290.485 190.76 294.545Z" fill="white"/>
</svg>
