<svg width="179" height="142" viewBox="0 0 179 142" fill="none" xmlns="http://www.w3.org/2000/svg">
<path d="M89.433 141.828C138.825 141.828 178.866 136.392 178.866 129.685C178.866 122.979 138.825 117.543 89.433 117.543C40.0405 117.543 0 122.979 0 129.685C0 136.392 40.0405 141.828 89.433 141.828Z" fill="black"/>
<path d="M92.5898 114.722C115.543 114.722 134.15 96.1515 134.15 73.2439C134.15 50.3364 115.543 31.7661 92.5898 31.7661C69.6368 31.7661 51.0298 50.3364 51.0298 73.2439C51.0298 96.1515 69.6368 114.722 92.5898 114.722Z" fill="#001064"/>
<path d="M86.2767 105.796H73.6509V128.373H86.2767V105.796Z" fill="#001064"/>
<path d="M111.529 105.796H98.9028V128.373H111.529V105.796Z" fill="#001064"/>
<path d="M84.1724 132.573C89.9833 132.573 94.694 130.81 94.694 128.635C94.694 126.461 89.9833 124.698 84.1724 124.698C78.3615 124.698 73.6509 126.461 73.6509 128.635C73.6509 130.81 78.3615 132.573 84.1724 132.573Z" fill="#001064"/>
<path d="M109.424 132.048C115.235 132.048 119.946 130.285 119.946 128.11C119.946 125.935 115.235 124.172 109.424 124.172C103.613 124.172 98.9028 125.935 98.9028 128.11C98.9028 130.285 103.613 132.048 109.424 132.048Z" fill="#001064"/>
<path d="M93.6421 76.9191C101.487 76.9191 107.846 70.5723 107.846 62.7431C107.846 54.9139 101.487 48.5671 93.6421 48.5671C85.7974 48.5671 79.438 54.9139 79.438 62.7431C79.438 70.5723 85.7974 76.9191 93.6421 76.9191Z" fill="white"/>
<path d="M93.6419 67.4684C96.2568 67.4684 98.3766 65.3529 98.3766 62.7431C98.3766 60.1334 96.2568 58.0178 93.6419 58.0178C91.027 58.0178 88.9072 60.1334 88.9072 62.7431C88.9072 65.3529 91.027 67.4684 93.6419 67.4684Z" fill="#3F3D56"/>
<path d="M52.2751 34.6708C48.9193 19.6718 59.6464 4.51593 76.2347 0.819231C92.823 -2.87747 108.991 6.28485 112.347 21.2839C115.702 36.2829 104.709 41.8148 88.1205 45.5115C71.5322 49.2082 55.6308 49.6698 52.2751 34.6708Z" fill="#F8BBD0"/>
<path d="M131.57 64.9714C142.12 60.4645 149.524 54.1313 148.106 50.8256C146.689 47.52 136.987 48.4937 126.436 53.0006C115.885 57.5074 108.481 63.8406 109.899 67.1463C111.317 70.4519 121.019 69.4782 131.57 64.9714Z" fill="#001064"/>
<path d="M53.7101 92.798C64.2609 88.2912 71.6647 81.958 70.2471 78.6523C68.8294 75.3467 59.1272 76.3205 48.5764 80.8273C38.0257 85.3341 30.6219 91.6673 32.0395 94.9729C33.4571 98.2785 43.1594 97.3048 53.7101 92.798Z" fill="#001064"/>
<path d="M116.789 85.3196C116.789 89.3792 106.316 97.3954 94.694 97.3954C83.0723 97.3954 72.0728 89.9042 72.0728 85.8446C72.0728 81.7851 83.0723 82.6944 94.694 82.6944C106.316 82.6944 116.789 81.26 116.789 85.3196Z" fill="white"/>
</svg>
