<svg width="1440" height="940" viewBox="0 0 1440 940" fill="none" xmlns="http://www.w3.org/2000/svg">
<g clip-path="url(#clip0)">
<path d="M191.857 350.205C195.989 339.401 196.587 329.593 193.194 328.296C189.8 327 183.7 334.707 179.568 345.51C175.437 356.314 174.838 366.122 178.232 367.419C181.625 368.715 187.725 361.008 191.857 350.205Z" fill="#001064"/>
<path d="M194.193 336.688C198.203 336.688 201.453 333.439 201.453 329.432C201.453 325.425 198.203 322.177 194.193 322.177C190.184 322.177 186.934 325.425 186.934 329.432C186.934 333.439 190.184 336.688 194.193 336.688Z" fill="#F8BBD0"/>
<path d="M166.179 572C215.983 572 256.357 566.51 256.357 559.739C256.357 552.967 215.983 547.478 166.179 547.478C116.374 547.478 76 552.967 76 559.739C76 566.51 116.374 572 166.179 572Z" fill="#3F3D56"/>
<path d="M161.301 541.714C184.445 541.714 203.207 522.962 203.207 499.831C203.207 476.7 184.445 457.948 161.301 457.948C138.157 457.948 119.394 476.7 119.394 499.831C119.394 522.962 138.157 541.714 161.301 541.714Z" fill="#001064"/>
<path d="M154.935 532.701H142.204V555.497H154.935V532.701Z" fill="#001064"/>
<path d="M180.397 532.701H167.666V555.497H180.397V532.701Z" fill="#001064"/>
<path d="M152.814 559.739C158.673 559.739 163.423 557.959 163.423 555.763C163.423 553.567 158.673 551.787 152.814 551.787C146.954 551.787 142.204 553.567 142.204 555.763C142.204 557.959 146.954 559.739 152.814 559.739Z" fill="#001064"/>
<path d="M178.276 559.209C184.135 559.209 188.885 557.429 188.885 555.233C188.885 553.037 184.135 551.257 178.276 551.257C172.416 551.257 167.666 553.037 167.666 555.233C167.666 557.429 172.416 559.209 178.276 559.209Z" fill="#001064"/>
<path d="M162.362 503.542C170.272 503.542 176.684 497.133 176.684 489.228C176.684 481.322 170.272 474.913 162.362 474.913C154.452 474.913 148.039 481.322 148.039 489.228C148.039 497.133 154.452 503.542 162.362 503.542Z" fill="white"/>
<path d="M162.362 493.999C164.998 493.999 167.136 491.863 167.136 489.227C167.136 486.592 164.998 484.456 162.362 484.456C159.725 484.456 157.587 486.592 157.587 489.227C157.587 491.863 159.725 493.999 162.362 493.999Z" fill="#3F3D56"/>
<path d="M120.65 460.881C117.266 445.736 128.083 430.432 144.809 426.7C161.536 422.967 177.839 432.218 181.223 447.364C184.606 462.509 173.521 468.095 156.794 471.828C140.068 475.561 124.034 476.027 120.65 460.881Z" fill="#F8BBD0"/>
<path d="M146.978 421.367C170.123 421.367 188.885 402.616 188.885 379.485C188.885 356.354 170.123 337.602 146.978 337.602C123.834 337.602 105.072 356.354 105.072 379.485C105.072 402.616 123.834 421.367 146.978 421.367Z" fill="#001064"/>
<path d="M140.613 412.355H127.882V435.152H140.613V412.355Z" fill="#001064"/>
<path d="M166.075 412.355H153.344V435.152H166.075V412.355Z" fill="#001064"/>
<path d="M138.491 439.393C144.35 439.393 149.1 437.613 149.1 435.417C149.1 433.221 144.35 431.44 138.491 431.44C132.632 431.44 127.882 433.221 127.882 435.417C127.882 437.613 132.632 439.393 138.491 439.393Z" fill="#001064"/>
<path d="M163.953 438.863C169.812 438.863 174.562 437.082 174.562 434.886C174.562 432.69 169.812 430.91 163.953 430.91C158.094 430.91 153.344 432.69 153.344 434.886C153.344 437.082 158.094 438.863 163.953 438.863Z" fill="#001064"/>
<path d="M148.039 383.196C155.949 383.196 162.362 376.787 162.362 368.882C162.362 360.976 155.949 354.568 148.039 354.568C140.129 354.568 133.717 360.976 133.717 368.882C133.717 376.787 140.129 383.196 148.039 383.196Z" fill="white"/>
<path d="M148.039 373.653C150.676 373.653 152.813 371.517 152.813 368.882C152.813 366.247 150.676 364.11 148.039 364.11C145.403 364.11 143.265 366.247 143.265 368.882C143.265 371.517 145.403 373.653 148.039 373.653Z" fill="#3F3D56"/>
<path d="M106.328 340.535C102.944 325.39 113.76 310.086 130.487 306.354C147.214 302.621 163.516 311.873 166.9 327.018C170.284 342.163 159.198 347.749 142.472 351.482C125.745 355.215 109.711 355.681 106.328 340.535Z" fill="#F8BBD0"/>
<path d="M118.709 369.025C120.266 365.745 113.052 359.067 102.596 354.111C92.1406 349.155 82.4025 347.797 80.8457 351.077C79.2889 354.358 86.503 361.035 96.9587 365.991C107.415 370.947 117.153 372.306 118.709 369.025Z" fill="#001064"/>
<path d="M126.394 394.595C126.394 398.694 136.955 406.788 148.673 406.788C160.392 406.788 171.38 395.248 171.38 391.149C171.38 387.049 160.392 391.944 148.673 391.944C136.955 391.944 126.394 390.495 126.394 394.595Z" fill="white"/>
<path d="M112.502 554.583C116.511 554.583 119.761 551.335 119.761 547.327C119.761 543.32 116.511 540.072 112.502 540.072C108.492 540.072 105.242 543.32 105.242 547.327C105.242 551.335 108.492 554.583 112.502 554.583Z" fill="#F8BBD0"/>
<path d="M231.215 538.832H212.119V557.917H231.215V538.832Z" fill="#5F5FC4"/>
<path d="M212.229 558.824C216.238 558.824 219.488 555.576 219.488 551.569C219.488 547.562 216.238 544.313 212.229 544.313C208.219 544.313 204.969 547.562 204.969 551.569C204.969 555.576 208.219 558.824 212.229 558.824Z" fill="#F8BBD0"/>
<path d="M490 672C492.209 672 494 670.209 494 668C494 665.791 492.209 664 490 664C487.791 664 486 665.791 486 668C486 670.209 487.791 672 490 672Z" stroke="#757575" stroke-miterlimit="10"/>
<path d="M293 717C297.418 717 301 713.418 301 709C301 704.582 297.418 701 293 701C288.582 701 285 704.582 285 709C285 713.418 288.582 717 293 717Z" stroke="#757575" stroke-miterlimit="10"/>
<path d="M53 684C57.4183 684 61 680.418 61 676C61 671.582 57.4183 668 53 668C48.5817 668 45 671.582 45 676C45 680.418 48.5817 684 53 684Z" stroke="#757575" stroke-miterlimit="10"/>
<path d="M167.5 668C176.613 668 184 660.613 184 651.5C184 642.387 176.613 635 167.5 635C158.387 635 151 642.387 151 651.5C151 660.613 158.387 668 167.5 668Z" stroke="#757575" stroke-miterlimit="10"/>
<path d="M76 483H57V502H76V483Z" stroke="#757575" stroke-miterlimit="10"/>
<path d="M424.558 602H410V616.572H424.558V602Z" stroke="#757575" stroke-miterlimit="10"/>
<path d="M78 146H43V181H78V146Z" stroke="#757575" stroke-miterlimit="10"/>
<path d="M401.5 128.5H409.5V120.5H401.5V128.5Z" stroke="#757575"/>
<path d="M143.5 240.5H157.5V254.5H143.5V240.5Z" stroke="#757575"/>
<path d="M320 524C322.209 524 324 522.209 324 520C324 517.791 322.209 516 320 516C317.791 516 316 517.791 316 520C316 522.209 317.791 524 320 524Z" stroke="#757575" stroke-miterlimit="10"/>
<path d="M0 396C18.7777 396 34 380.778 34 362C34 343.222 18.7777 328 0 328C-18.7777 328 -34 343.222 -34 362C-34 380.778 -18.7777 396 0 396Z" stroke="#757575" stroke-miterlimit="10"/>
<path d="M292.5 390C301.613 390 309 382.613 309 373.5C309 364.387 301.613 357 292.5 357C283.387 357 276 364.387 276 373.5C276 382.613 283.387 390 292.5 390Z" stroke="#757575" stroke-miterlimit="10"/>
<path d="M334.5 261C340.299 261 345 256.299 345 250.5C345 244.701 340.299 240 334.5 240C328.701 240 324 244.701 324 250.5C324 256.299 328.701 261 334.5 261Z" stroke="#757575" stroke-miterlimit="10"/>
<path d="M1369.03 434.492C1376.04 486.618 1366.49 538.801 1317.95 559.121C1269.42 579.441 1213.59 556.587 1193.25 508.077C1172.92 459.566 1220.89 430.54 1244.33 383.448C1291.92 287.817 1347.26 272.615 1369.03 434.492Z" fill="#F2F2F2"/>
<path d="M1281.65 572.316C1323.65 572.316 1357.69 567.687 1357.69 561.976C1357.69 556.266 1323.65 551.636 1281.65 551.636C1239.64 551.636 1205.6 556.266 1205.6 561.976C1205.6 567.687 1239.64 572.316 1281.65 572.316Z" fill="#3F3D56"/>
<path d="M1231.9 535.66L1234.76 546.003L1253.3 540.88L1250.44 530.538L1231.9 535.66Z" fill="#001064"/>
<path d="M1233.17 547.832C1234.96 547.338 1235.34 543.08 1234.02 538.32C1232.71 533.56 1230.19 530.101 1228.41 530.594C1226.62 531.088 1226.24 535.347 1227.56 540.106C1228.87 544.866 1231.39 548.325 1233.17 547.832Z" fill="#001064"/>
<path d="M1290.42 500.09C1291.73 490.425 1290.33 482.256 1287.29 481.845C1284.26 481.434 1280.73 488.935 1279.42 498.6C1278.11 508.265 1279.51 516.434 1282.55 516.845C1285.58 517.256 1289.11 509.755 1290.42 500.09Z" fill="#001064"/>
<path d="M1281.46 567.727C1300.98 567.727 1316.8 551.914 1316.8 532.407C1316.8 512.9 1300.98 497.086 1281.46 497.086C1261.94 497.086 1246.12 512.9 1246.12 532.407C1246.12 551.914 1261.94 567.727 1281.46 567.727Z" fill="#001064"/>
<path d="M1231.9 529.401L1234.76 539.744L1253.3 534.621L1250.44 524.279L1231.9 529.401Z" fill="#001064"/>
<path d="M1233.17 541.572C1234.96 541.079 1235.34 536.82 1234.02 532.06C1232.71 527.3 1230.19 523.842 1228.41 524.335C1226.62 524.829 1226.24 529.087 1227.56 533.847C1228.87 538.607 1231.39 542.066 1233.17 541.572Z" fill="#001064"/>
<path d="M1290.74 524.245C1297.41 524.245 1302.82 518.84 1302.82 512.173C1302.82 505.506 1297.41 500.102 1290.74 500.102C1284.07 500.102 1278.66 505.506 1278.66 512.173C1278.66 518.84 1284.07 524.245 1290.74 524.245Z" fill="white"/>
<path d="M1294.6 511.076C1296.83 511.076 1298.63 509.274 1298.63 507.052C1298.63 504.83 1296.83 503.028 1294.6 503.028C1292.38 503.028 1290.58 504.83 1290.58 507.052C1290.58 509.274 1292.38 511.076 1294.6 511.076Z" fill="#3F3D56"/>
<path d="M1322.27 556.89C1335.35 556.236 1345.37 544.01 1344.64 529.583C1343.92 515.156 1332.73 503.991 1319.66 504.646C1306.58 505.3 1304.52 515.56 1305.25 529.987C1305.97 544.414 1309.19 557.544 1322.27 556.89Z" fill="#F8BBD0"/>
<path d="M1267.02 517.463C1264.89 517.634 1262.78 516.954 1261.15 515.571C1259.53 514.189 1258.51 512.217 1258.34 510.09C1258.17 507.963 1258.85 505.855 1260.23 504.229C1261.62 502.603 1263.59 501.592 1265.72 501.42C1270.15 501.061 1271.36 504.578 1271.72 509.008C1272.08 513.438 1271.45 517.104 1267.02 517.463Z" fill="white"/>
<path d="M1302.05 459.267H1245.62V487.953H1302.05V459.267Z" fill="#F8BBD0"/>
<path d="M1297.63 463.925H1241.21V492.611H1297.63V463.925Z" stroke="#3F3D56" stroke-miterlimit="10"/>
<path d="M1277.2 327.031C1296.71 327.031 1312.54 311.218 1312.54 291.711C1312.54 272.204 1296.71 256.39 1277.2 256.39C1257.68 256.39 1241.85 272.204 1241.85 291.711C1241.85 311.218 1257.68 327.031 1277.2 327.031Z" fill="#001064"/>
<path d="M1290.84 336.947L1301.41 335.036L1297.98 316.118L1287.42 318.03L1290.84 336.947Z" fill="#001064"/>
<path d="M1269.72 340.772L1280.28 338.861L1276.85 319.943L1266.29 321.855L1269.72 340.772Z" fill="#001064"/>
<path d="M1275.32 344.753C1279.09 341.562 1281.18 337.829 1279.98 336.416C1278.79 335.002 1274.76 336.444 1270.99 339.636C1267.22 342.827 1265.13 346.56 1266.33 347.973C1267.53 349.387 1271.55 347.945 1275.32 344.753Z" fill="#001064"/>
<path d="M1296.01 341.01C1299.78 337.818 1301.87 334.085 1300.67 332.672C1299.47 331.259 1295.45 332.701 1291.68 335.892C1287.91 339.084 1285.82 342.817 1287.02 344.23C1288.21 345.643 1292.24 344.202 1296.01 341.01Z" fill="#001064"/>
<path d="M1274.72 295.143C1281.39 295.143 1286.8 289.738 1286.8 283.071C1286.8 276.404 1281.39 271 1274.72 271C1268.05 271 1262.64 276.404 1262.64 283.071C1262.64 289.738 1268.05 295.143 1274.72 295.143Z" fill="white"/>
<path d="M1269.76 282.768C1271.98 282.768 1273.78 280.967 1273.78 278.744C1273.78 276.522 1271.98 274.72 1269.76 274.72C1267.53 274.72 1265.73 276.522 1265.73 278.744C1265.73 280.967 1267.53 282.768 1269.76 282.768Z" fill="#3F3D56"/>
<path d="M1305.07 253.286C1305.61 240.21 1294.33 229.134 1279.89 228.548C1265.45 227.962 1253.31 238.087 1252.78 251.163C1252.25 264.239 1262.28 267.21 1276.73 267.797C1291.17 268.383 1304.54 266.362 1305.07 253.286Z" fill="#F8BBD0"/>
<path d="M1261.79 289.222C1262.47 286.237 1255.31 282.051 1245.8 279.872C1236.29 277.693 1228.02 278.346 1227.34 281.33C1226.65 284.315 1233.81 288.501 1243.32 290.68C1252.84 292.859 1261.1 292.206 1261.79 289.222Z" fill="#001064"/>
<path d="M1331.16 300.752C1331.84 297.767 1324.69 293.581 1315.17 291.402C1305.66 289.223 1297.4 289.876 1296.71 292.86C1296.03 295.845 1303.18 300.031 1312.7 302.21C1322.21 304.389 1330.47 303.736 1331.16 300.752Z" fill="#001064"/>
<path d="M1286.9 305.63C1287.09 306.67 1287.07 307.737 1286.85 308.77C1286.62 309.803 1286.2 310.781 1285.59 311.65C1284.99 312.518 1284.22 313.259 1283.34 313.831C1282.45 314.403 1281.45 314.794 1280.41 314.983C1279.37 315.171 1278.3 315.153 1277.27 314.929C1276.24 314.704 1275.26 314.279 1274.39 313.677C1273.52 313.075 1272.78 312.307 1272.21 311.419C1271.63 310.53 1271.24 309.537 1271.05 308.497C1270.26 304.124 1273.65 302.576 1278.02 301.784C1282.4 300.993 1286.11 301.257 1286.9 305.63Z" fill="white"/>
<path d="M1190.66 251.262L1231.36 282.559" stroke="#3F3D56" stroke-miterlimit="10"/>
<path d="M1183.5 256C1190.96 256 1197 249.956 1197 242.5C1197 235.044 1190.96 229 1183.5 229C1176.04 229 1170 235.044 1170 242.5C1170 249.956 1176.04 256 1183.5 256Z" fill="#F8BBD0"/>
<path d="M1277.15 508.482C1278.46 498.817 1277.06 490.648 1274.03 490.237C1270.99 489.826 1267.47 497.327 1266.16 506.992C1264.85 516.658 1266.25 524.826 1269.28 525.237C1272.32 525.649 1275.84 518.147 1277.15 508.482Z" fill="#001064"/>
<path d="M1197.42 513.611C1199.03 513.611 1200.34 512.303 1200.34 510.689C1200.34 509.076 1199.03 507.768 1197.42 507.768C1195.8 507.768 1194.49 509.076 1194.49 510.689C1194.49 512.303 1195.8 513.611 1197.42 513.611Z" fill="#5F5FC4"/>
<path d="M1211.74 558.976V525.707" stroke="#3F3D56" stroke-width="2" stroke-miterlimit="10"/>
<path d="M1211.74 530.411C1214.34 530.411 1216.45 528.305 1216.45 525.707C1216.45 523.108 1214.34 521.002 1211.74 521.002C1209.14 521.002 1207.03 523.108 1207.03 525.707C1207.03 528.305 1209.14 530.411 1211.74 530.411Z" fill="#3F3D56"/>
<path d="M1211.74 546.211C1211.74 546.211 1211.07 531.755 1197.28 533.436L1211.74 546.211Z" fill="#3F3D56"/>
<path d="M974 619H964V609H974V619Z" stroke="#757575" stroke-miterlimit="10"/>
<path d="M1303.56 686H1289V700.572H1303.56V686Z" stroke="#757575" stroke-miterlimit="10"/>
<path d="M1190 660C1192.21 660 1194 658.209 1194 656C1194 653.791 1192.21 652 1190 652C1187.79 652 1186 653.791 1186 656C1186 658.209 1187.79 660 1190 660Z" stroke="#757575" stroke-miterlimit="10"/>
<path d="M1128.5 122.5V114.5H1136.5V122.5H1128.5Z" stroke="#757575"/>
<path d="M1100 295C1102.21 295 1104 293.209 1104 291C1104 288.791 1102.21 287 1100 287C1097.79 287 1096 288.791 1096 291C1096 293.209 1097.79 295 1100 295Z" stroke="#757575" stroke-miterlimit="10"/>
<path d="M1394.5 181C1407.48 181 1418 170.479 1418 157.5C1418 144.521 1407.48 134 1394.5 134C1381.52 134 1371 144.521 1371 157.5C1371 170.479 1381.52 181 1394.5 181Z" stroke="#757575" stroke-miterlimit="10"/>
<path d="M1087.97 550.945C1091.26 550.945 1093.93 548.271 1093.93 544.973C1093.93 541.674 1091.26 539 1087.97 539C1084.67 539 1082 541.674 1082 544.973C1082 548.271 1084.67 550.945 1087.97 550.945Z" stroke="#757575" stroke-miterlimit="10"/>
<path d="M1410.97 468.945C1414.26 468.945 1416.93 466.271 1416.93 462.973C1416.93 459.674 1414.26 457 1410.97 457C1407.67 457 1405 459.674 1405 462.973C1405 466.271 1407.67 468.945 1410.97 468.945Z" stroke="#757575" stroke-miterlimit="10"/>
<path d="M1242.5 166.5V148.5H1260.5V166.5H1242.5Z" stroke="#757575"/>
<path d="M1411.5 362.5V296.5H1477.5V362.5H1411.5Z" stroke="#757575"/>
<path d="M1157.56 390H1143V404.572H1157.56V390Z" stroke="#757575" stroke-miterlimit="10"/>
<path d="M1365.56 247H1351V261.572H1365.56V247Z" stroke="#757575" stroke-miterlimit="10"/>
</g>
<defs>
<clipPath id="clip0">
<rect width="1440" height="940" fill="white"/>
</clipPath>
</defs>
</svg>
