<svg width="720" height="940" viewBox="0 0 720 940" fill="none" xmlns="http://www.w3.org/2000/svg">
<g clip-path="url(#clip0)">
<path d="M191.857 350.205C195.989 339.401 196.587 329.593 193.194 328.296C189.8 327 183.7 334.707 179.568 345.51C175.437 356.314 174.838 366.122 178.232 367.419C181.625 368.715 187.725 361.008 191.857 350.205Z" fill="#001064"/>
<path d="M194.193 336.688C198.203 336.688 201.453 333.439 201.453 329.432C201.453 325.425 198.203 322.177 194.193 322.177C190.184 322.177 186.934 325.425 186.934 329.432C186.934 333.439 190.184 336.688 194.193 336.688Z" fill="#F8BBD0"/>
<path d="M166.179 572C215.983 572 256.357 566.51 256.357 559.739C256.357 552.967 215.983 547.478 166.179 547.478C116.374 547.478 76 552.967 76 559.739C76 566.51 116.374 572 166.179 572Z" fill="#3F3D56"/>
<path d="M161.301 541.714C184.445 541.714 203.207 522.962 203.207 499.831C203.207 476.7 184.445 457.948 161.301 457.948C138.157 457.948 119.394 476.7 119.394 499.831C119.394 522.962 138.157 541.714 161.301 541.714Z" fill="#001064"/>
<path d="M154.935 532.701H142.204V555.497H154.935V532.701Z" fill="#001064"/>
<path d="M180.397 532.701H167.666V555.497H180.397V532.701Z" fill="#001064"/>
<path d="M152.814 559.739C158.673 559.739 163.423 557.959 163.423 555.763C163.423 553.567 158.673 551.787 152.814 551.787C146.954 551.787 142.204 553.567 142.204 555.763C142.204 557.959 146.954 559.739 152.814 559.739Z" fill="#001064"/>
<path d="M178.276 559.209C184.135 559.209 188.885 557.429 188.885 555.233C188.885 553.037 184.135 551.257 178.276 551.257C172.416 551.257 167.666 553.037 167.666 555.233C167.666 557.429 172.416 559.209 178.276 559.209Z" fill="#001064"/>
<path d="M162.362 503.542C170.272 503.542 176.684 497.133 176.684 489.228C176.684 481.322 170.272 474.913 162.362 474.913C154.452 474.913 148.039 481.322 148.039 489.228C148.039 497.133 154.452 503.542 162.362 503.542Z" fill="white"/>
<path d="M162.362 493.999C164.998 493.999 167.136 491.863 167.136 489.227C167.136 486.592 164.998 484.456 162.362 484.456C159.725 484.456 157.587 486.592 157.587 489.227C157.587 491.863 159.725 493.999 162.362 493.999Z" fill="#3F3D56"/>
<path d="M120.65 460.881C117.266 445.736 128.083 430.432 144.809 426.7C161.536 422.967 177.839 432.218 181.223 447.364C184.606 462.509 173.521 468.095 156.794 471.828C140.068 475.561 124.034 476.027 120.65 460.881Z" fill="#F8BBD0"/>
<path d="M146.978 421.367C170.123 421.367 188.885 402.616 188.885 379.485C188.885 356.354 170.123 337.602 146.978 337.602C123.834 337.602 105.072 356.354 105.072 379.485C105.072 402.616 123.834 421.367 146.978 421.367Z" fill="#001064"/>
<path d="M140.613 412.355H127.882V435.152H140.613V412.355Z" fill="#001064"/>
<path d="M166.075 412.355H153.344V435.152H166.075V412.355Z" fill="#001064"/>
<path d="M138.491 439.393C144.35 439.393 149.1 437.613 149.1 435.417C149.1 433.221 144.35 431.44 138.491 431.44C132.632 431.44 127.882 433.221 127.882 435.417C127.882 437.613 132.632 439.393 138.491 439.393Z" fill="#001064"/>
<path d="M163.953 438.863C169.812 438.863 174.562 437.082 174.562 434.886C174.562 432.69 169.812 430.91 163.953 430.91C158.094 430.91 153.344 432.69 153.344 434.886C153.344 437.082 158.094 438.863 163.953 438.863Z" fill="#001064"/>
<path d="M148.039 383.196C155.949 383.196 162.362 376.787 162.362 368.882C162.362 360.976 155.949 354.568 148.039 354.568C140.129 354.568 133.717 360.976 133.717 368.882C133.717 376.787 140.129 383.196 148.039 383.196Z" fill="white"/>
<path d="M148.039 373.653C150.676 373.653 152.813 371.517 152.813 368.882C152.813 366.247 150.676 364.11 148.039 364.11C145.403 364.11 143.265 366.247 143.265 368.882C143.265 371.517 145.403 373.653 148.039 373.653Z" fill="#3F3D56"/>
<path d="M106.328 340.535C102.944 325.39 113.76 310.086 130.487 306.354C147.214 302.621 163.516 311.873 166.9 327.018C170.284 342.163 159.198 347.749 142.472 351.482C125.745 355.215 109.711 355.681 106.328 340.535Z" fill="#F8BBD0"/>
<path d="M118.709 369.025C120.266 365.745 113.052 359.067 102.596 354.111C92.1406 349.155 82.4025 347.797 80.8457 351.077C79.2889 354.358 86.503 361.035 96.9587 365.991C107.415 370.947 117.153 372.306 118.709 369.025Z" fill="#001064"/>
<path d="M126.394 394.595C126.394 398.694 136.955 406.788 148.673 406.788C160.392 406.788 171.38 395.248 171.38 391.149C171.38 387.049 160.392 391.944 148.673 391.944C136.955 391.944 126.394 390.495 126.394 394.595Z" fill="white"/>
<path d="M112.502 554.583C116.511 554.583 119.761 551.335 119.761 547.327C119.761 543.32 116.511 540.072 112.502 540.072C108.492 540.072 105.242 543.32 105.242 547.327C105.242 551.335 108.492 554.583 112.502 554.583Z" fill="#F8BBD0"/>
<path d="M231.215 538.832H212.119V557.917H231.215V538.832Z" fill="#5F5FC4"/>
<path d="M212.229 558.824C216.238 558.824 219.488 555.576 219.488 551.569C219.488 547.562 216.238 544.313 212.229 544.313C208.219 544.313 204.969 547.562 204.969 551.569C204.969 555.576 208.219 558.824 212.229 558.824Z" fill="#F8BBD0"/>
<path d="M490 672C492.209 672 494 670.209 494 668C494 665.791 492.209 664 490 664C487.791 664 486 665.791 486 668C486 670.209 487.791 672 490 672Z" stroke="#757575" stroke-miterlimit="10"/>
<path d="M293 717C297.418 717 301 713.418 301 709C301 704.582 297.418 701 293 701C288.582 701 285 704.582 285 709C285 713.418 288.582 717 293 717Z" stroke="#757575" stroke-miterlimit="10"/>
<path d="M53 684C57.4183 684 61 680.418 61 676C61 671.582 57.4183 668 53 668C48.5817 668 45 671.582 45 676C45 680.418 48.5817 684 53 684Z" stroke="#757575" stroke-miterlimit="10"/>
<path d="M167.5 668C176.613 668 184 660.613 184 651.5C184 642.387 176.613 635 167.5 635C158.387 635 151 642.387 151 651.5C151 660.613 158.387 668 167.5 668Z" stroke="#757575" stroke-miterlimit="10"/>
<path d="M76 483H57V502H76V483Z" stroke="#757575" stroke-miterlimit="10"/>
<path d="M424.558 602H410V616.572H424.558V602Z" stroke="#757575" stroke-miterlimit="10"/>
<path d="M78 146H43V181H78V146Z" stroke="#757575" stroke-miterlimit="10"/>
<path d="M401.5 120.5V128.5H409.5V120.5H401.5Z" stroke="#757575"/>
<path d="M143.5 254.5V240.5H157.5V254.5H143.5Z" stroke="#757575"/>
<path d="M320 524C322.209 524 324 522.209 324 520C324 517.791 322.209 516 320 516C317.791 516 316 517.791 316 520C316 522.209 317.791 524 320 524Z" stroke="#757575" stroke-miterlimit="10"/>
<path d="M0 396C18.7777 396 34 380.778 34 362C34 343.222 18.7777 328 0 328C-18.7777 328 -34 343.222 -34 362C-34 380.778 -18.7777 396 0 396Z" stroke="#757575" stroke-miterlimit="10"/>
<path d="M292.5 390C301.613 390 309 382.613 309 373.5C309 364.387 301.613 357 292.5 357C283.387 357 276 364.387 276 373.5C276 382.613 283.387 390 292.5 390Z" stroke="#757575" stroke-miterlimit="10"/>
<path d="M334.5 261C340.299 261 345 256.299 345 250.5C345 244.701 340.299 240 334.5 240C328.701 240 324 244.701 324 250.5C324 256.299 328.701 261 334.5 261Z" stroke="#757575" stroke-miterlimit="10"/>
</g>
<defs>
<clipPath id="clip0">
<rect width="720" height="940" fill="white"/>
</clipPath>
</defs>
</svg>
