<svg width="720" height="940" viewBox="0 0 720 940" fill="none" xmlns="http://www.w3.org/2000/svg">
<g clip-path="url(#clip0)">
<path d="M649.028 434.492C656.036 486.618 646.494 538.801 597.955 559.121C549.416 579.441 493.586 556.587 473.254 508.077C452.923 459.566 500.894 430.54 524.328 383.448C571.915 287.817 627.265 272.615 649.028 434.492Z" fill="#F2F2F2"/>
<path d="M561.645 572.316C603.646 572.316 637.695 567.687 637.695 561.976C637.695 556.266 603.646 551.636 561.645 551.636C519.644 551.636 485.596 556.266 485.596 561.976C485.596 567.687 519.644 572.316 561.645 572.316Z" fill="#3F3D56"/>
<path d="M511.895 535.66L514.756 546.003L533.296 540.88L530.436 530.538L511.895 535.66Z" fill="#001064"/>
<path d="M513.173 547.832C514.959 547.338 515.339 543.08 514.023 538.32C512.706 533.56 510.191 530.101 508.405 530.594C506.619 531.088 506.239 535.347 507.555 540.106C508.872 544.866 511.387 548.325 513.173 547.832Z" fill="#001064"/>
<path d="M570.416 500.09C571.727 490.425 570.328 482.256 567.292 481.845C564.257 481.434 560.733 488.935 559.422 498.6C558.111 508.265 559.51 516.434 562.546 516.845C565.582 517.256 569.105 509.755 570.416 500.09Z" fill="#001064"/>
<path d="M561.46 567.727C580.978 567.727 596.8 551.914 596.8 532.407C596.8 512.9 580.978 497.086 561.46 497.086C541.942 497.086 526.119 512.9 526.119 532.407C526.119 551.914 541.942 567.727 561.46 567.727Z" fill="#001064"/>
<path d="M511.895 529.401L514.756 539.744L533.296 534.621L530.436 524.279L511.895 529.401Z" fill="#001064"/>
<path d="M513.173 541.572C514.959 541.079 515.339 536.82 514.023 532.06C512.706 527.3 510.191 523.842 508.405 524.335C506.619 524.829 506.239 529.087 507.555 533.847C508.872 538.607 511.387 542.066 513.173 541.572Z" fill="#001064"/>
<path d="M570.74 524.245C577.41 524.245 582.818 518.84 582.818 512.173C582.818 505.506 577.41 500.102 570.74 500.102C564.069 500.102 558.661 505.506 558.661 512.173C558.661 518.84 564.069 524.245 570.74 524.245Z" fill="white"/>
<path d="M574.602 511.076C576.826 511.076 578.628 509.274 578.628 507.052C578.628 504.83 576.826 503.028 574.602 503.028C572.379 503.028 570.576 504.83 570.576 507.052C570.576 509.274 572.379 511.076 574.602 511.076Z" fill="#3F3D56"/>
<path d="M602.271 556.89C615.349 556.236 625.366 544.01 624.643 529.583C623.921 515.156 612.733 503.991 599.655 504.646C586.577 505.3 584.525 515.56 585.247 529.987C585.97 544.414 589.193 557.544 602.271 556.89Z" fill="#F8BBD0"/>
<path d="M547.016 517.463C544.888 517.634 542.778 516.954 541.152 515.571C539.525 514.189 538.515 512.217 538.343 510.09C538.17 507.963 538.85 505.855 540.233 504.229C541.616 502.603 543.589 501.592 545.717 501.42C550.149 501.061 551.358 504.578 551.717 509.008C552.076 513.438 551.449 517.104 547.016 517.463Z" fill="white"/>
<path d="M582.046 459.267H525.622V487.953H582.046V459.267Z" fill="#F8BBD0"/>
<path d="M577.63 463.925H521.207V492.611H577.63V463.925Z" stroke="#3F3D56" stroke-miterlimit="10"/>
<path d="M557.195 327.031C576.713 327.031 592.536 311.218 592.536 291.711C592.536 272.204 576.713 256.39 557.195 256.39C537.677 256.39 521.854 272.204 521.854 291.711C521.854 311.218 537.677 327.031 557.195 327.031Z" fill="#001064"/>
<path d="M570.844 336.947L581.409 335.036L577.982 316.118L567.417 318.03L570.844 336.947Z" fill="#001064"/>
<path d="M549.715 340.772L560.28 338.861L556.853 319.943L546.289 321.855L549.715 340.772Z" fill="#001064"/>
<path d="M555.324 344.753C559.094 341.562 561.18 337.829 559.983 336.416C558.785 335.002 554.758 336.444 550.987 339.636C547.216 342.827 545.13 346.56 546.328 347.973C547.525 349.387 551.553 347.945 555.324 344.753Z" fill="#001064"/>
<path d="M576.013 341.01C579.784 337.818 581.87 334.085 580.672 332.672C579.475 331.259 575.447 332.701 571.676 335.892C567.906 339.084 565.82 342.817 567.017 344.23C568.215 345.643 572.242 344.202 576.013 341.01Z" fill="#001064"/>
<path d="M554.721 295.143C561.392 295.143 566.8 289.738 566.8 283.071C566.8 276.404 561.392 271 554.721 271C548.05 271 542.643 276.404 542.643 283.071C542.643 289.738 548.05 295.143 554.721 295.143Z" fill="white"/>
<path d="M549.757 282.768C551.98 282.768 553.783 280.967 553.783 278.744C553.783 276.522 551.98 274.72 549.757 274.72C547.533 274.72 545.731 276.522 545.731 278.744C545.731 280.967 547.533 282.768 549.757 282.768Z" fill="#3F3D56"/>
<path d="M585.074 253.286C585.606 240.21 574.329 229.134 559.888 228.548C545.447 227.962 533.309 238.087 532.777 251.163C532.246 264.239 542.284 267.21 556.726 267.797C571.167 268.383 584.543 266.362 585.074 253.286Z" fill="#F8BBD0"/>
<path d="M541.787 289.222C542.471 286.237 535.315 282.051 525.802 279.872C516.29 277.693 508.024 278.346 507.339 281.33C506.655 284.315 513.811 288.501 523.324 290.68C532.836 292.859 541.102 292.206 541.787 289.222Z" fill="#001064"/>
<path d="M611.159 300.752C611.843 297.767 604.687 293.581 595.175 291.402C585.662 289.223 577.396 289.876 576.712 292.86C576.027 295.845 583.184 300.031 592.696 302.21C602.208 304.389 610.474 303.736 611.159 300.752Z" fill="#001064"/>
<path d="M566.901 305.63C567.09 306.67 567.071 307.737 566.847 308.77C566.623 309.803 566.197 310.781 565.595 311.65C564.992 312.518 564.224 313.259 563.335 313.831C562.446 314.403 561.453 314.794 560.412 314.983C559.372 315.171 558.304 315.153 557.271 314.929C556.238 314.704 555.258 314.279 554.39 313.677C553.521 313.075 552.779 312.307 552.207 311.419C551.634 310.53 551.243 309.537 551.055 308.497C550.262 304.124 553.646 302.576 558.022 301.784C562.398 300.993 566.109 301.257 566.901 305.63Z" fill="white"/>
<path d="M470.656 251.262L511.365 282.559" stroke="#3F3D56" stroke-miterlimit="10"/>
<path d="M463.5 256C470.956 256 477 249.956 477 242.5C477 235.044 470.956 229 463.5 229C456.044 229 450 235.044 450 242.5C450 249.956 456.044 256 463.5 256Z" fill="#F8BBD0"/>
<path d="M557.151 508.482C558.462 498.817 557.064 490.648 554.028 490.237C550.992 489.826 547.468 497.327 546.157 506.992C544.847 516.658 546.245 524.826 549.281 525.237C552.317 525.649 555.841 518.147 557.151 508.482Z" fill="#001064"/>
<path d="M477.419 513.611C479.033 513.611 480.342 512.303 480.342 510.689C480.342 509.076 479.033 507.768 477.419 507.768C475.804 507.768 474.495 509.076 474.495 510.689C474.495 512.303 475.804 513.611 477.419 513.611Z" fill="#5F5FC4"/>
<path d="M491.742 558.976V525.707" stroke="#3F3D56" stroke-width="2" stroke-miterlimit="10"/>
<path d="M491.742 530.411C494.342 530.411 496.45 528.305 496.45 525.707C496.45 523.108 494.342 521.002 491.742 521.002C489.142 521.002 487.035 523.108 487.035 525.707C487.035 528.305 489.142 530.411 491.742 530.411Z" fill="#3F3D56"/>
<path d="M491.742 546.211C491.742 546.211 491.07 531.755 477.284 533.436L491.742 546.211Z" fill="#3F3D56"/>
<path d="M254 619H244V609H254V619Z" stroke="#757575" stroke-miterlimit="10"/>
<path d="M583.558 686H569V700.572H583.558V686Z" stroke="#757575" stroke-miterlimit="10"/>
<path d="M470 660C472.209 660 474 658.209 474 656C474 653.791 472.209 652 470 652C467.791 652 466 653.791 466 656C466 658.209 467.791 660 470 660Z" stroke="#757575" stroke-miterlimit="10"/>
<path d="M408.5 122.5V114.5H416.5V122.5H408.5Z" stroke="#757575"/>
<path d="M380 295C382.209 295 384 293.209 384 291C384 288.791 382.209 287 380 287C377.791 287 376 288.791 376 291C376 293.209 377.791 295 380 295Z" stroke="#757575" stroke-miterlimit="10"/>
<path d="M674.5 181C687.479 181 698 170.479 698 157.5C698 144.521 687.479 134 674.5 134C661.521 134 651 144.521 651 157.5C651 170.479 661.521 181 674.5 181Z" stroke="#757575" stroke-miterlimit="10"/>
<path d="M367.967 550.945C371.262 550.945 373.934 548.271 373.934 544.973C373.934 541.674 371.262 539 367.967 539C364.671 539 362 541.674 362 544.973C362 548.271 364.671 550.945 367.967 550.945Z" stroke="#757575" stroke-miterlimit="10"/>
<path d="M690.967 468.945C694.262 468.945 696.934 466.271 696.934 462.973C696.934 459.674 694.262 457 690.967 457C687.671 457 685 459.674 685 462.973C685 466.271 687.671 468.945 690.967 468.945Z" stroke="#757575" stroke-miterlimit="10"/>
<path d="M522.5 166.5V148.5H540.5V166.5H522.5Z" stroke="#757575"/>
<path d="M691.5 362.5V296.5H757.5V362.5H691.5Z" stroke="#757575"/>
<path d="M437.558 390H423V404.572H437.558V390Z" stroke="#757575" stroke-miterlimit="10"/>
<path d="M645.558 247H631V261.572H645.558V247Z" stroke="#757575" stroke-miterlimit="10"/>
</g>
<defs>
<clipPath id="clip0">
<rect width="720" height="940" fill="white"/>
</clipPath>
</defs>
</svg>
