<svg width="1440" height="799" viewBox="0 0 1440 799" fill="none" xmlns="http://www.w3.org/2000/svg">
<g clip-path="url(#clip0)">
<path d="M490.558 684H476V698.572H490.558V684Z" stroke="#757575" stroke-miterlimit="10"/>
<path d="M74 605H55V624H74V605Z" stroke="#757575" stroke-miterlimit="10"/>
<path d="M399.5 242.5V250.5H407.5V242.5H399.5Z" stroke="#757575"/>
<path d="M318 646C320.209 646 322 644.209 322 642C322 639.791 320.209 638 318 638C315.791 638 314 639.791 314 642C314 644.209 315.791 646 318 646Z" stroke="#757575" stroke-miterlimit="10"/>
<path d="M-2 518C16.7777 518 32 502.778 32 484C32 465.222 16.7777 450 -2 450C-20.7777 450 -36 465.222 -36 484C-36 502.778 -20.7777 518 -2 518Z" stroke="#757575" stroke-miterlimit="10"/>
<path d="M290.5 512C299.613 512 307 504.613 307 495.5C307 486.387 299.613 479 290.5 479C281.387 479 274 486.387 274 495.5C274 504.613 281.387 512 290.5 512Z" stroke="#757575" stroke-miterlimit="10"/>
<path d="M76 268H41V303H76V268Z" stroke="#757575" stroke-miterlimit="10"/>
<path d="M141.5 376.5V362.5H155.5V376.5H141.5Z" stroke="#757575"/>
<path d="M332.5 383C338.299 383 343 378.299 343 372.5C343 366.701 338.299 362 332.5 362C326.701 362 322 366.701 322 372.5C322 378.299 326.701 383 332.5 383Z" stroke="#757575" stroke-miterlimit="10"/>
<path d="M1363.56 369H1349V383.572H1363.56V369Z" stroke="#757575" stroke-miterlimit="10"/>
<path d="M1392.5 303C1405.48 303 1416 292.479 1416 279.5C1416 266.521 1405.48 256 1392.5 256C1379.52 256 1369 266.521 1369 279.5C1369 292.479 1379.52 303 1392.5 303Z" stroke="#757575" stroke-miterlimit="10"/>
<path d="M1085.97 672.945C1089.26 672.945 1091.93 670.271 1091.93 666.973C1091.93 663.674 1089.26 661 1085.97 661C1082.67 661 1080 663.674 1080 666.973C1080 670.271 1082.67 672.945 1085.97 672.945Z" stroke="#757575" stroke-miterlimit="10"/>
<path d="M1079.5 268.5V244.5H1103.5V268.5H1079.5Z" stroke="#757575"/>
<path d="M1098 417C1100.21 417 1102 415.209 1102 413C1102 410.791 1100.21 409 1098 409C1095.79 409 1094 410.791 1094 413C1094 415.209 1095.79 417 1098 417Z" stroke="#757575" stroke-miterlimit="10"/>
<path d="M1409.5 484.5V418.5H1475.5V484.5H1409.5Z" stroke="#757575"/>
<path d="M1408.97 590.945C1412.26 590.945 1414.93 588.271 1414.93 584.973C1414.93 581.674 1412.26 579 1408.97 579C1405.67 579 1403 581.674 1403 584.973C1403 588.271 1405.67 590.945 1408.97 590.945Z" stroke="#757575" stroke-miterlimit="10"/>
<path d="M1239 256C1244.52 256 1249 251.523 1249 246C1249 240.477 1244.52 236 1239 236C1233.48 236 1229 240.477 1229 246C1229 251.523 1233.48 256 1239 256Z" stroke="#757575" stroke-miterlimit="10"/>
<path d="M1155.56 512H1141V526.572H1155.56V512Z" stroke="#757575" stroke-miterlimit="10"/>
</g>
<defs>
<clipPath id="clip0">
<rect width="1440" height="799" fill="white"/>
</clipPath>
</defs>
</svg>
