<svg xmlns="http://www.w3.org/2000/svg" width="135" height="135" fill="none" viewBox="0 0 135 135"><path stroke="#000" stroke-width="2" d="M1 0V134H135"/><circle cx="20.5" cy="126.5" r="3.5" fill="#F8BBD0"/><circle r="3.5" fill="#F8BBD0" transform="matrix(-1 0 0 1 120.5 3.5)"/><circle cx="29.5" cy="126.5" r="3.5" fill="#F8BBD0"/><circle r="3.5" fill="#F8BBD0" transform="matrix(-1 0 0 1 78.5 3.5)"/><circle cx="46.5" cy="126.5" r="3.5" fill="#F8BBD0"/><circle r="3.5" fill="#283593" transform="matrix(-1 0 0 1 94.5 3.5)"/><circle r="3.5" fill="#F8BBD0" transform="matrix(-1 0 0 1 94.5 3.5)"/><circle r="3.5" fill="#F8BBD0" transform="matrix(-1 0 0 1 102.5 3.5)"/><circle cx="55.5" cy="126.5" r="3.5" fill="#F8BBD0"/><circle r="3.5" fill="#F8BBD0" transform="matrix(-1 0 0 1 85.5 3.5)"/><circle cx="9.5" cy="126.5" r="3.5" fill="#F8BBD0"/><circle r="3.5" fill="#F8BBD0" transform="matrix(-1 0 0 1 131.5 3.5)"/><path stroke="#283593" stroke-width="2" d="M6 127H30.3733C44.0014 127 55.9173 117.814 59.3856 104.635L80.1144 25.8652C83.5827 12.6858 95.4986 3.5 109.127 3.5H134.5"/></svg>