<svg xmlns="http://www.w3.org/2000/svg" width="720" height="678" fill="none" viewBox="0 0 720 678"><path fill="#757575" fill-rule="evenodd" d="M155 308.574C152.706 308.855 150.37 309 148 309C116.52 309 91 283.48 91 252C91 220.52 116.52 195 148 195C175.717 195 198.814 214.783 203.939 241H204.958C199.819 214.228 176.271 194 148 194C115.967 194 90 219.967 90 252C90 284.033 115.967 310 148 310C150.369 310 152.705 309.858 155 309.582V308.574Z" clip-rule="evenodd"/><circle cx="83" cy="370" r="19.5" stroke="#757575"/><circle cx="596.5" cy="455.5" r="12" stroke="#757575"/><rect width="51" height="51" x="154.5" y="168.5" stroke="#757575"/><rect width="16" height="16" x="533.5" y="493.5" stroke="#757575"/></svg>