<svg xmlns="http://www.w3.org/2000/svg" width="346" height="258" fill="none" viewBox="0 0 346 258"><g clip-path="url(#clip0)"><path fill="#F2F2F2" d="M139.791 148.856C129.751 186.134 108.498 218.76 69.8955 218.76C31.2933 218.76 0 187.463 0 148.856C0 110.248 40.6869 104.193 69.8955 78.9508C129.209 27.6919 170.969 33.0873 139.791 148.856Z"/><path fill="#0085FF" d="M160.269 56.7771C172.593 56.7771 182.583 46.7854 182.583 34.4601C182.583 22.1347 172.593 12.1431 160.269 12.1431C147.945 12.1431 137.955 22.1347 137.955 34.4601C137.955 46.7854 147.945 56.7771 160.269 56.7771Z"/><path fill="#FF6584" d="M200.63 3.28186H188.816V15.0967H200.63V3.28186Z"/><path fill="#000" d="M70.7481 226.494C101.557 226.494 126.533 223.095 126.533 218.903C126.533 214.712 101.557 211.313 70.7481 211.313C39.9388 211.313 14.9629 214.712 14.9629 218.903C14.9629 223.095 39.9388 226.494 70.7481 226.494Z"/><path fill="#F8BBD0" d="M161.91 42.3367H86.4355V80.735H161.91V42.3367Z"/><path fill="#283593" d="M67.7303 207.745C82.0476 207.745 93.654 196.137 93.654 181.818C93.654 167.499 82.0476 155.891 67.7303 155.891C53.4131 155.891 41.8066 167.499 41.8066 181.818C41.8066 196.137 53.4131 207.745 67.7303 207.745Z"/><path fill="#283593" d="M63.7935 202.166H55.918V216.278H63.7935V202.166Z"/><path fill="#283593" d="M79.5435 202.166H71.668V216.278H79.5435V202.166Z"/><path fill="#283593" d="M62.4809 218.904C66.1056 218.904 69.0439 217.802 69.0439 216.442C69.0439 215.083 66.1056 213.981 62.4809 213.981C58.8563 213.981 55.918 215.083 55.918 216.442C55.918 217.802 58.8563 218.904 62.4809 218.904Z"/><path fill="#283593" d="M78.2309 218.575C81.8556 218.575 84.7939 217.473 84.7939 216.114C84.7939 214.754 81.8556 213.652 78.2309 213.652C74.6063 213.652 71.668 214.754 71.668 216.114C71.668 217.473 74.6063 218.575 78.2309 218.575Z"/><path fill="#fff" d="M68.3873 184.115C73.2806 184.115 77.2473 180.148 77.2473 175.254C77.2473 170.36 73.2806 166.393 68.3873 166.393C63.4941 166.393 59.5273 170.36 59.5273 175.254C59.5273 180.148 63.4941 184.115 68.3873 184.115Z"/><path fill="#3F3D56" d="M68.3869 178.208C70.018 178.208 71.3403 176.885 71.3403 175.254C71.3403 173.623 70.018 172.3 68.3869 172.3C66.7558 172.3 65.4336 173.623 65.4336 175.254C65.4336 176.885 66.7558 178.208 68.3869 178.208Z"/><path fill="#F8BBD0" d="M42.5844 157.706C40.4912 148.331 47.1824 138.857 57.5296 136.546C67.8768 134.236 77.9618 139.963 80.055 149.338C82.1482 158.714 75.2907 162.172 64.9435 164.483C54.5963 166.793 44.6776 167.082 42.5844 157.706Z"/><path fill="#283593" d="M58.871 133.246C73.1882 133.246 84.7946 121.638 84.7946 107.318C84.7946 92.9993 73.1882 81.3914 58.871 81.3914C44.5537 81.3914 32.9473 92.9993 32.9473 107.318C32.9473 121.638 44.5537 133.246 58.871 133.246Z"/><path fill="#283593" d="M54.9322 127.666H47.0566V141.779H54.9322V127.666Z"/><path fill="#283593" d="M70.6841 127.666H62.8086V141.779H70.6841V127.666Z"/><path fill="#283593" d="M53.6196 144.404C57.2442 144.404 60.1826 143.302 60.1826 141.943C60.1826 140.583 57.2442 139.481 53.6196 139.481C49.995 139.481 47.0566 140.583 47.0566 141.943C47.0566 143.302 49.995 144.404 53.6196 144.404Z"/><path fill="#283593" d="M69.3716 144.076C72.9962 144.076 75.9345 142.974 75.9345 141.615C75.9345 140.255 72.9962 139.153 69.3716 139.153C65.7469 139.153 62.8086 140.255 62.8086 141.615C62.8086 142.974 65.7469 144.076 69.3716 144.076Z"/><path fill="#fff" d="M59.526 109.616C64.4193 109.616 68.386 105.649 68.386 100.755C68.386 95.8608 64.4193 91.8936 59.526 91.8936C54.6328 91.8936 50.666 95.8608 50.666 100.755C50.666 105.649 54.6328 109.616 59.526 109.616Z"/><path fill="#3F3D56" d="M59.5276 103.708C61.1586 103.708 62.4809 102.386 62.4809 100.755C62.4809 99.1235 61.1586 97.801 59.5276 97.801C57.8965 97.801 56.5742 99.1235 56.5742 100.755C56.5742 102.386 57.8965 103.708 59.5276 103.708Z"/><path fill="#F8BBD0" d="M33.7231 83.2072C31.6299 73.8315 38.3211 64.3579 48.6683 62.0471C59.0155 59.7364 69.1004 65.4636 71.1937 74.8392C73.2869 84.2148 66.4294 87.6727 56.0822 89.9835C45.735 92.2942 35.8163 92.5828 33.7231 83.2072Z"/><path fill="#283593" d="M86.6339 89.1929C89.1897 82.5052 89.5599 76.4332 87.4607 75.6308C85.3615 74.8283 81.5879 79.5992 79.032 86.2869C76.4762 92.9747 76.106 99.0466 78.2052 99.8491C80.3044 100.652 84.0781 95.8806 86.6339 89.1929Z"/><path fill="#283593" d="M41.3833 100.844C42.3464 98.8127 37.8837 94.6793 31.4157 91.6112C24.9476 88.5431 18.9236 87.7022 17.9605 89.733C16.9975 91.7638 21.4602 95.8972 27.9282 98.9653C34.3962 102.033 40.4203 102.874 41.3833 100.844Z"/><path fill="#fff" d="M46.1367 116.672C46.1367 119.21 52.6697 124.22 59.9189 124.22C67.1682 124.22 73.9652 117.076 73.9652 114.539C73.9652 112.001 67.1682 115.031 59.9189 115.031C52.6697 115.031 46.1367 114.134 46.1367 116.672Z"/><path stroke="#3F3D56" stroke-miterlimit="10" stroke-width="2" d="M169.128 36.7574H93.6543V75.1558H169.128V36.7574Z"/><path stroke="#3F3D56" stroke-miterlimit="10" stroke-width="2" d="M204.567 0.328247H192.754V12.1431H204.567V0.328247Z"/><path fill="#EBEBEB" d="M346.001 177.321C346.001 204.176 330.038 213.553 310.347 213.553C290.656 213.553 274.693 204.176 274.693 177.321C274.693 150.466 310.347 116.302 310.347 116.302C310.347 116.302 346.001 150.466 346.001 177.321Z"/><path fill="#000" d="M309.047 209.445L309.412 186.969L324.608 159.164L309.469 183.444L309.633 173.338L320.107 153.221L309.677 170.663V170.664L309.972 152.488L321.187 136.472L310.018 149.63L310.203 116.302L309.044 160.422L309.139 158.602L297.736 141.146L308.956 162.096L307.894 182.395L307.862 181.856L294.717 163.486L307.822 183.759L307.689 186.298L307.666 186.336L307.676 186.545L304.981 238.045H308.582L309.014 211.444L322.088 191.221L309.047 209.445Z"/><path fill="#000" d="M306.512 241.718C313.359 241.718 318.909 240.073 318.909 238.044C318.909 236.015 313.359 234.371 306.512 234.371C299.666 234.371 294.115 236.015 294.115 238.044C294.115 240.073 299.666 241.718 306.512 241.718Z"/><path fill="#000" d="M250.9 258C281.71 258 306.686 254.602 306.686 250.41C306.686 246.218 281.71 242.82 250.9 242.82C220.091 242.82 195.115 246.218 195.115 250.41C195.115 254.602 220.091 258 250.9 258Z"/><path fill="#283593" d="M251.556 237.446C265.874 237.446 277.48 225.838 277.48 211.519C277.48 197.2 265.874 185.592 251.556 185.592C237.239 185.592 225.633 197.2 225.633 211.519C225.633 225.838 237.239 237.446 251.556 237.446Z"/><path fill="#283593" d="M255.496 245.979H263.371V231.867H255.496V245.979Z"/><path fill="#283593" d="M239.744 245.979H247.619V231.867H239.744V245.979Z"/><path fill="#283593" d="M243.272 249.588C246.411 247.775 248.405 245.351 247.725 244.174C247.045 242.997 243.95 243.512 240.811 245.324C237.672 247.137 235.678 249.561 236.358 250.738C237.037 251.915 240.133 251.4 243.272 249.588Z"/><path fill="#283593" d="M258.696 249.588C261.835 247.775 263.828 245.351 263.149 244.174C262.469 242.997 259.373 243.512 256.234 245.324C253.095 247.137 251.102 249.561 251.781 250.738C252.461 251.915 255.557 251.4 258.696 249.588Z"/><path fill="#fff" d="M250.901 213.817C255.794 213.817 259.761 209.849 259.761 204.955C259.761 200.062 255.794 196.094 250.901 196.094C246.008 196.094 242.041 200.062 242.041 204.955C242.041 209.849 246.008 213.817 250.901 213.817Z"/><path fill="#3F3D56" d="M247.883 204.135C249.514 204.135 250.836 202.813 250.836 201.181C250.836 199.55 249.514 198.228 247.883 198.228C246.252 198.228 244.93 199.55 244.93 201.181C244.93 202.813 246.252 204.135 247.883 204.135Z"/><path fill="#F8BBD0" d="M276.704 187.408C278.798 178.032 272.106 168.558 261.759 166.248C251.412 163.937 241.327 169.664 239.234 179.04C237.141 188.415 243.998 191.873 254.345 194.184C264.692 196.495 274.611 196.783 276.704 187.408Z"/><path fill="#283593" d="M240.762 207.708C241.646 205.641 237.028 201.682 230.447 198.865C223.865 196.048 217.814 195.439 216.929 197.506C216.045 199.572 220.663 203.531 227.244 206.348C233.826 209.165 239.877 209.774 240.762 207.708Z"/><path fill="#283593" d="M289.326 225.102C290.21 223.035 285.592 219.077 279.011 216.259C272.43 213.442 266.378 212.834 265.494 214.9C264.609 216.966 269.228 220.925 275.809 223.742C282.39 226.559 288.442 227.168 289.326 225.102Z"/><path fill="#FF6584" d="M219.663 187.069H207.85V198.884H219.663V187.069Z"/><path stroke="#3F3D56" stroke-miterlimit="10" stroke-width="2" d="M207.192 166.065H195.379V177.88H207.192V166.065Z"/><path fill="#fff" d="M256.743 222.842C256.743 224.409 256.121 225.911 255.013 227.019C253.905 228.127 252.403 228.749 250.836 228.749C249.27 228.749 247.767 228.127 246.66 227.019C245.552 225.911 244.93 224.409 244.93 222.842C244.93 219.579 247.574 218.904 250.836 218.904C254.099 218.904 256.743 219.579 256.743 222.842Z"/></g><defs><clipPath id="clip0"><rect width="346" height="258" fill="#fff"/></clipPath></defs></svg>