<svg width="1440" height="650" viewBox="0 0 1440 650" fill="none" xmlns="http://www.w3.org/2000/svg">
<path fill-rule="evenodd" clip-rule="evenodd" d="M778.876 650C750.539 548.955 735 439.125 735 324.29C735 209.993 750.394 100.654 778.479 0H1440V650H778.876Z" fill="#283593"/>
<g clip-path="url(#clip0)">
<path d="M1068.96 496.713L1068.22 495.941C1068.37 495.799 1083 481.482 1088.57 454.727C1093.72 430.021 1091.98 389.344 1054.45 335.867C1038.77 313.523 1028.08 292.412 1022.67 273.121C1018.25 257.358 1017.31 242.705 1019.89 229.568C1024.98 203.596 1042.27 192.194 1042.45 192.082L1043.03 192.982C1042.86 193.092 1025.92 204.281 1020.93 229.808C1015.21 259.095 1026.78 294.572 1055.33 335.251C1072 359.006 1083.1 382.266 1088.32 404.388C1092.49 422.108 1092.93 439.142 1089.61 455.014C1083.95 482.068 1069.11 496.57 1068.96 496.713Z" fill="#F2F2F2"/>
<path d="M1032.95 251.902C1055.88 251.902 1074.47 233.326 1074.47 210.411C1074.47 187.496 1055.88 168.919 1032.95 168.919C1010.02 168.919 991.428 187.496 991.428 210.411C991.428 233.326 1010.02 251.902 1032.95 251.902Z" fill="#F2F2F2"/>
<path d="M1042.74 249.065C1031.55 249.065 1020.61 245.749 1011.31 239.537C1002 233.326 994.754 224.497 990.472 214.167C986.19 203.837 985.069 192.47 987.252 181.504C989.435 170.537 994.823 160.464 1002.74 152.558C1010.65 144.652 1020.73 139.268 1031.7 137.086C1042.68 134.905 1054.05 136.024 1064.39 140.303C1074.73 144.582 1083.56 151.828 1089.78 161.125C1096 170.421 1099.31 181.351 1099.31 192.532C1099.3 207.52 1093.33 221.89 1082.73 232.488C1072.12 243.086 1057.74 249.048 1042.74 249.065V249.065ZM1042.74 137.072C1031.76 137.072 1021.03 140.325 1011.9 146.419C1002.78 152.513 995.663 161.174 991.463 171.309C987.262 181.443 986.163 192.594 988.304 203.352C990.446 214.111 995.732 223.993 1003.49 231.749C1011.26 239.505 1021.15 244.787 1031.91 246.927C1042.68 249.067 1053.84 247.969 1063.98 243.771C1074.12 239.574 1082.79 232.465 1088.89 223.345C1094.99 214.224 1098.24 203.501 1098.24 192.532C1098.22 177.828 1092.37 163.732 1081.97 153.334C1071.56 142.937 1057.45 137.089 1042.74 137.072Z" fill="#F2F2F2"/>
<path d="M1074.47 338.933C1093.49 338.933 1108.91 323.528 1108.91 304.525C1108.91 285.522 1093.49 270.118 1074.47 270.118C1055.46 270.118 1040.04 285.522 1040.04 304.525C1040.04 323.528 1055.46 338.933 1074.47 338.933Z" fill="#F2F2F2"/>
<path d="M1056.92 458.347C1075.93 458.347 1091.35 442.942 1091.35 423.939C1091.35 404.936 1075.93 389.532 1056.92 389.532C1037.9 389.532 1022.48 404.936 1022.48 423.939C1022.48 442.942 1037.9 458.347 1056.92 458.347Z" fill="#F2F2F2"/>
<path d="M1201.47 197.1H1075.43V279.103H1201.47V197.1Z" fill="#F8BBD0"/>
<path d="M1369.65 496.704H1252.92C1252.92 496.704 1250.55 462.025 1264.55 461.631C1278.55 461.237 1276.97 477 1294.52 455.326C1312.07 433.651 1333.37 434.834 1336.13 447.641C1338.89 460.449 1330.81 470.695 1345.6 467.542C1360.39 464.39 1381.68 472.665 1369.65 496.704Z" fill="#F2F2F2"/>
<path d="M1309.32 496.712L1308.92 496.696C1309.84 473.864 1314.63 459.194 1318.48 450.908C1322.66 441.911 1326.69 438.269 1326.73 438.233L1326.99 438.527C1326.95 438.563 1322.97 442.169 1318.82 451.105C1314.99 459.356 1310.23 473.966 1309.32 496.712Z" fill="white"/>
<path d="M1351.56 496.759L1351.19 496.649C1354.12 486.972 1359.41 478.174 1366.59 471.043L1366.85 471.335C1359.73 478.417 1354.48 487.152 1351.56 496.759V496.759Z" fill="white"/>
<path d="M1271.3 496.732L1270.91 496.677C1272.19 488.117 1270.84 479.372 1267.05 471.59C1265.5 468.326 1263.44 465.326 1260.95 462.7L1261.23 462.416C1263.74 465.074 1265.83 468.111 1267.4 471.416C1271.23 479.269 1272.59 488.093 1271.3 496.732V496.732Z" fill="white"/>
<path d="M837.88 496.592L837.61 496.039C837.528 495.871 829.464 479.026 833.96 462.417C838.457 445.808 853.92 435.323 854.075 435.219L854.586 434.877L854.856 435.43C854.938 435.598 863.002 452.443 858.505 469.052C854.009 485.661 838.546 496.147 838.391 496.25L837.88 496.592ZM854.154 436.476C851.447 438.444 838.922 448.194 834.996 462.697C831.067 477.211 836.967 491.931 838.312 494.993C841.019 493.025 853.544 483.276 857.47 468.773C861.399 454.258 855.499 439.538 854.154 436.476Z" fill="black"/>
<path d="M817.087 468.913C821.583 485.52 836.983 495.805 836.983 495.805C836.983 495.805 845.093 479.165 840.597 462.557C836.101 445.95 820.701 435.665 820.701 435.665C820.701 435.665 812.591 452.305 817.087 468.913Z" fill="#F8BBD0"/>
<path d="M838.122 496.359L837.508 496.326C837.321 496.316 818.67 495.167 806.331 483.165C793.993 471.164 792.343 452.563 792.327 452.377L792.277 451.765L792.891 451.798C793.078 451.808 811.73 452.957 824.068 464.959C836.406 476.961 838.057 495.56 838.072 495.747L838.122 496.359ZM793.465 452.92C793.87 456.24 796.306 471.917 807.08 482.397C817.854 492.877 833.601 494.889 836.934 495.204C836.529 491.883 834.094 476.207 823.319 465.727C812.538 455.238 796.797 453.233 793.465 452.92Z" fill="black"/>
<path d="M851.381 465.343C839.044 477.343 837.538 495.791 837.538 495.791C837.538 495.791 856.033 494.782 868.369 482.781C880.706 470.781 882.213 452.333 882.213 452.333C882.213 452.333 863.718 453.343 851.381 465.343Z" fill="black"/>
<path d="M951.682 361.366C939.345 373.366 937.838 391.814 937.838 391.814C937.838 391.814 956.333 390.805 968.67 378.804C981.007 366.804 982.513 348.356 982.513 348.356C982.513 348.356 964.018 349.366 951.682 361.366Z" fill="black"/>
<path d="M837.28 432.925C841.724 432.925 845.326 429.325 845.326 424.885C845.326 420.445 841.724 416.846 837.28 416.846C832.837 416.846 829.235 420.445 829.235 424.885C829.235 429.325 832.837 432.925 837.28 432.925Z" fill="#F8BBD0"/>
<path d="M934.889 496.178L934.145 495.405C934.262 495.293 945.867 483.933 950.288 462.707C954.37 443.103 952.984 410.825 923.196 368.381C900.35 335.828 891.104 307.388 895.717 283.85C899.769 263.171 913.551 254.087 913.69 253.998L914.271 254.899C914.136 254.986 900.716 263.856 896.763 284.089C892.225 307.324 901.413 335.477 924.074 367.765C937.326 386.648 946.148 405.14 950.295 422.727C953.618 436.821 953.964 450.368 951.324 462.994C946.821 484.519 935.007 496.064 934.889 496.178Z" fill="black"/>
<path d="M929.535 280.71C982.855 280.71 1026.08 273.3 1026.08 264.16C1026.08 255.019 982.855 247.609 929.535 247.609C876.214 247.609 832.989 255.019 832.989 264.16C832.989 273.3 876.214 280.71 929.535 280.71Z" fill="#F8BBD0"/>
<path d="M911.566 275.887C844.646 275.887 792.226 266.705 792.226 254.984C792.226 243.263 844.646 234.082 911.566 234.082C978.486 234.082 1030.91 243.263 1030.91 254.984C1030.91 266.705 978.486 275.887 911.566 275.887ZM911.566 235.153C847.458 235.153 793.298 244.235 793.298 254.984C793.298 265.734 847.458 274.815 911.566 274.815C975.675 274.815 1029.83 265.734 1029.83 254.984C1029.83 244.235 975.675 235.153 911.566 235.153Z" fill="black"/>
<path d="M938.686 173.755C938.686 173.755 924.379 169.728 920.147 189.26C915.916 208.791 919.14 218.657 919.14 218.657L951.078 214.932C951.078 214.932 960.146 179.695 938.686 173.755Z" fill="black"/>
<path d="M917.281 258.35C917.281 258.35 896.295 260.439 900.033 268.905C903.771 277.371 903.771 278.118 903.771 278.118L922.211 310.986L928.191 304.761C928.191 304.761 921.463 290.07 921.463 285.339C921.463 280.608 914.486 272.391 914.486 272.391L926.696 271.395L917.281 258.35Z" fill="#A0616A"/>
<path d="M974.789 268.407L981.767 283.596C981.767 283.596 987 288.825 992.731 309.741C998.462 330.657 999.708 329.91 999.708 329.91L990.987 331.653C990.987 331.653 981.268 308.994 978.029 307.251C974.789 305.508 970.802 289.572 970.802 289.572L959.34 275.13L962.828 267.411L974.789 268.407Z" fill="#A0616A"/>
<path d="M966.317 250.977L977.032 270.897C977.032 270.897 963.576 264.672 961.582 278.367L949.372 268.905C949.372 268.905 932.427 274.383 922.211 272.391C922.211 272.391 925.201 262.929 914.486 258.696L938.657 255.708L937.66 250.479L940.152 245.499L966.317 250.977Z" fill="black"/>
<path d="M923.706 306.504C923.706 306.504 916.978 305.508 918.722 311.484L922.21 323.436C922.21 323.436 917.725 335.637 924.702 332.898C931.68 330.159 936.165 313.227 936.165 313.227C936.165 313.227 939.155 300.279 936.165 300.279C933.175 300.279 923.706 298.287 924.702 300.279C925.699 302.271 923.706 306.504 923.706 306.504Z" fill="#2F2E41"/>
<path d="M998.96 326.424C998.96 326.424 990.239 324.183 988.245 327.669C986.252 331.155 986.75 342.609 986.75 342.858C986.75 343.107 989.74 345.597 990.737 345.597C991.734 345.597 997.964 356.802 1006.44 352.818C1014.91 348.834 998.96 326.424 998.96 326.424Z" fill="#2F2E41"/>
<path d="M936.165 204.164C941.532 204.164 945.883 199.816 945.883 194.453C945.883 189.09 941.532 184.742 936.165 184.742C930.798 184.742 926.447 189.09 926.447 194.453C926.447 199.816 930.798 204.164 936.165 204.164Z" fill="#A0616A"/>
<path d="M944.139 196.445C944.139 196.445 946.133 206.903 947.877 208.397C949.622 209.891 934.67 212.132 934.67 212.132C934.67 212.132 936.913 204.911 934.172 201.176C931.431 197.441 944.139 196.445 944.139 196.445Z" fill="#A0616A"/>
<path d="M970.304 255.708C968.607 255.708 964.286 255.005 959.442 254.101C955.25 253.32 950.663 252.391 947.045 251.639C943.17 250.832 940.401 250.229 940.401 250.229C940.401 250.229 939.405 256.455 936.165 255.708C933.374 255.065 925.034 225.954 922.779 217.909C922.614 217.322 922.646 216.696 922.869 216.129C923.093 215.561 923.496 215.082 924.017 214.764L935.472 207.775L938.408 208.895C938.408 208.895 943.367 205.065 946.245 204.988C949.123 204.911 954.107 204.164 954.107 204.164C954.107 204.164 959.838 204.662 960.835 208.895C961.831 213.128 962.33 239.522 966.068 244.253C969.805 248.984 975.038 255.708 970.304 255.708Z" fill="#D0CDE1"/>
<path d="M935.417 269.652C935.417 269.652 935.417 279.363 941.896 277.869C948.375 276.375 942.395 267.411 942.395 267.411L935.417 269.652Z" fill="#A0616A"/>
<path d="M953.359 270.648C953.359 270.648 951.117 282.102 946.382 280.359C941.648 278.616 946.382 268.407 946.382 268.407L953.359 270.648Z" fill="#A0616A"/>
<path opacity="0.15" d="M963.825 243.507C963.825 243.507 961.386 249.323 959.442 254.102C955.251 253.32 950.663 252.391 947.045 251.639C947.305 250.951 947.67 250.308 948.126 249.732C949.871 247.74 948.874 247.242 948.874 247.242C947.379 244.254 948.625 240.269 948.625 240.269C945.635 232.301 950.12 222.341 950.12 222.341L963.825 243.507Z" fill="black"/>
<path d="M950.867 222.342C950.867 222.342 946.382 232.302 949.372 240.27C949.372 240.27 948.126 244.254 949.621 247.242C949.621 247.242 950.618 247.74 948.874 249.732C947.13 251.724 945.634 258.696 946.88 260.19C948.126 261.684 945.136 264.423 945.884 265.917C946.631 267.411 944.638 269.403 944.638 269.403C944.638 269.403 952.113 270.897 953.359 273.138C953.359 273.138 954.854 271.395 954.107 269.403C953.359 267.411 953.858 266.664 954.605 265.419C955.353 264.174 957.595 261.435 957.845 260.19C958.094 258.945 964.573 243.507 964.573 243.507L961.534 215.373L950.867 222.342Z" fill="#D0CDE1"/>
<path d="M924.952 215.369L924.486 215.454C923.837 215.571 923.25 215.914 922.829 216.422C922.408 216.929 922.18 217.569 922.185 218.228C922.203 220.728 922.344 225.165 922.958 231.305C923.955 241.265 927.444 256.206 928.191 257.7C929.378 260.343 930.709 262.92 932.178 265.419C934.421 269.154 934.919 267.909 934.421 269.652C934.269 270.132 934.259 270.645 934.392 271.131C934.524 271.617 934.794 272.054 935.169 272.391C935.169 272.391 939.654 267.411 944.139 270.15C944.46 269.446 944.63 268.682 944.638 267.909C944.638 266.664 945.385 265.419 944.139 264.672C942.893 263.925 944.887 260.688 942.893 258.945C940.9 257.202 940.651 257.451 940.9 255.708C941.016 254.522 940.845 253.327 940.401 252.221L924.952 215.369Z" fill="#D0CDE1"/>
<path d="M939.798 181.979C939.798 181.979 935.768 192.65 925.895 197.08L924.283 187.616L939.798 181.979Z" fill="black"/>
<path d="M945.635 193.333C946.392 193.333 947.005 192.162 947.005 190.718C947.005 189.274 946.392 188.104 945.635 188.104C944.878 188.104 944.264 189.274 944.264 190.718C944.264 192.162 944.878 193.333 945.635 193.333Z" fill="#A0616A"/>
<path d="M1227.43 328.337C1237.04 328.337 1244.83 320.549 1244.83 310.942C1244.83 301.336 1237.04 293.548 1227.43 293.548C1217.81 293.548 1210.02 301.336 1210.02 310.942C1210.02 320.549 1217.81 328.337 1227.43 328.337Z" fill="black"/>
<path d="M1225.1 293.874C1228.3 293.874 1230.88 291.287 1230.88 288.096C1230.88 284.905 1228.3 282.318 1225.1 282.318C1221.91 282.318 1219.32 284.905 1219.32 288.096C1219.32 291.287 1221.91 293.874 1225.1 293.874Z" fill="black"/>
<path d="M1218.6 291.675C1217.7 290.554 1217.26 289.142 1217.35 287.713C1217.44 286.284 1218.06 284.94 1219.09 283.941C1218.93 284.045 1218.77 284.158 1218.62 284.279C1218.02 284.751 1217.53 285.336 1217.16 285.999C1216.79 286.662 1216.55 287.392 1216.47 288.146C1216.38 288.899 1216.44 289.663 1216.65 290.392C1216.86 291.122 1217.21 291.803 1217.69 292.397C1218.16 292.991 1218.74 293.487 1219.41 293.855C1220.07 294.223 1220.8 294.457 1221.55 294.544C1222.31 294.63 1223.07 294.567 1223.8 294.359C1224.53 294.15 1225.21 293.8 1225.81 293.328C1225.96 293.206 1226.11 293.078 1226.25 292.943C1225.04 293.717 1223.59 294.015 1222.18 293.781C1220.76 293.546 1219.49 292.796 1218.6 291.675V291.675Z" fill="black"/>
<path d="M1198.92 373.845L1188.84 382.364C1188.84 382.364 1173.73 387.011 1181.09 392.044C1188.45 397.078 1192.72 385.849 1192.72 385.849L1205.12 378.105L1198.92 373.845Z" fill="#FFB9B9"/>
<path d="M1220.62 336.672L1219.45 335.898C1219.45 335.898 1214.8 335.898 1214.03 340.545C1213.25 345.191 1210.93 354.872 1210.93 354.872C1210.93 354.872 1203.18 359.518 1203.95 368.037L1195.81 375.007C1195.81 375.007 1205.5 378.105 1203.57 380.815L1217.9 367.65L1218.29 342.481L1220.62 336.672Z" fill="black"/>
<path d="M1225.27 327.767C1230.83 327.767 1235.34 323.259 1235.34 317.699C1235.34 312.139 1230.83 307.631 1225.27 307.631C1219.7 307.631 1215.19 312.139 1215.19 317.699C1215.19 323.259 1219.7 327.767 1225.27 327.767Z" fill="#FFB9B9"/>
<path d="M1222.17 324.669C1222.17 324.669 1228.37 331.639 1224.49 335.511C1220.62 339.383 1219.45 358.357 1219.45 358.357L1236.5 332.413C1236.5 332.413 1231.85 323.12 1232.24 320.022L1222.17 324.669Z" fill="#FFB9B9"/>
<path d="M1221 351.774C1221 351.774 1230.3 331.362 1235.34 329.952L1248.52 333.187C1248.52 333.187 1238.05 369.199 1239.22 372.684C1240.38 376.169 1246.97 381.203 1244.64 411.793C1244.64 411.793 1274.48 466.391 1267.12 475.684C1259.75 484.977 1232.24 491.947 1231.85 489.236C1231.47 486.526 1219.07 444.706 1221 431.928C1221 431.928 1221 487.3 1218.68 488.462C1216.35 489.624 1179.15 498.142 1180.31 491.56C1181.48 484.977 1200.08 412.567 1200.08 412.567L1214.42 367.65L1214.8 361.067C1214.8 361.067 1208.6 356.808 1213.25 347.127C1217.9 337.447 1219.45 335.898 1219.45 335.898L1225.04 334.851C1225.04 334.851 1219.84 349.063 1221 351.774Z" fill="black"/>
<path d="M1241.93 380.815L1237.28 390.883C1237.28 390.883 1225.27 403.661 1233.79 404.049C1242.32 404.436 1243.09 392.432 1243.09 392.432L1249.29 380.815H1241.93Z" fill="#FFB9B9"/>
<path d="M1243.48 333.575H1248.52C1248.52 333.575 1250.07 331.252 1251.62 340.932C1253.17 350.613 1252.39 365.327 1252.39 365.327L1250.07 384.688C1250.07 384.688 1241.93 381.59 1239.99 382.364C1238.05 383.139 1239.99 381.977 1239.99 381.977L1243.48 368.812L1239.22 349.838L1243.48 333.575Z" fill="black"/>
<path d="M1224.25 302.854C1217.66 304.64 1213.18 309.198 1214.22 313.035C1214.69 314.751 1216.18 316.028 1218.28 316.76L1220.13 314.476L1220.21 317.247C1220.5 317.297 1220.8 317.341 1221.1 317.374L1223.44 312.448L1224.78 317.356C1225.87 317.239 1226.96 317.035 1228.02 316.745C1234.6 314.958 1239.09 310.4 1238.05 306.564C1237.01 302.728 1230.83 301.067 1224.25 302.854Z" fill="black"/>
<path d="M1235.53 317.505C1236.18 317.505 1236.7 316.638 1236.7 315.569C1236.7 314.5 1236.18 313.633 1235.53 313.633C1234.89 313.633 1234.37 314.5 1234.37 315.569C1234.37 316.638 1234.89 317.505 1235.53 317.505Z" fill="#FFB9B9"/>
<path d="M1196.11 496.705C1201.14 496.705 1205.23 494.905 1205.23 492.685C1205.23 490.465 1201.14 488.665 1196.11 488.665C1191.07 488.665 1186.99 490.465 1186.99 492.685C1186.99 494.905 1191.07 496.705 1196.11 496.705Z" fill="#2F2E41"/>
<path d="M1245.6 494.79C1251.88 492.316 1256.1 488.078 1255.01 485.324C1253.92 482.57 1247.95 482.343 1241.67 484.818C1235.39 487.292 1231.17 491.53 1232.26 494.284C1233.35 497.038 1239.32 497.265 1245.6 494.79Z" fill="#2F2E41"/>
<path d="M1184.03 386.975C1183.87 386.936 1167.96 382.89 1161.91 366.82C1155.01 348.504 1163.12 322.674 1186.01 290.05C1213.98 250.203 1215.5 236.814 1211.85 232.599C1207.23 227.267 1192.74 234.487 1192.6 234.56L1192.11 233.603C1192.74 233.287 1207.49 225.936 1212.66 231.896C1218.33 238.447 1209.66 258.219 1186.89 290.666C1174.48 308.344 1166.38 324.213 1162.79 337.83C1159.88 348.87 1159.92 358.491 1162.9 366.426C1168.75 381.967 1184.13 385.896 1184.28 385.934L1184.03 386.975Z" fill="black"/>
<path d="M1192.89 266.239H1058.26V178.341H1192.89V266.239ZM1059.33 265.167H1191.82V179.413H1059.33V265.167Z" fill="black"/>
<path d="M1114.33 233.949C1117.45 233.949 1119.98 231.421 1119.98 228.303C1119.98 225.186 1117.45 222.658 1114.33 222.658C1111.21 222.658 1108.68 225.186 1108.68 228.303C1108.68 231.421 1111.21 233.949 1114.33 233.949Z" fill="black"/>
<path d="M1162.57 233.949C1165.69 233.949 1168.22 231.421 1168.22 228.303C1168.22 225.186 1165.69 222.658 1162.57 222.658C1159.45 222.658 1156.92 225.186 1156.92 228.303C1156.92 231.421 1159.45 233.949 1162.57 233.949Z" fill="black"/>
<path d="M1162.57 251.319C1162.57 252.997 1151.67 257.832 1138.23 257.832C1124.79 257.832 1113.9 252.997 1113.9 251.319C1113.9 249.64 1124.79 251.753 1138.23 251.753C1151.67 251.753 1162.57 249.64 1162.57 251.319Z" fill="black"/>
<path d="M1382 495.928H792V497H1382V495.928Z" fill="#3F3D56"/>
</g>
<defs>
<clipPath id="clip0">
<rect width="590" height="361" fill="white" transform="translate(792 136)"/>
</clipPath>
</defs>
</svg>
