<svg width="145" height="135" viewBox="0 0 145 135" fill="none" xmlns="http://www.w3.org/2000/svg">
<path d="M1 0V134H135" stroke="black" stroke-width="2"/>
<circle cx="115.5" cy="35.5" r="3" stroke="#F8BBD0"/>
<circle cx="95.5" cy="45.5" r="3" stroke="#F8BBD0"/>
<circle cx="91.5" cy="12.5" r="3" stroke="#F8BBD0"/>
<circle cx="72.5" cy="32.5" r="3" stroke="#F8BBD0"/>
<circle cx="122.5" cy="81.5" r="3" stroke="#F8BBD0"/>
<circle cx="94.5" cy="61.5" r="3" stroke="#F8BBD0"/>
<circle cx="126.5" cy="95.5" r="3" stroke="#F8BBD0"/>
<circle cx="108.5" cy="60.5" r="3" stroke="#F8BBD0"/>
<circle cx="63.5" cy="59.5" r="3" fill="#F8BBD0" stroke="#F8BBD0"/>
<circle cx="47.5" cy="19.5" r="3" stroke="#F8BBD0"/>
<circle cx="55.5" cy="39.5" r="3" stroke="#F8BBD0"/>
<circle cx="95.5" cy="87.5" r="3" fill="#F8BBD0" stroke="#F8BBD0"/>
<rect x="-0.5" y="0.5" width="7" height="7" transform="matrix(-1 0 0 1 69 84)" fill="#CECECE" stroke="#CECECE"/>
<rect x="-0.5" y="0.5" width="7" height="7" transform="matrix(-1 0 0 1 55 108)" stroke="#CECECE"/>
<rect x="-0.5" y="0.5" width="7" height="7" transform="matrix(-1 0 0 1 98 120)" stroke="#CECECE"/>
<rect x="-0.5" y="0.5" width="7" height="7" transform="matrix(-1 0 0 1 37 92)" stroke="#CECECE"/>
<rect x="-0.5" y="0.5" width="7" height="7" transform="matrix(-1 0 0 1 77 116)" stroke="#CECECE"/>
<rect x="-0.5" y="0.5" width="7" height="7" transform="matrix(-1 0 0 1 22 116)" stroke="#CECECE"/>
<rect x="-0.5" y="0.5" width="7" height="7" transform="matrix(-1 0 0 1 14 84)" stroke="#CECECE"/>
<rect x="-0.5" y="0.5" width="7" height="7" transform="matrix(-1 0 0 1 18 57)" stroke="#CECECE"/>
<path d="M3.5 19C8.3 21.8 89.8333 94.1667 130 130" stroke="#283593" stroke-width="2"/>
<path d="M3.29297 6L145 130.5H114L3.29297 31V6Z" fill="#283593" fill-opacity="0.25"/>
</svg>
