<svg xmlns="http://www.w3.org/2000/svg" width="145" height="135" fill="none" viewBox="0 0 145 135"><path stroke="#000" stroke-width="2" d="M1 0V134H135"/><circle cx="115.5" cy="35.5" r="3" stroke="#F8BBD0"/><circle cx="95.5" cy="45.5" r="3" stroke="#F8BBD0"/><circle cx="91.5" cy="12.5" r="3" stroke="#F8BBD0"/><circle cx="72.5" cy="32.5" r="3" stroke="#F8BBD0"/><circle cx="122.5" cy="81.5" r="3" stroke="#F8BBD0"/><circle cx="94.5" cy="61.5" r="3" stroke="#F8BBD0"/><circle cx="126.5" cy="95.5" r="3" stroke="#F8BBD0"/><circle cx="108.5" cy="60.5" r="3" stroke="#F8BBD0"/><circle cx="63.5" cy="59.5" r="3" fill="#F8BBD0" stroke="#F8BBD0"/><circle cx="47.5" cy="19.5" r="3" stroke="#F8BBD0"/><circle cx="55.5" cy="39.5" r="3" stroke="#F8BBD0"/><circle cx="95.5" cy="87.5" r="3" fill="#F8BBD0" stroke="#F8BBD0"/><rect width="7" height="7" x="-.5" y=".5" fill="#CECECE" stroke="#CECECE" transform="matrix(-1 0 0 1 69 84)"/><rect width="7" height="7" x="-.5" y=".5" stroke="#CECECE" transform="matrix(-1 0 0 1 55 108)"/><rect width="7" height="7" x="-.5" y=".5" stroke="#CECECE" transform="matrix(-1 0 0 1 98 120)"/><rect width="7" height="7" x="-.5" y=".5" stroke="#CECECE" transform="matrix(-1 0 0 1 37 92)"/><rect width="7" height="7" x="-.5" y=".5" stroke="#CECECE" transform="matrix(-1 0 0 1 77 116)"/><rect width="7" height="7" x="-.5" y=".5" stroke="#CECECE" transform="matrix(-1 0 0 1 22 116)"/><rect width="7" height="7" x="-.5" y=".5" stroke="#CECECE" transform="matrix(-1 0 0 1 14 84)"/><rect width="7" height="7" x="-.5" y=".5" stroke="#CECECE" transform="matrix(-1 0 0 1 18 57)"/><path stroke="#283593" stroke-width="2" d="M3.5 19C8.3 21.8 89.8333 94.1667 130 130"/><path fill="#283593" fill-opacity=".25" d="M3.29297 6L145 130.5H114L3.29297 31V6Z"/></svg>