<svg xmlns="http://www.w3.org/2000/svg" width="1440" height="381" fill="none" viewBox="0 0 1440 381"><path fill="#283593" fill-rule="evenodd" d="M580.476 381C605.356 321.772 619 257.395 619 190.084C619 123.088 605.484 58.9986 580.825 0H0V381H580.476Z" clip-rule="evenodd"/><path fill="#F2F2F2" d="M293.202 69L242.397 96.532C243.266 98.0284 243.825 99.684 244.043 101.401C244.26 103.117 244.131 104.86 243.663 106.526C243.195 108.192 242.397 109.747 241.317 111.099C240.238 112.451 238.898 113.572 237.377 114.396C235.856 115.22 234.185 115.731 232.463 115.897C230.742 116.063 229.004 115.882 227.354 115.365C225.703 114.847 224.174 114.003 222.855 112.883C221.537 111.762 220.456 110.389 219.678 108.843L202.355 118.231L247.228 201.113L338.074 151.882L293.202 69Z"/><path fill="#F8BBD0" d="M230.448 113.519C236.241 113.519 240.937 108.821 240.937 103.025C240.937 97.2302 236.241 92.5322 230.448 92.5322C224.656 92.5322 219.96 97.2302 219.96 103.025C219.96 108.821 224.656 113.519 230.448 113.519Z"/><path fill="#F2F2F2" d="M420.776 290.881L475.707 272.955C475.122 271.326 474.869 269.597 474.964 267.869C475.059 266.141 475.5 264.45 476.261 262.896C477.021 261.342 478.086 259.956 479.391 258.821C480.697 257.686 482.217 256.824 483.861 256.288C485.505 255.751 487.241 255.55 488.964 255.697C490.688 255.843 492.364 256.335 493.894 257.141C495.424 257.948 496.777 259.054 497.872 260.393C498.968 261.733 499.783 263.278 500.27 264.939L519 258.826L489.783 169.214L391.559 201.269L420.776 290.881Z"/><path fill="#F8BBD0" d="M488.629 279.214C494.421 279.214 499.117 274.516 499.117 268.721C499.117 262.926 494.421 258.228 488.629 258.228C482.836 258.228 478.14 262.926 478.14 268.721C478.14 274.516 482.836 279.214 488.629 279.214Z"/><path fill="#000" d="M490.793 118.163H237.174V233.44H490.793V118.163Z"/><path fill="#fff" d="M486.609 122.349H241.358V227H486.609V122.349Z"/><path fill="#000" d="M461.665 222.009H437.848V230.059H461.665V222.009Z"/><path fill="#F8BBD0" d="M436.561 228.127H419.181V230.381H436.561V228.127Z"/><path stroke="#000" stroke-miterlimit="10" stroke-width="2" d="M261.313 161.955H354.972L369.492 169.033L392.628 180.31L407.755 151.973H450.562"/><path stroke="#000" stroke-miterlimit="10" stroke-width="2" d="M298.141 161.955L305.085 178.378H322.143"/><path stroke="#000" stroke-miterlimit="10" stroke-width="2" d="M324.173 161.955L347.891 149.075H364.627"/><path fill="#F8BBD0" d="M298.004 164.853C299.604 164.853 300.901 163.556 300.901 161.955C300.901 160.355 299.604 159.057 298.004 159.057C296.404 159.057 295.107 160.355 295.107 161.955C295.107 163.556 296.404 164.853 298.004 164.853Z"/><path fill="#F8BBD0" d="M325.039 164.853C326.639 164.853 327.936 163.556 327.936 161.955C327.936 160.355 326.639 159.057 325.039 159.057C323.439 159.057 322.143 160.355 322.143 161.955C322.143 163.556 323.439 164.853 325.039 164.853Z"/><path stroke="#000" stroke-miterlimit="10" stroke-width="2" d="M369.455 169.039L371.386 197.698H388.122"/><path stroke="#000" stroke-miterlimit="10" stroke-width="2" d="M401.688 163.338L383.294 149.075H400.674"/><path stroke="#000" stroke-miterlimit="10" stroke-width="2" d="M432.072 151.973L449.918 166.141H466.654"/><path fill="#283593" d="M369.455 171.937C371.055 171.937 372.351 170.64 372.351 169.039C372.351 167.439 371.055 166.141 369.455 166.141C367.855 166.141 366.558 167.439 366.558 169.039C366.558 170.64 367.855 171.937 369.455 171.937Z"/><path fill="#F8BBD0" d="M431.894 154.871C433.494 154.871 434.791 153.574 434.791 151.973C434.791 150.373 433.494 149.075 431.894 149.075C430.294 149.075 428.998 150.373 428.998 151.973C428.998 153.574 430.294 154.871 431.894 154.871Z"/><path fill="#283593" d="M401.64 166.141C403.24 166.141 404.537 164.844 404.537 163.243C404.537 161.643 403.24 160.345 401.64 160.345C400.04 160.345 398.743 161.643 398.743 163.243C398.743 164.844 400.04 166.141 401.64 166.141Z"/><path stroke="#000" stroke-miterlimit="10" stroke-width="2" d="M305.406 180.953H322.143"/><path stroke="#F8BBD0" stroke-miterlimit="10" stroke-width="2" d="M460.552 98.0722C463.175 98.0722 465.301 95.945 465.301 93.3209C465.301 90.6968 463.175 88.5695 460.552 88.5695C457.929 88.5695 455.803 90.6968 455.803 93.3209C455.803 95.945 457.929 98.0722 460.552 98.0722Z"/><path fill="#F8BBD0" d="M282.519 227.96L273.792 232.365L274.356 233.49L283.084 229.085L282.519 227.96Z"/><path fill="#FBBEBE" d="M281.1 219.766L280.708 222.119C280.708 222.119 281.296 238.399 276.983 233.299C272.67 228.2 275.611 221.335 275.611 221.335L276.787 219.373L281.1 219.766Z"/><path fill="#FBBEBE" d="M256.006 144.449C256.006 144.449 255.222 152.687 254.83 153.079C254.438 153.471 260.712 160.924 260.712 160.924L266.201 155.825C266.201 155.825 265.809 148.372 266.985 146.803C268.161 145.233 256.006 144.449 256.006 144.449Z"/><path fill="#000" d="M256.006 144.449C256.006 144.449 255.222 152.687 254.83 153.079C254.438 153.471 260.712 160.924 260.712 160.924L266.201 155.825C266.201 155.825 265.809 148.372 266.985 146.803C268.161 145.233 256.006 144.449 256.006 144.449Z" opacity=".1"/><path fill="#000" d="M241.499 294.69V301.751L238.755 302.144L234.834 300.967L236.01 293.513L241.499 294.69Z"/><path fill="#000" d="M237.97 298.221C237.97 298.221 236.794 295.083 234.833 295.475C232.873 295.867 232.481 298.221 232.481 298.221C232.481 298.221 230.913 304.105 228.56 306.066C226.207 308.028 223.855 313.127 228.56 313.912C233.265 314.696 237.186 312.735 237.186 312.343C237.186 311.951 238.362 309.597 240.323 309.205C242.283 308.812 243.852 308.42 243.852 306.851C243.852 305.282 242.675 303.713 242.675 303.713C242.675 303.713 242.283 296.272 241.499 297.246C240.957 298.016 240.558 298.878 240.323 299.79L237.97 298.221Z"/><path fill="#000" d="M258.359 291.16L256.791 297.044L260.712 297.829L262.672 295.867L263.064 290.768L258.359 291.16Z"/><path fill="#000" d="M257.967 296.259C257.967 296.259 259.535 295.083 260.319 295.083H261.496C261.496 295.083 261.496 292.337 263.456 292.337C265.417 292.337 265.024 294.298 265.024 294.298C265.024 294.298 269.337 300.967 270.514 302.144C271.69 303.32 277.963 306.851 272.866 308.42C267.769 309.989 264.24 309.989 261.888 307.243C261.888 307.243 259.535 306.066 257.967 306.066C256.398 306.066 254.438 305.282 254.438 304.105C254.438 302.928 255.614 300.575 255.614 300.575C255.614 300.575 256.398 293.514 256.791 294.298C257.183 295.083 257.967 296.259 257.967 296.259Z"/><path fill="#000" d="M241.107 200.937V213.882C241.107 213.882 236.794 238.987 236.794 247.225C236.794 255.463 230.128 294.69 233.265 295.475C236.402 296.26 243.852 297.436 244.244 296.26C244.636 295.083 247.38 257.816 247.772 257.424C248.165 257.032 256.398 226.042 256.398 226.042L257.967 226.434L258.751 261.739C258.751 261.739 254.83 293.514 256.791 293.514C258.751 293.514 266.985 293.121 266.985 290.768C266.985 288.414 271.298 244.871 271.298 244.871C271.298 244.871 276.395 210.351 274.435 206.821C272.474 203.29 272.474 201.329 272.474 201.329L241.107 200.937Z"/><path fill="#FBBEBE" d="M262.476 150.529C266.807 150.529 270.318 147.016 270.318 142.684C270.318 138.351 266.807 134.838 262.476 134.838C258.145 134.838 254.634 138.351 254.634 142.684C254.634 147.016 258.145 150.529 262.476 150.529Z"/><path fill="#F8BBD0" d="M260.711 156.217C260.711 156.217 255.81 152.098 255.418 150.529C255.418 150.529 252.87 153.079 252.87 153.471C252.87 153.863 241.891 155.04 239.146 158.178C236.402 161.317 234.049 167.985 234.049 167.985L240.715 180.538C240.715 180.538 241.107 187.599 241.107 188.384C241.107 189.168 239.147 201.721 239.931 202.113C240.715 202.506 248.557 206.428 255.222 205.644C261.888 204.859 268.553 203.682 270.514 203.682C272.474 203.682 274.043 204.467 274.043 203.682C274.043 202.898 272.866 201.329 272.866 200.544C272.866 199.76 272.474 197.798 272.474 196.622C272.474 195.445 271.69 193.483 271.69 191.914C271.69 190.345 280.316 169.162 280.316 169.162C280.316 169.162 279.924 162.494 273.65 159.355C267.377 156.217 266.593 155.04 266.593 155.04C266.593 155.04 266.471 152.687 266.14 152.687C265.809 152.687 264.632 156.217 261.496 156.609L260.711 156.217Z"/><path fill="#FBBEBE" d="M239.539 208.39L242.283 212.705L249.341 211.136L244.244 205.252L239.539 208.39Z"/><path fill="#F8BBD0" d="M277.963 166.024L280.316 169.162C280.316 169.162 285.021 191.914 284.237 200.152C283.453 208.39 282.668 214.666 282.668 214.666C282.668 214.666 284.237 220.55 283.061 220.55C281.884 220.55 274.827 220.943 274.827 219.766C274.827 218.589 275.611 211.136 275.611 211.136L273.65 193.876L269.337 187.991L277.963 166.024Z"/><path fill="#000" d="M257.15 138.875C257.63 138.671 258.186 138.836 258.701 138.749C259.305 138.647 259.846 138.199 260.457 138.256C260.746 138.309 261.027 138.401 261.293 138.527C261.426 138.59 261.571 138.625 261.718 138.63C261.865 138.635 262.012 138.611 262.149 138.558C262.215 138.527 262.273 138.483 262.319 138.427C262.365 138.372 262.398 138.306 262.416 138.236C262.434 138.166 262.436 138.093 262.422 138.022C262.408 137.952 262.378 137.885 262.335 137.827C262.852 137.781 263.34 137.571 263.728 137.227C263.805 137.146 263.895 137.079 263.994 137.027C264.109 136.997 264.229 136.991 264.347 137.009C264.464 137.028 264.577 137.07 264.677 137.134L265.574 137.547C265.776 137.619 265.954 137.746 266.087 137.914C266.194 138.081 266.215 138.305 266.366 138.432C266.559 138.595 266.847 138.515 267.099 138.531C267.327 138.553 267.54 138.659 267.696 138.827C267.852 138.996 267.94 139.216 267.945 139.446C267.941 139.709 267.846 140.032 268.054 140.193C268.175 140.287 268.346 140.272 268.488 140.329C268.854 140.478 268.856 140.989 268.802 141.381C268.747 141.774 268.774 142.291 269.151 142.412C269.417 142.497 269.688 142.316 269.964 142.275C270.38 142.214 270.765 142.475 271.135 142.674C271.505 142.873 271.997 143.007 272.318 142.736C272.617 142.483 272.598 142.02 272.516 141.638C272.398 141.089 272.204 140.559 271.94 140.064C271.843 139.918 271.785 139.749 271.773 139.574C271.796 139.451 271.844 139.334 271.915 139.231C271.986 139.127 272.078 139.04 272.185 138.975C272.639 138.616 273.16 138.255 273.307 137.695C273.415 137.285 273.294 136.851 273.303 136.427C273.315 135.91 273.52 135.396 273.424 134.888C273.249 133.968 272.225 133.525 271.565 132.861C270.656 131.949 270.362 130.491 269.29 129.779C268.432 129.209 267.311 129.277 266.335 128.951C265.262 128.593 264.399 127.77 263.341 127.371C262.763 127.158 262.146 127.075 261.533 127.129C260.92 127.183 260.326 127.372 259.794 127.682C259.479 127.916 259.126 128.096 258.752 128.215C258.436 128.252 258.117 128.248 257.803 128.204C257.177 128.172 256.554 128.3 255.993 128.578C255.778 128.664 255.599 128.821 255.486 129.023C255.296 129.443 255.571 130.101 255.156 130.303C254.963 130.397 254.734 130.307 254.519 130.311C254.101 130.321 253.779 130.685 253.58 131.053C253.425 131.442 253.202 131.8 252.922 132.112C252.411 132.56 251.482 132.634 251.349 133.301C251.346 133.583 251.362 133.865 251.397 134.145C251.358 134.736 250.726 135.185 250.759 135.776C250.797 136.457 251.663 136.79 251.895 137.433C252.071 137.922 251.839 138.451 251.679 138.946C251.52 139.44 251.472 140.075 251.884 140.391C252.045 140.516 252.253 140.566 252.418 140.686C252.844 140.997 252.839 141.623 252.792 142.148C252.764 142.257 252.764 142.371 252.791 142.481C252.818 142.59 252.871 142.691 252.946 142.774C253.017 142.817 253.096 142.844 253.177 142.854C253.259 142.864 253.342 142.856 253.42 142.831C253.676 142.769 253.917 142.655 254.128 142.497C254.338 142.338 254.514 142.138 254.645 141.91C254.782 141.682 254.81 141.482 255.059 141.362C255.228 141.28 255.434 141.353 255.606 141.247C256.426 140.742 256.144 139.301 257.15 138.875Z"/><path fill="#F8BBD0" d="M235.226 166.808L234.049 167.985C234.049 167.985 226.992 189.168 229.344 193.876C231.697 198.583 236.402 210.351 237.97 209.959C239.539 209.567 245.028 206.036 245.028 205.644C245.028 205.252 238.362 194.268 238.362 194.268C238.362 194.268 237.578 191.914 237.97 191.522C238.362 191.13 238.362 191.522 237.97 190.737C237.578 189.953 237.578 190.737 238.362 189.953C239.147 189.168 239.147 189.168 239.147 188.776C239.147 188.384 241.499 178.577 241.499 178.577L235.226 166.808Z"/><path fill="#000" d="M241.303 212.901L249.929 210.155L251.105 212.901L241.695 214.862L241.303 212.901Z"/><path fill="#000" d="M241.303 212.901L249.929 210.155L251.105 212.901L241.695 214.862L241.303 212.901Z" opacity=".1"/><path fill="#000" d="M253.066 153.667L259.731 159.159L260.516 157.982L253.066 153.667Z" opacity=".1"/><path fill="#000" d="M266.397 155.236L261.692 157.982L262.084 159.159L266.397 155.236Z" opacity=".1"/></svg>